<?xml version="1.0" standalone="no"?>
<!DOCTYPE svg PUBLIC "-//W3C//DTD SVG 1.1//EN" "http://www.w3.org/Graphics/SVG/1.1/DTD/svg11.dtd" >
<svg xmlns="http://www.w3.org/2000/svg" xmlns:xlink="http://www.w3.org/1999/xlink" version="1.1">
<metadata>
Created by FontForge 20170924 at Fri Jul 14 14:38:13 2017
 By www-data
Copyright (c) 2017 by Olexstudio. All rights reserved.
</metadata>
<defs>
<font id="BellatineProTRIAL" horiz-adv-x="686" >
  <font-face 
    font-family="Bellatine Pro TRIAL"
    font-weight="400"
    font-stretch="normal"
    units-per-em="1000"
    panose-1="2 0 5 5 0 0 0 2 0 4"
    ascent="750"
    descent="-250"
    x-height="434"
    cap-height="777"
    bbox="-119.571 -185 1174.66 950"
    underline-thickness="50"
    underline-position="-100"
    unicode-range="U+000D-FB02"
  />
<missing-glyph horiz-adv-x="235" 
 />
    <glyph glyph-name=".notdef" horiz-adv-x="235" 
 />
    <glyph glyph-name="NULL" horiz-adv-x="0" 
 />
    <glyph glyph-name="NULL" horiz-adv-x="0" 
 />
    <glyph glyph-name="nonmarkingreturn" unicode="&#xd;" horiz-adv-x="235" 
 />
    <glyph glyph-name="space" unicode=" " horiz-adv-x="235" 
 />
    <glyph glyph-name="B" unicode="B" horiz-adv-x="705" 
d="M409 750q1 0 12.5 0.5t29 -1t39 -6.5t42 -15t38.5 -26.5t29 -42.5q10 -26 8.5 -56.5t-11.5 -61.5t-24.5 -60t-29.5 -53q26 2 50.5 -6t45.5 -30q16 -17 22.5 -38.5t5.5 -45.5q24 -2 39.5 -4.5t19.5 -4.5q6 -3 6 -6.5t-2 -5.5q-3 -4 -8 -6q-7 1 -16 1h-42q-7 -37 -26 -75.5
t-45 -73t-55 -61t-56 -39.5q-60 -29 -117 -31.5t-99 23.5q-23 14 -39 34t-25 42q-3 6 -5.5 14t-4.5 18q-9 40 13 72.5t85 58.5q1 38 3.5 82.5t7.5 86.5q-18 -40 -41.5 -72.5t-49.5 -50.5q-31 -22 -64.5 -29.5t-62.5 -1t-50 27.5t-26 55q-8 50 5 97t40 89t65.5 77t82.5 61
q50 29 104 46t106 18zM419 348q-3 13 16 32t49 33q16 26 36 71q25 57 20 92.5t-29 55t-61.5 24.5t-78.5 0.5t-79.5 -15.5t-64.5 -25q-69 -36 -120 -94t-66 -130q-6 -30 4.5 -47t32 -21t49.5 4t57 28q22 16 43 39t38.5 49t30.5 52t20 49q6 24 13 31q8 6 18.5 7.5t20.5 0.5
t16.5 -2.5t6.5 -0.5q1 -3 1.5 -30t1 -68.5t1 -91t2.5 -95.5q15 3 29.5 5.5t31.5 4.5q-6 2 -20.5 12t-18.5 30zM314 88q26 -2 56 5t62 25q57 33 95.5 76t58.5 85q-42 -3 -89.5 -10.5t-97.5 -21.5q2 -35 4.5 -61t6.5 -37q0 -1 -1 -3t-3.5 -4.5t-8.5 -6.5q-12 -7 -35 -11t-42 9
q-12 8 -20.5 25t-9.5 46q-41 -23 -50.5 -44t-4.5 -35q11 -16 31 -25.5t48 -11.5zM571 396q-23 7 -43 -6t-34 -32q-18 -22 -31 -52q35 4 69.5 5t65.5 0q8 32 2 55t-29 30z" />
    <glyph glyph-name="A" unicode="A" horiz-adv-x="736" 
d="M630 748q32 -20 40 -60t5.5 -97.5t-9.5 -132t-5 -162.5q2 -61 5 -115.5t20 -89.5q8 -17 19 -21q5 -3 0.5 -10t-15.5 -15.5t-27 -15t-33 -8t-33.5 5t-29.5 25.5q-6 8 -21 25t-37.5 40t-51 50t-61.5 56q-6 -14 -12 -26l-12 -24q-28 -52 -63.5 -91.5t-76 -60.5t-83 -20.5
t-83.5 27.5q-39 25 -56.5 58t-18 68t13 70t36.5 64.5t53.5 50.5t62.5 30q-58 16 -129 10q1 -2 -9.5 -8t-17.5 -4q-3 1 -3 16.5t6.5 33.5t22.5 33.5t44 17.5q27 1 61.5 -8.5t73 -27t77.5 -41.5t74 -52q35 71 69 143.5t65.5 132t60.5 97t53 38.5zM307 292q-25 17 -47 30
t-44 24q-43 0 -77 -21.5t-56 -54t-30.5 -70.5t-2 -69t30 -50t65.5 -14q37 5 75.5 49.5t76.5 111.5l28 50zM544 288q2 29 4.5 58.5t6.5 58.5q7 51 15 97.5t14 85t9 67t-1 42.5q-13 -19 -32 -57t-45 -104q-22 -55 -45 -121.5t-49 -132.5q39 -37 69.5 -72.5t52.5 -64.5
q-2 30 -1.5 67t2.5 76z" />
    <glyph glyph-name="C" unicode="C" horiz-adv-x="655" 
d="M665 300q13 -5 10.5 -14.5t-5.5 -19.5q-12 -38 -38 -73.5t-61 -66.5t-77 -56t-86 -41t-88.5 -22t-83.5 1q-77 14 -126 46.5t-75 77t-32.5 97.5t2 106.5t29.5 105t48 93.5q54 81 117 130t125.5 69.5t119 15t96.5 -31.5q39 -26 55.5 -65.5t14 -80.5t-22 -78.5t-51.5 -58.5
q-39 -26 -70 -27.5t-48.5 7t-19.5 20t17 11.5q-1 0 8.5 3.5t24 12t32.5 22t33.5 33.5t27 47t13.5 62q2 38 -29 56.5t-75 13.5q-75 -8 -134.5 -49.5t-100 -100.5t-60.5 -127.5t-16 -131.5t34.5 -112.5t90.5 -70.5q56 -20 115 -11t112 37.5t96.5 73.5t69.5 98h4z" />
    <glyph glyph-name="E" unicode="E" horiz-adv-x="612" 
d="M220 103q55 -23 114 -14.5t112 38t97 75.5t70 99h4l4 -1q13 -5 11.5 -15t-6.5 -19q-28 -59 -75.5 -111t-106 -89t-123.5 -54.5t-128 -6.5q-31 6 -67 21t-65 42t-46 66t-10 92q5 40 25 71t47.5 53.5t58 36.5t57.5 19q-15 7 -30.5 17t-29 24t-22.5 32.5t-10 42.5
q-2 60 29 106t81 75q44 26 94.5 37.5t98.5 6.5q53 -5 92 -30q39 -26 55.5 -65.5t14 -80.5t-22 -78.5t-51.5 -58.5q-39 -26 -70 -27.5t-48.5 7t-19.5 20t17 11.5q-1 0 8.5 3.5t24 12t32.5 22t33.5 33.5t27 47t13.5 62q2 24 -9.5 38t-29.5 21t-39 8.5t-38 -0.5
q-49 -6 -94.5 -34.5t-73 -69t-28 -86.5t40.5 -86q9 2 20 3.5t22 1.5t20.5 -2.5t14.5 -8.5q10 -13 11 -26t-5 -23t-16.5 -15.5t-21.5 -3.5q-13 2 -27 12t-26 21q-27 -9 -49.5 -28t-37.5 -44t-20.5 -53t2.5 -55t30.5 -51.5t63.5 -40.5z" />
    <glyph glyph-name="F" unicode="F" horiz-adv-x="579" 
d="M330 75q-4 15 -12 34t-22 39.5t-28.5 38t-26.5 30t-15 15.5l-6 4q-9 6 -10.5 15t1.5 17t8 12.5t9 2.5t10 -4t16.5 -2t27 2t43.5 7q2 25 4.5 50t5.5 49q6 45 11.5 76.5t10.5 54.5q-17 -35 -44 -75t-61.5 -74t-77 -56t-90.5 -21q-26 0 -46 14t-30.5 38.5t-8.5 58t20 74.5
q24 54 74 102.5t116 86t143.5 60.5t157.5 25q78 2 139 -11t103 -34t63 -47t20 -50q-1 -11 -4.5 -17t-8.5 -8q-5 -3 -12 -3q-6 3 -7 4.5t0 3.5t1.5 4.5t-2.5 7.5q-6 10 -25 21t-53.5 21t-86 17t-122.5 8q-74 1 -146.5 -16t-134 -46.5t-108 -67.5t-69.5 -78q-18 -32 -21 -56
t5 -40.5t24 -24.5t36 -8q25 0 48.5 12.5t45 32t40.5 44.5t35 51q38 61 69 138q-1 0 1 3q2 2 4.5 5.5t9.5 9.5q6 5 13.5 8.5t13.5 5.5q7 2 15 2q0 -1 1 -1h2h1q20 -2 30.5 -15t16.5 -31q5 -16 6 -40.5t-1 -59.5t-5 -81t-5 -104q32 5 57.5 6t39.5 -5q11 -5 13 -14t0 -18
t-6.5 -15.5t-6.5 -6.5q-8 4 -21 8q-11 3 -30 4.5t-47 -1.5q-2 -59 3.5 -111t21.5 -85q8 -17 19 -21q6 -3 -0.5 -12t-21 -18t-34 -15t-39 -2t-36 20.5t-24.5 51.5zM322 241q-14 -4 -27.5 -6.5t-26.5 -4.5q11 -7 25 -19t28 -29v29t1 30z" />
    <glyph glyph-name="G" unicode="G" horiz-adv-x="649" 
d="M241 12q-70 0 -117 25.5t-74.5 67t-36.5 95.5t-3.5 110t25 110t49.5 97q55 80 119 131t126 75t118 22t96 -28q39 -26 55.5 -65.5t14 -80.5t-22 -78.5t-51.5 -58.5q-39 -26 -70 -27.5t-48.5 7t-19.5 20t17 11.5q-1 0 8.5 3.5t24 12t32.5 22t33.5 33.5t27 47t13.5 62
q2 38 -29 56.5t-75 13.5q-54 -7 -100.5 -35t-84 -70t-65 -94t-43 -105.5t-18 -105.5t9.5 -94.5t39 -71t72 -35.5q50 -8 92.5 11t73 54.5t47.5 82t16 93.5q2 0 10 2.5t18.5 2.5t21 -4.5t16.5 -17.5q7 -14 17 -58.5t15 -103.5q10 12 20 28t16 33t10.5 34.5t7.5 31.5q4 16 6 31
q9 2 17 0q6 -2 11.5 -6.5t5.5 -15.5q0 -10 -4.5 -33t-15 -50.5t-28.5 -57t-44 -51.5q1 -43 -4.5 -86.5t-19.5 -83.5q-14 -39 -34.5 -62t-44.5 -33t-49 -10t-47 8q-22 7 -39 22t-24 36t-0.5 46t32.5 52q11 12 26.5 24t33 23t34 21.5t29.5 18.5q2 25 3.5 49.5t3.5 48.5
q-37 -70 -102 -111t-149 -41zM402 -55q-19 -29 -18.5 -45.5t17.5 -21.5q12 -4 24.5 5t23 28t19 46.5t12.5 60.5q-21 -11 -42.5 -30.5t-35.5 -42.5z" />
    <glyph glyph-name="H" unicode="H" horiz-adv-x="829" 
d="M436 636q20 -4 29.5 -17.5t14.5 -31.5q4 -16 3 -40t-5 -57.5t-9.5 -77.5t-11.5 -100q30 6 62 11.5t64 9.5q8 40 15.5 76.5t11.5 63.5q6 40 8 62t1.5 33.5t-1.5 15.5t-1 9q0 1 11.5 4t26 3t27.5 -5t17 -19q3 -13 3 -38t-1.5 -57.5t-4.5 -69.5l-6 -74q19 -2 33.5 -6.5
t22.5 -13.5q9 -9 10.5 -18.5t-1 -17t-7 -12.5t-6.5 -5q-4 5 -11 9q-13 8 -44 15q-2 -30 -2 -56.5t2 -46.5t7 -32.5t13 -14.5q12 -3 23.5 2.5t22.5 16t21 25t19 29.5q20 36 38 84l26 -10q-1 -6 -7 -26t-17.5 -46.5t-28.5 -55.5t-39.5 -51.5t-50 -36t-60.5 -8.5
q-34 5 -52.5 26.5t-26 53.5t-6 71.5t7.5 80.5q-50 -3 -124 -18v-5q-6 -61 -4.5 -116t15.5 -90q7 -18 18 -23q6 -3 -1.5 -12t-23 -17t-36 -12t-39.5 1.5t-34.5 25t-20.5 57.5q-2 6 -4.5 12t-4.5 13q-8 19 -22 39.5t-28.5 38t-26.5 30t-15 15.5l-6 4q-9 6 -11 17t0 21t7 17
t9 6q5 -2 12.5 -4.5t20 -4.5t31.5 -2t48 3q4 25 8 49t9 47q8 42 15.5 71.5t13.5 52.5q-9 -27 -31.5 -60t-54 -63t-68.5 -52.5t-74.5 -29.5t-72.5 5.5t-62 54.5q-25 39 -15.5 89.5t42.5 99.5t83.5 92t107.5 67q55 24 109.5 30t98.5 -3.5t74.5 -33.5t39.5 -61
q2 -11 -1.5 -16.5t-9.5 -7.5q-7 -3 -16 -2q-12 6 -13.5 9t6.5 12q14 16 -9 27t-66.5 12.5t-100.5 -9.5t-112 -40q-27 -14 -62.5 -40.5t-66 -59.5t-48 -69.5t-6.5 -70.5q6 -21 24 -30.5t41 -8.5q58 2 106.5 33t83 72.5t51.5 84t12 67.5q-1 0 1 3q2 2 5 5.5t10 8.5t14 7.5
t14 4.5q7 1 15 1q0 -1 1 -1h2h1zM332 245q-17 -5 -33.5 -9t-30.5 -6q11 -8 26.5 -21t31.5 -33q1 33 6 69z" />
    <glyph glyph-name="J" unicode="J" horiz-adv-x="532" 
d="M86 402q-26 11 -42 32t-23 47.5t-4.5 57t13.5 62.5q16 46 57.5 82t93.5 52.5t108 9.5t101 -46q29 -25 47 -58.5t27.5 -71t11.5 -77t0 -75t-6.5 -66t-9.5 -50.5l81 2v-27q-10 -2 -24 -4q-12 -2 -29 -4.5t-37 -4.5q-18 -65 -48 -114t-66 -82.5t-74 -50.5t-72 -18
q-39 -1 -76.5 16t-58.5 44.5t-18 63t46 71.5q24 20 54.5 35.5t64 26.5t67.5 19t66 13q15 34 27 82t16 100t-3 102.5t-30 88.5q-22 37 -53.5 44.5t-65 -5.5t-64 -41.5t-49.5 -64.5q-18 -33 -25 -64.5t-5.5 -55.5t10.5 -37.5t23 -11.5q14 -5 27.5 3t24.5 15t18.5 7.5
t8.5 -18.5q1 -18 -10 -27.5t-28 -12t-36.5 0.5t-35.5 10zM128 104q13 1 37 7t51.5 22t55.5 43.5t50 70.5q-62 -13 -109.5 -37.5t-75 -48.5t-31.5 -41.5t22 -15.5z" />
    <glyph glyph-name="K" unicode="K" horiz-adv-x="690" 
d="M436 636q20 -4 29.5 -17.5t14.5 -31.5q8 -32 -1.5 -95.5t-21.5 -171.5q38 18 66.5 45t48 57t32 60t20 54t10.5 40t5 17q1 1 10.5 2.5t20.5 -1t20 -10.5t9 -25q1 -36 -15 -71t-42.5 -67.5t-61.5 -61.5t-73 -52q19 -4 40.5 -23t45.5 -61q28 -49 47 -80.5t33 -49t24.5 -22.5
t21.5 -1q9 3 11 7t2 8t-0.5 6.5t1.5 3.5q11 4 16 -1t6 -13.5t-0.5 -18.5t-4.5 -17q-5 -13 -19 -25t-33.5 -18.5t-42.5 -5.5t-44.5 13.5t-40.5 39t-31 69.5q-8 28 -14.5 55t-15 49.5t-19 38t-26.5 21.5l-11 -5v-7q-6 -61 -4.5 -116t15.5 -90q7 -18 18 -23q6 -3 -1.5 -12
t-23 -17t-36 -12t-39.5 1.5t-34.5 25t-20.5 57.5q-2 6 -4.5 12t-4.5 13q-8 19 -22 39.5t-28.5 38t-26.5 30t-15 15.5l-6 4q-9 6 -11 17t0 21t7 17t9 6q5 -2 12.5 -4.5t20 -4.5t31.5 -2t48 3q4 25 8 49t9 47q8 42 15.5 71.5t13.5 52.5q-9 -27 -31.5 -60t-54 -63t-68.5 -52.5
t-74.5 -29.5t-72.5 5.5t-62 54.5q-25 39 -15.5 89.5t42.5 99.5t83.5 92t107.5 67q55 24 109.5 30t98.5 -3.5t74.5 -33.5t39.5 -61q2 -11 -1.5 -16.5t-9.5 -7.5q-7 -3 -16 -2q-12 6 -13.5 9t6.5 12q14 16 -9 27t-66.5 12.5t-100.5 -9.5t-112 -40q-27 -14 -62.5 -40.5
t-66 -59.5t-48 -69.5t-6.5 -70.5q6 -21 24 -30.5t41 -8.5q58 2 106.5 33t83 72.5t51.5 84t12 67.5q-1 0 1 3q2 2 5 5.5t10 8.5t14 7.5t14 4.5q7 1 15 1q0 -1 1 -1h2h1zM332 245q-17 -5 -33.5 -9t-30.5 -6q11 -8 26.5 -21t31.5 -33q1 33 6 69z" />
    <glyph glyph-name="I" unicode="I" horiz-adv-x="647" 
d="M428 619q54 10 85 11t47.5 -4t22 -15.5t8.5 -23.5q4 -18 2.5 -45t-6 -65.5t-11 -89.5t-12.5 -117q-6 -61 -4.5 -116t15.5 -90q7 -18 18 -23q6 -3 -2 -12.5t-24.5 -17.5t-37.5 -12t-40.5 3.5t-34 30t-17.5 66.5q-2 33 0.5 77.5t8.5 92.5q4 29 9 58.5t10 57.5q4 19 10 48.5
t10.5 61t6 59.5t-3.5 44q-14 -2 -28.5 -4.5t-31.5 -7.5q-1 -15 -4.5 -37.5t-9.5 -46.5t-12.5 -47.5t-13.5 -39.5q-24 -57 -64.5 -102t-87.5 -70.5t-95.5 -29t-87.5 21.5q-31 20 -44.5 43.5t-18.5 50.5q-9 53 23.5 96.5t88 77.5t124.5 59t134 41q4 35 2.5 65t-7 49.5t-14 27
t-18.5 -1.5q-9 -8 -12 -6.5t-10 13.5q-1 9 2 16q2 6 7.5 9.5t16.5 1.5q45 -11 71.5 -54t29.5 -104zM38 334q-2 -23 8 -40.5t31 -23.5q23 -7 47 -1t47 20.5t45 35.5t41 44t34 45.5t24 40.5q27 55 38 109q-55 -18 -111 -44t-101.5 -56t-74 -63t-28.5 -67z" />
    <glyph glyph-name="L" unicode="L" horiz-adv-x="709" 
d="M384 531q-24 -57 -64.5 -102t-87.5 -70.5t-95.5 -29t-87.5 21.5q-31 20 -44.5 43.5t-18.5 50.5q-9 53 20 98t82 80t123.5 59.5t144.5 36.5q4 35 2.5 65t-7 49.5t-14 27t-18.5 -1.5q-9 -8 -12 -6.5t-10 13.5q-1 9 2 16q2 6 7.5 9.5t16.5 1.5q45 -11 70 -57.5t29 -106.5
q16 0 36 0.5t37 -0.5q12 18 28.5 30t36.5 13q30 1 44 -13t12.5 -30.5t-17.5 -30t-44 -11.5h-10t-10 1q-14 -43 -26.5 -103t-21.5 -125.5t-12.5 -131t2 -119t21 -89.5t44.5 -43q23 -6 48 14t47.5 53.5t41.5 75.5t30 81q7 1 11 1q10 0 9 -8q-8 -53 -25 -103.5t-41.5 -91.5
t-55 -68t-66.5 -31q-32 -4 -62 4.5t-54.5 29.5t-42 55t-24.5 81q-11 73 -2 147.5t28.5 142.5t44 127t44.5 102h-26.5t-23.5 -1q-1 -15 -5 -35.5t-9.5 -42.5t-12 -42.5t-12.5 -36.5zM34 450q-2 -23 8 -40.5t31 -23.5q23 -7 47 -1t47 20.5t45 35.5t41 44t34 45.5t24 40.5
q27 55 38 109q-53 -12 -108.5 -34.5t-101 -53t-75 -67t-30.5 -75.5z" />
    <glyph glyph-name="M" unicode="M" horiz-adv-x="1130" 
d="M428 619q54 10 85 11t47.5 -4t22 -15.5t8.5 -23.5q6 -28 -2 -87t-18 -142q8 20 17 40t20.5 36t26 26.5t32.5 13.5q28 4 45 -4t26 -22.5t12.5 -33t4.5 -35t1 -28t4 -13.5q3 -1 8.5 23.5t16 60t26.5 75.5t38.5 70.5t52 43.5t68.5 -6q21 -10 31.5 -28t14.5 -39.5t3.5 -44.5
t-1.5 -43q-2 -49 -8 -102.5t-10.5 -99.5t-3.5 -76.5t13 -33.5q24 -5 46.5 18.5t39.5 54.5q20 36 38 84l26 -10q-1 -6 -7 -26t-17.5 -46.5t-28.5 -55.5t-39.5 -51.5t-50 -36t-60.5 -8.5q-37 5 -55.5 29.5t-25 60.5t-3 79.5t11 87.5t16 84.5t12.5 70.5q3 20 4.5 35t3.5 26
q-2 7 -5.5 14.5t-10 6.5t-17 -16t-25.5 -53q-19 -48 -30.5 -102t-17.5 -101q-7 -55 -10 -107q-17 -9 -35 -13q-15 -4 -34 -4.5t-37 9.5q-18 9 -25.5 34.5t-8 56t2.5 61t6 51.5t-1 30t-11 11.5t-14.5 -1t-11.5 -8.5q-18 -20 -32 -57.5t-23 -82.5t-12 -92t0 -85
q2 -6 3.5 -11.5t3.5 -10.5q7 -18 18 -23q6 -3 -2 -12.5t-24.5 -17.5t-37.5 -12t-40.5 3.5t-34 30t-17.5 66.5q-2 33 0.5 77.5t8.5 92.5q4 29 9 58.5t10 57.5q4 19 10 48.5t10.5 61t6 59.5t-3.5 44q-14 -2 -28.5 -4.5t-31.5 -7.5q-1 -15 -4.5 -37.5t-9.5 -46.5t-12.5 -47.5
t-13.5 -39.5q-24 -57 -64.5 -102t-87.5 -70.5t-95.5 -29t-87.5 21.5q-31 20 -44.5 43.5t-18.5 50.5q-9 53 23.5 96.5t88 77.5t124.5 59t134 41q4 35 2.5 65t-7 49.5t-14 27t-18.5 -1.5q-9 -8 -12 -6.5t-10 13.5q-1 9 2 16q2 6 7.5 9.5t16.5 1.5q45 -11 71.5 -54t29.5 -104z
M38 334q-2 -23 8 -40.5t31 -23.5q23 -7 47 -1t47 20.5t45 35.5t41 44t34 45.5t24 40.5q27 55 38 109q-55 -18 -111 -44t-101.5 -56t-74 -63t-28.5 -67z" />
    <glyph glyph-name="N" unicode="N" horiz-adv-x="989" 
d="M428 619q54 10 85 11t47.5 -4t22 -15.5t8.5 -23.5q4 -16 3 -39t-4.5 -55t-9 -73.5t-11.5 -94.5q11 38 26 80t35 81q26 50 51 80t49.5 43t48.5 10.5t48 -16.5q28 -16 37.5 -56t9 -90.5t-7.5 -105.5t-12 -101.5t-4 -77.5t16 -34q24 -5 46.5 19t39.5 55q20 36 38 83l26 -10
q-1 -6 -7 -26t-17.5 -46.5t-28.5 -55.5t-39.5 -52t-50 -36t-60.5 -8q-35 5 -54.5 26t-27 52.5t-6 71t7.5 81t15 82.5t16 76t10 61.5t-2 38.5q-4 10 -16 10.5t-29 -13t-37 -43.5t-40 -81q-21 -53 -38 -103t-28 -96t-14 -86.5t5 -73.5q2 -10 7 -15t11 -8t-2 -12.5t-24.5 -17.5
t-37.5 -12t-40.5 3.5t-34 30t-17.5 66.5q-2 33 0.5 77.5t8.5 92.5q4 29 9 58.5t10 57.5q4 19 10 48.5t10.5 61t6 59.5t-3.5 44q-14 -2 -28.5 -4.5t-31.5 -7.5q-1 -15 -4.5 -37.5t-9.5 -46.5t-12.5 -47.5t-13.5 -39.5q-24 -57 -64.5 -102t-87.5 -70.5t-95.5 -29t-87.5 21.5
q-31 20 -44.5 43.5t-18.5 50.5q-9 53 23.5 96.5t88 77.5t124.5 59t134 41q4 35 2.5 65t-7 49.5t-14 27t-18.5 -1.5q-9 -8 -12 -6.5t-10 13.5q-1 9 2 16q2 6 7.5 9.5t16.5 1.5q45 -11 71.5 -54t29.5 -104zM38 334q-2 -23 8 -40.5t31 -23.5q23 -7 47 -1t47 20.5t45 35.5t41 44
t34 45.5t24 40.5q27 55 38 109q-55 -18 -111 -44t-101.5 -56t-74 -63t-28.5 -67z" />
    <glyph glyph-name="O" unicode="O" 
d="M322 0q-68 -8 -122 6.5t-93 44t-63.5 72t-35.5 90.5t-7.5 99t20.5 98t47.5 87t74.5 66q-1 37 14.5 67t41 51.5t57.5 33t64 11.5q58 -1 103 -22.5t78.5 -58t54.5 -84.5t31.5 -102t9.5 -111t-12 -110q28 7 47 17t32 20q14 11 24 23q8 3 12 3q4 -1 4.5 -5t-6.5 -18
q-6 -12 -18 -25t-29.5 -25t-39 -22t-46.5 -16q-34 -75 -94.5 -127.5t-148.5 -62.5zM253 656q-21 -32 -25.5 -76t4.5 -91t30 -93t51.5 -82.5t68 -59.5t80.5 -24q13 56 13.5 116t-9.5 114q-12 68 -38 121t-57 82t-62.5 29.5t-55.5 -36.5zM451 189q-70 9 -122 37t-88 68t-57 88
t-28 96q-18 -34 -28 -80.5t-10.5 -96t9.5 -97t32 -84.5t57.5 -58t85.5 -17q27 2 50 14t42 31.5t33 44.5t24 54z" />
    <glyph glyph-name="P" unicode="P" horiz-adv-x="882" 
d="M428 619q54 10 85 11t47.5 -4t22 -15.5t8.5 -23.5l3 -22q15 39 33.5 73.5t40.5 60t47 39t53 8.5q35 -6 56.5 -30.5t32.5 -60.5t11.5 -79t-7 -86.5t-21.5 -83.5t-34 -70q-12 -19 -27 -37h78q22 0 45 1q3 -6 4 -11q0 -5 -2.5 -9.5t-12.5 -8.5q-8 -3 -26 -5.5t-40.5 -4
t-45.5 -2.5t-39 -2q-48 -43 -89 -46t-66 15q-17 12 -20 24.5t4.5 23t23 18t33.5 8.5t30.5 2t20.5 1h15q12 20 23 48q10 24 20 59t18 81q7 46 9.5 85.5t1 68.5t-6.5 46t-12 17q-15 1 -47 -43t-64 -124q-25 -61 -40 -110t-23 -89q-2 -17 -3.5 -34.5t-3.5 -37.5
q-6 -61 -4.5 -116t15.5 -90q7 -18 18 -23q6 -3 -2 -12.5t-24.5 -17.5t-37.5 -12t-40.5 3.5t-34 30t-17.5 66.5q-2 33 0.5 77.5t8.5 92.5q4 29 9 58.5t10 57.5q4 19 10 48.5t10.5 61t6 59.5t-3.5 44q-14 -2 -28.5 -4.5t-31.5 -7.5q-1 -15 -4.5 -37.5t-9.5 -46.5t-12.5 -47.5
t-13.5 -39.5q-24 -57 -64.5 -102t-87.5 -70.5t-95.5 -29t-87.5 21.5q-31 20 -44.5 43.5t-18.5 50.5q-9 53 23.5 96.5t88 77.5t124.5 59t134 41q4 35 2.5 65t-7 49.5t-14 27t-18.5 -1.5q-9 -8 -12 -6.5t-10 13.5q-1 9 2 16q2 6 7.5 9.5t16.5 1.5q45 -11 71.5 -54t29.5 -104z
M38 334q-2 -23 8 -40.5t31 -23.5q23 -7 47 -1t47 20.5t45 35.5t41 44t34 45.5t24 40.5q27 55 38 109q-55 -18 -111 -44t-101.5 -56t-74 -63t-28.5 -67z" />
    <glyph glyph-name="Q" unicode="Q" 
d="M322 0q-68 -8 -122 6.5t-93 44t-63.5 72t-35.5 90.5t-7.5 99t20.5 98t47.5 87t74.5 66q-1 37 14.5 67t41 51.5t57.5 33t64 11.5q58 -1 103 -22.5t78.5 -58t54.5 -84.5t31.5 -102t9.5 -111t-12 -110q28 7 47 17t32 20q14 11 24 23q8 3 12 3q4 -1 4.5 -5t-6.5 -18
q-6 -12 -18 -25t-29.5 -25t-39 -22t-46.5 -16q-34 -75 -94.5 -127.5t-148.5 -62.5zM253 656q-21 -32 -25.5 -76t4.5 -91t30 -93t51.5 -82.5t68 -59.5t80.5 -24q13 56 13.5 116t-9.5 114q-12 68 -38 121t-57 82t-62.5 29.5t-55.5 -36.5zM451 189q-70 9 -122 37t-88 68t-57 88
t-28 96q-18 -34 -28 -80.5t-10.5 -96t9.5 -97t32 -84.5t57.5 -58t85.5 -17q27 2 50 14t42 31.5t33 44.5t24 54zM379 -29q66 -19 106.5 -25t63.5 -4.5t33.5 8t15.5 13.5q1 0 10.5 -2.5t8.5 -14.5q-1 -6 -7.5 -19.5t-20 -27.5t-33.5 -25.5t-47 -13.5t-58 6.5t-62 21
t-60.5 25.5t-53.5 20q-25 7 -42 5t-28 -7q-13 -6 -21 -16l-11 -12q-7 0 -12 1t-9 3.5t-5 7.5q-2 6 8.5 23.5t37 31.5t72 17.5t114.5 -16.5z" />
    <glyph glyph-name="R" unicode="R" horiz-adv-x="882" 
d="M428 619q54 10 85 11t47.5 -4t22 -15.5t8.5 -23.5l3 -22q15 39 33.5 73.5t40.5 60t47 39t53 8.5q35 -6 56.5 -30.5t32.5 -60.5t11.5 -79t-7 -86.5t-21.5 -83.5t-34 -70q-22 -33 -43 -56t-41 -38q32 -56 53.5 -91.5t36.5 -55t26 -24.5t22 -1q9 3 11 7t2 8t-0.5 6.5
t1.5 3.5q11 4 16 -1t6 -13.5t-0.5 -18.5t-4.5 -17q-5 -13 -19 -25t-33.5 -18.5t-42.5 -5.5t-44.5 13.5t-40.5 39t-31 69.5q-8 25 -13.5 49t-12.5 45q-21 -4 -38.5 0t-30.5 14q-23 17 -19 35t22.5 30t44 14t45.5 -12q6 10 16.5 28.5t21.5 44t21 57.5t16 68q7 46 9.5 85.5
t1 68.5t-6.5 46t-12 17q-15 1 -47 -43t-64 -124q-25 -61 -40 -110t-23 -89q-2 -17 -3.5 -34.5t-3.5 -37.5q-6 -61 -4.5 -116t15.5 -90q7 -18 18 -23q6 -3 -1.5 -11.5t-22 -17t-34.5 -13t-39 0.5t-34.5 22.5t-21.5 52.5h-1q-4 15 -12 34t-22 39.5t-28.5 38t-26.5 30t-15 15.5
l-6 4q-9 6 -11 17t0 21t7 17t9 6q5 -2 12.5 -4.5t20 -4.5t32 -2t49.5 4l8 48t9 47q4 19 10 48.5t10.5 61t6 59.5t-3.5 44q-14 -2 -28.5 -4.5t-31.5 -7.5q-1 -15 -4.5 -37.5t-9.5 -46.5t-12.5 -47.5t-13.5 -39.5q-24 -57 -64.5 -102t-87.5 -70.5t-95.5 -29t-87.5 21.5
q-31 20 -44.5 43.5t-18.5 50.5q-9 53 23.5 96.5t88 77.5t124.5 59t134 41q4 35 2.5 65t-7 49.5t-14 27t-18.5 -1.5q-9 -8 -12 -6.5t-10 13.5q-1 9 2 16q2 6 7.5 9.5t16.5 1.5q45 -11 71.5 -54t29.5 -104zM38 334q-2 -23 8 -40.5t31 -23.5q23 -7 47 -1t47 20.5t45 35.5t41 44
t34 45.5t24 40.5q27 55 38 109q-55 -18 -111 -44t-101.5 -56t-74 -63t-28.5 -67zM443 245q-18 -5 -34.5 -9t-31.5 -6q11 -8 27.5 -22t32.5 -34q1 17 2.5 35t3.5 36z" />
    <glyph glyph-name="S" unicode="S" horiz-adv-x="553" 
d="M260 419q-41 11 -56.5 32t-16 37.5t9 21.5t20.5 -17q-7 -3 -9 -7q-2 -3 2.5 -6.5t19.5 -7.5q19 -5 49 1.5t64 20.5t67.5 32.5t59.5 39t40 40.5t8 35q-7 18 -39 26t-78 6.5t-100 -12t-104 -30t-89.5 -48.5t-56.5 -66q-13 -29 -0.5 -52t41.5 -42.5t70 -36t83.5 -32t82 -31
t66.5 -31.5q30 8 60 10.5t54.5 2t40.5 -2t17 -2.5l4 -26q-3 -1 -14.5 -0.5t-29 0.5t-38.5 -2t-42 -8q29 -20 51 -44.5t27 -59.5q8 -51 -15 -85t-60 -52t-78.5 -20.5t-71.5 9.5q-33 13 -52.5 29.5t-29.5 33.5t-13.5 33t-3.5 30q-1 29 17.5 52.5t48.5 42.5l-44 20
q-29 13 -58.5 27.5t-55.5 31t-48 36.5t-37 44q-8 12 -13 29t-7 35.5t-0.5 37t6.5 33.5q22 66 67.5 108t101 65t116 29t112.5 -0.5t89.5 -23.5t49.5 -40q14 -28 9.5 -60t-22.5 -63t-47.5 -58.5t-65.5 -45.5t-77 -24t-82 5zM230 124q1 -22 26 -39.5t58.5 -24.5t68 -1t53.5 32
q9 12 2.5 25.5t-23.5 27.5t-41 28.5t-49 28.5q-12 -3 -28.5 -11t-31.5 -19t-25.5 -23t-9.5 -24z" />
    <glyph glyph-name="T" unicode="T" horiz-adv-x="709" 
d="M384 531q-24 -57 -64.5 -102t-87.5 -70.5t-95.5 -29t-87.5 21.5q-31 20 -44.5 43.5t-18.5 50.5q-9 53 20 98t82 80t123.5 59.5t144.5 36.5q4 35 2.5 65t-7 49.5t-14 27t-18.5 -1.5q-9 -8 -12 -6.5t-10 13.5q-1 9 2 16q2 6 7.5 9.5t16.5 1.5q45 -11 70 -57.5t29 -106.5
q16 0 36 0.5t37 -0.5q6 9 13 21t13 23t10.5 18.5t5.5 7.5q20 -7 28.5 -11.5t9 -12t-5.5 -19t-15 -32.5q9 -1 24 -2.5t32 -3t33.5 -2.5t30.5 0q33 1 66 4.5t58.5 8.5t39.5 11.5t10 14.5q-6 11 -10 16t9 10q5 2 12.5 1t13 -7t6 -18t-7.5 -31q-19 -45 -61 -59.5t-98 -11.5
q-23 1 -49 4.5t-50.5 8t-45.5 9t-33 7.5q-14 -43 -26.5 -103t-21 -125t-12 -130t2 -118t21 -88.5t44.5 -42.5q23 -6 48 14t47.5 53.5t41.5 75.5t30 81q7 1 11 1q10 0 9 -8q-8 -53 -25 -103.5t-41.5 -91.5t-55 -68t-66.5 -31q-32 -4 -62 4.5t-54.5 29.5t-42 55t-24.5 81
q-11 73 -2 147.5t28.5 142.5t44 127t44.5 102h-26.5t-23.5 -1q-1 -15 -5 -35.5t-9.5 -42.5t-12 -42.5t-12.5 -36.5zM34 450q-2 -23 8 -40.5t31 -23.5q23 -7 47 -1t47 20.5t45 35.5t41 44t34 45.5t24 40.5q27 55 38 109q-53 -12 -108.5 -34.5t-101 -53t-75 -67t-30.5 -75.5z
" />
    <glyph glyph-name="U" unicode="U" horiz-adv-x="934" 
d="M724 593q0 1 11.5 4t26 3t27.5 -5t17 -19q5 -18 3.5 -56t-4.5 -86t-7 -99t-5 -94t3.5 -71.5t17.5 -31.5q12 -3 23.5 2.5t22.5 16t21 25t19 29.5q20 36 38 84l26 -10q-1 -6 -7 -26t-17.5 -46.5t-28.5 -55.5t-39.5 -51.5t-50 -36t-60.5 -8.5q-39 5 -58 32t-24 67
q-23 -65 -57 -109t-81 -51q-32 -5 -62 3.5t-54.5 29.5t-42 55.5t-24.5 81.5q-11 73 -2 147.5t28.5 142.5t44 127t44.5 102h-26.5t-23.5 -1q-1 -15 -5 -35.5t-9.5 -42.5t-12 -42.5t-12.5 -36.5q-24 -57 -64.5 -102t-87.5 -70.5t-95.5 -29t-87.5 21.5q-31 20 -44.5 43.5
t-18.5 50.5q-9 53 20 98t82 80t123.5 59.5t144.5 36.5q4 35 2.5 65t-7 49.5t-14 27t-18.5 -1.5q-9 -8 -12 -6.5t-10 13.5q-1 9 2 16q2 6 7.5 9.5t16.5 1.5q45 -11 70 -57.5t29 -106.5q16 0 36 0.5t37 -0.5q12 18 28.5 30t36.5 13q30 1 44 -13t12.5 -30.5t-17.5 -30
t-44 -11.5h-10t-10 1q-14 -43 -25.5 -106t-19 -132t-9 -137t5.5 -121t23.5 -83t45.5 -24q23 5 44.5 37t40.5 79t35 103.5t27 110.5t17 99t5 69q0 3 -0.5 5t-0.5 5zM34 450q-2 -23 8 -40.5t31 -23.5q23 -7 47 -1t47 20.5t45 35.5t41 44t34 45.5t24 40.5q27 55 38 109
q-53 -12 -108.5 -34.5t-101 -53t-75 -67t-30.5 -75.5z" />
    <glyph glyph-name="V" unicode="V" horiz-adv-x="894" 
d="M373 613q51 20 81 27t47 5.5t24.5 -10.5t13.5 -22q7 -17 10.5 -43.5t6.5 -65.5t6.5 -90t10.5 -117q3 -27 6.5 -55.5t9 -55.5t12 -51.5t14.5 -42.5q11 -9 29 5.5t39 53t43 100.5t40 148q2 11 8 42t11 70.5t8 81t-1 73t-16.5 47t-37.5 3.5q-9 -4 -13 -11q-3 -4 -3 -6
q-11 7 -16 15q-5 7 -5 15t11 17t32.5 12.5t45 -8t43 -43.5t27.5 -95q7 -54 1.5 -109t-19.5 -109q-16 -63 -43.5 -124t-58 -111.5t-60.5 -86t-51 -48.5q-14 -11 -34.5 -19.5t-41.5 -5.5t-40 21.5t-30 62.5q-4 16 -8 39t-7.5 48.5t-6 52t-4.5 50.5q-2 29 -2.5 59t-0.5 59v49
t-1.5 61.5t-5.5 59.5t-12 43q-13 -5 -27 -10t-29 -13q2 -15 2.5 -38t0 -48t-3 -48.5t-6.5 -41.5q-12 -61 -43 -112.5t-72.5 -85.5t-88.5 -47t-90 4q-34 14 -52 34.5t-28 46.5q-13 33 -6 66t28 64.5t54 61t71.5 56t81 49.5t82.5 42q-3 36 -10 64.5t-16 47t-19 24t-18 -4.5
q-8 -9 -11 -9t-12 11q-2 9 -1 16q1 6 5.5 11t15.5 5q47 -2 81 -39t49 -97zM44 259q3 -23 16 -38.5t35 -17.5q36 -4 68 20.5t58.5 60.5t45 77t26.5 70t12.5 57.5t3.5 56.5q-50 -29 -100 -64.5t-89 -74t-60.5 -76.5t-15.5 -71z" />
    <glyph glyph-name="W" unicode="W" horiz-adv-x="1053" 
d="M845 582q1 -8 -7.5 -5.5t-15.5 10.5t-7 19.5t20 22.5q34 18 68.5 9t61.5 -41t43 -84.5t12 -121.5q-4 -78 -34.5 -143t-74.5 -100.5t-95 -33t-95 58.5q-12 -21 -29 -44t-38.5 -42.5t-47 -32.5t-53 -15t-57 10.5t-58.5 44.5q-26 28 -34.5 66.5t-6 81t12 87.5t19.5 86
t17 76.5t4.5 58.5t-19 32.5t-52.5 -1.5q2 -15 2.5 -38t0 -48t-3 -48.5t-6.5 -41.5q-12 -61 -43 -112.5t-72.5 -85.5t-88.5 -47t-90 4q-34 14 -52 34.5t-28 46.5q-13 33 -6 66t28 64.5t54 61t71.5 56t81 49.5t82.5 42q-3 36 -10 64.5t-16 47t-19 24t-18 -4.5q-8 -9 -11 -9
t-12 11q-2 9 -1 16q1 6 5.5 11t15.5 5q47 -2 81 -39t49 -97q26 10 46 10t35 -6.5t26.5 -16.5t20.5 -20q14 -16 19 -45t4.5 -66.5t-4 -80t-6.5 -84.5t-2.5 -80.5t8.5 -68.5q7 -26 20 -36t29.5 -9.5t35 10.5t35.5 24.5t31.5 31.5t23.5 32q-47 52 -61 104.5t-4 92.5t38.5 62.5
t67.5 15.5q37 -7 51 -35.5t11.5 -68.5t-17 -84.5t-33.5 -82.5q35 -49 66.5 -50.5t55.5 28.5t39.5 83.5t19.5 113.5q2 37 0 72t-9 65t-17.5 52t-24.5 33q-4 3 -9.5 1t-11 -6.5t-9 -11t-3.5 -10.5zM44 259q3 -23 16 -38.5t35 -17.5q36 -4 68 20.5t58.5 60.5t45 77t26.5 70
t12.5 57.5t3.5 56.5q-50 -29 -100 -64.5t-89 -74t-60.5 -76.5t-15.5 -71zM732 447q-9 5 -15.5 -3.5t-10.5 -25.5t-5.5 -39t0 -45t6 -44.5t11.5 -35.5q8 18 15 48t10 60.5t1 55t-12 29.5z" />
    <glyph glyph-name="X" unicode="X" horiz-adv-x="782" 
d="M810 293q-5 -49 -20 -95.5t-37.5 -85.5t-50.5 -67t-59.5 -39.5t-64.5 -3t-66 42.5q-22 23 -34.5 57t-17.5 74q-13 -18 -29.5 -42.5t-31.5 -50.5t-26.5 -51.5t-14.5 -46.5q-5 -31 1 -40t14 -8q10 1 24 13q3 -9 3 -17q0 -7 -4 -13.5t-14 -8.5q-11 -3 -26.5 5t-28 25
t-18 41.5t3.5 55.5q10 33 26.5 59t36 48t40 42t39.5 42q-3 47 -2 90t1 72v49t-1.5 61.5t-5.5 59.5t-12 43q-13 -5 -27 -10t-29 -13q2 -15 2.5 -38t0 -48t-3 -48.5t-6.5 -41.5q-12 -61 -43 -112.5t-72.5 -85.5t-88.5 -47t-90 4q-34 14 -52 34.5t-28 46.5q-13 33 -6 66
t28 64.5t54 61t71.5 56t81 49.5t82.5 42q-3 36 -10 64.5t-16 47t-19 24t-18 -4.5q-8 -9 -11 -9t-12 11q-2 9 -1 16q1 6 5.5 11t15.5 5q47 -2 81 -39t49 -97q51 20 81 27t47 5.5t24.5 -10.5t13.5 -22q6 -15 9.5 -39.5t5.5 -58.5t5 -78.5t9 -100.5q21 35 44 81t41.5 92.5
t29 87.5t7.5 67q-3 24 -34 22q-5 -1 -9 -2.5t-7 -3.5q-4 -2 -6 -4q-7 10 -9 19q-2 8 1 15.5t17 12.5q16 5 42 -3t43 -39q11 -21 13.5 -54.5t-11.5 -83.5q-14 -52 -40 -101.5t-58 -94.5q-25 -34 -57 -67q8 -63 22.5 -108t33.5 -68q17 -21 37.5 -17t41.5 30.5t40 73t34 109.5z
M44 259q3 -23 16 -38.5t35 -17.5q36 -4 68 20.5t58.5 60.5t45 77t26.5 70t12.5 57.5t3.5 56.5q-50 -29 -100 -64.5t-89 -74t-60.5 -76.5t-15.5 -71z" />
    <glyph glyph-name="Y" unicode="Y" horiz-adv-x="824" 
d="M384 531q-24 -57 -64.5 -102t-87.5 -70.5t-95.5 -29t-87.5 21.5q-31 20 -44.5 43.5t-18.5 50.5q-9 53 20 98t82 80t123.5 59.5t144.5 36.5q4 35 2.5 65t-7 49.5t-14 27t-18.5 -1.5q-9 -8 -12 -6.5t-10 13.5q-1 9 2 16q2 6 7.5 9.5t16.5 1.5q45 -11 70 -57.5t29 -106.5
q16 0 36 0.5t37 -0.5q12 18 28.5 30t36.5 13q30 1 44 -13t12.5 -30.5t-17.5 -30t-44 -11.5q-5 0 -14 -1.5t-14 -0.5q-13 -63 -13 -117.5t7.5 -96t20.5 -67t28 -30.5q18 -6 32.5 6t26 35.5t19.5 55.5t13.5 66.5t7.5 68t2 59.5q-1 -1 9.5 2t24 5t26 1.5t14.5 -8.5
q11 -40 15 -88.5t3.5 -98t-4.5 -96t-10 -81.5l86 4v-27q-12 -2 -27 -5q-13 -2 -30.5 -5t-37.5 -5q-18 -65 -45.5 -114t-60.5 -82.5t-68.5 -50.5t-69.5 -18q-39 -1 -76.5 16t-58.5 44.5t-18 63t46 71.5q24 20 54.5 35.5t64 26.5t67.5 19t66 13q12 28 22.5 65.5t16.5 79.5
q-19 -65 -54 -98t-70 -35q-46 -3 -73.5 18.5t-40.5 58t-14.5 81.5t4.5 89.5t17.5 82.5t23.5 60h-26.5t-23.5 -1q-1 -15 -5 -35.5t-9.5 -42.5t-12 -42.5t-12.5 -36.5zM34 450q-2 -23 8 -40.5t31 -23.5q23 -7 47 -1t47 20.5t45 35.5t41 44t34 45.5t24 40.5q27 55 38 109
q-53 -12 -108.5 -34.5t-101 -53t-75 -67t-30.5 -75.5zM433 104q13 1 37 7t51.5 22t55.5 43.5t50 70.5q-62 -13 -109.5 -37.5t-75 -48.5t-31.5 -41.5t22 -15.5z" />
    <glyph glyph-name="Z" unicode="Z" horiz-adv-x="552" 
d="M348 517q-38 -46 -89.5 -76t-103.5 -41t-99.5 -2t-78.5 42q-25 26 -31.5 50.5t-3.5 50.5q6 50 46 83t100.5 51t135 22t148.5 -4q13 31 20 58t7 46.5t-6 28.5t-18 3q-11 -5 -13.5 -3t-6.5 15q3 9 7 14t10 7t16 -3q20 -11 32.5 -29t18.5 -41t5.5 -49.5t-6.5 -53.5l-1 -5
q26 -6 66 -15.5t78 -23.5q1 0 10.5 4.5t24 9t32.5 5t36 -7.5q21 -10 25.5 -28t-5.5 -32.5t-34 -18t-60 14.5l-21 9q-15 3 -29 -12.5t-28.5 -44.5t-30.5 -68.5t-35.5 -84.5t-44 -93.5t-55.5 -93.5q-18 -27 -38 -50q39 -18 73.5 -40.5t65 -43t56.5 -34t49 -12.5q15 0 19 7.5
t3 16.5t-6 16.5t-8 8.5q2 5 10 7.5t16.5 0t15 -10.5t6.5 -24q0 -24 -23 -44t-63 -25q-58 -7 -112.5 18.5t-110.5 65.5q-13 8 -25 17t-23 17q-63 -55 -122.5 -71t-101.5 4q-29 14 -34 40.5t11.5 53.5t53 47.5t91.5 21.5q15 0 30 -1.5t29 -3.5q18 16 39.5 51t45.5 79t50 93
t54.5 92t58.5 75t62 44q-31 11 -60 18.5t-50 10.5q-6 -13 -15 -30t-20.5 -35t-23 -35t-21.5 -29zM-11 533q-8 -20 -3.5 -38.5t23.5 -29.5q30 -18 69.5 -11.5t79.5 26t75 45t56 46.5q40 41 66 89q-54 3 -113.5 -3t-111.5 -22t-90.5 -41.5t-50.5 -60.5zM178 149
q-38 3 -66.5 -7t-44.5 -24.5t-17 -28t17 -17.5q9 -2 24 -0.5t32.5 9.5t37 23.5t38.5 39.5q-5 2 -10.5 3t-10.5 2z" />
    <glyph glyph-name="one" unicode="1" horiz-adv-x="211" 
d="M96 661q11 3 25.5 -8.5t23.5 -18.5q3 -2 3 -24t-1.5 -56.5t-3 -79t-1.5 -90.5q0 -59 3.5 -100t7.5 -67q4 -31 11 -50q-22 -14 -41 -21q-17 -6 -33.5 -5.5t-27.5 16.5q-7 10 -9 44.5t-0.5 79.5t5 94.5t7 92t5.5 70.5t1 30q-2 2 -6.5 0.5t-9.5 -5.5q-6 -4 -12 -10
q-2 1 -5 3q-2 2 -6 4t-8 5t5 17.5t22 31.5t26.5 31t18.5 16z" />
    <glyph glyph-name="two" unicode="2" horiz-adv-x="322" 
d="M38 560q13 28 31.5 52.5t43.5 39t56 15t68 -18.5q41 -22 54.5 -57.5t8 -78t-26 -87t-46 -84t-52.5 -70.5t-45 -45l18.5 3t43 4.5t47.5 -1t32 -13.5t11.5 -24t2.5 -24q-1 -13 -4 -26q-2 -7 -9.5 -10.5t-10.5 10.5q-2 7 -24 15t-53.5 11t-67 0t-63.5 -18q-11 13 -18 24
q-6 10 -10 19.5t-1 14.5q6 9 41 52.5t87 124.5q26 40 41 82t20.5 77.5t1.5 59.5t-16 27t-28 -7t-32 -28.5t-29.5 -44t-21.5 -52.5t-9 -46t1 -31t6.5 -18t8.5 -7q4 -2 8 0t7.5 3.5t6 2t4.5 -3.5q3 -8 -9 -16t-34 1q-25 10 -37 33t-15 49t1 51t11 40z" />
    <glyph glyph-name="three" unicode="3" horiz-adv-x="305" 
d="M195 634q-12 3 -28 -7t-32 -28.5t-29.5 -44t-21.5 -52.5t-9 -46t1 -31t6.5 -18t8.5 -7q4 -2 8 0t7.5 3.5t6 2t4.5 -3.5q3 -8 -9 -16t-34 1q-25 10 -37 33t-15 49t1 51t11 40q13 28 31 51.5t43 37.5t56 15t69 -16q30 -14 46 -47.5t14 -72t-22.5 -76t-63.5 -58.5
q7 -6 18 -13t22 -18t20 -28t13 -43q4 -29 -7.5 -58.5t-34 -52t-54.5 -34.5t-68 -6t-54 23.5t-23 38.5t0.5 41.5t16.5 32.5q19 21 33.5 22t23.5 -7t12.5 -18t0.5 -10q-11 0 -24 -2.5t-21.5 -10t-7.5 -21.5t18 -36q18 -23 37 -18.5t34.5 24t23.5 47.5t4 53q-5 25 -14 42.5
t-18 28.5q-11 13 -23 21l8 10q3 4 6.5 8t5.5 6q3 3 9 1q20 37 31.5 74.5t15.5 68.5t-0.5 51t-15.5 23z" />
    <glyph glyph-name="four" unicode="4" horiz-adv-x="329" 
d="M205 458q0 -1 11.5 1.5t31.5 0.5q15 -2 17.5 -21t1.5 -57q6 2 10 5t7 5q4 3 6 5q4 -1 7 -4q6 -6 6 -18q-1 -8 -11 -20.5t-27 -17.5v-16q-1 -62 2 -94t7 -46t7.5 -15.5t3.5 -2.5t-10.5 -7.5t-26 -11t-32 -3t-28.5 17.5q-6 9 -8.5 28t-2.5 43.5t2.5 53t6.5 56.5l-9 3
q-16 5 -30 14.5t-28 14.5q-19 -14 -37.5 -20t-34.5 -2q-16 3 -24 12t-9 18.5t3 18.5t12 13q5 2 19 0.5t33 -6.5l11 13q18 21 35 56t29.5 68.5t19 58.5t2.5 27q-12 5 -13 12.5t4.5 13.5t14 7t16.5 -6q4 -5 11 -19.5t10 -39.5t-2 -59t-23 -76q-8 -18 -24.5 -38t-29.5 -33
q13 -4 26 -7t24 -5q2 17 4.5 31t4.5 25q2 12 4 23z" />
    <glyph glyph-name="five" unicode="5" horiz-adv-x="303" 
d="M268 654q1 -1 3 4.5t8 3.5q3 -1 8 -7t6.5 -14.5t-3.5 -18.5t-21 -19q-10 -6 -26 -10.5t-35.5 -8t-41.5 -5.5t-43 -2q4 -26 4.5 -53t-0.5 -49.5t-2.5 -37.5t0.5 -16q36 2 68 -12.5t53 -40t28 -60t-6 -72.5q-11 -34 -35.5 -57t-53.5 -33t-60 -7.5t-56 19.5
q-28 19 -35.5 47.5t-2 56t21 49t33.5 26.5q17 4 26.5 1t14 -8.5t5 -11t-0.5 -5.5q-13 -1 -25 -12t-20.5 -26.5t-13 -33t-2 -32.5t14 -25t34.5 -10q25 0 44.5 20t30 48.5t9 58t-18.5 49.5q-15 17 -39.5 24t-48.5 8.5t-41.5 1t-18.5 2.5q7 35 12 70q5 30 8 64t2 63
q-27 4 -35.5 10.5t-10.5 19.5q-3 23 9.5 36.5t31 15t38 -10t28.5 -37.5q30 4 57.5 10.5t49 12.5t35 10z" />
    <glyph glyph-name="six" unicode="6" horiz-adv-x="336" 
d="M279 632q-3 -10 -9.5 -12t-13.5 -1t-13 3t-8 2q4 2 -2.5 1.5t-18.5 -7t-27.5 -20.5t-31.5 -39q-13 -20 -24.5 -46.5t-19.5 -63.5l-9 -48q4 19 18.5 33.5t34 22t42 7.5t43.5 -9.5t37 -29.5t23 -52q5 -22 4 -49.5t-8.5 -56t-21 -54.5t-34 -44t-48 -25.5t-62.5 1.5
q-45 11 -71 43t-36 75t-7 92.5t17 97.5q8 27 26.5 62t45 66.5t60.5 54t73 24.5q22 1 34 -5t7 -23zM105 356q-1 -4 -0.5 -19t2 -35t5.5 -42.5t10.5 -41t16 -30.5t23.5 -11q21 1 34.5 24t19.5 54t5 63t-8 50q-13 35 -30.5 42.5t-34 -0.5t-28.5 -24.5t-15 -29.5z" />
    <glyph glyph-name="seven" unicode="7" horiz-adv-x="303" 
d="M36 585q-17 9 -21 22t-2 25t7.5 20.5t8.5 9.5q6 2 8 -3.5t3 -4.5l9.5 -4.5t31 -10.5t56.5 -12.5t86 -10.5q9 26 24 37.5t28.5 10t21.5 -14.5t5 -36q-2 -11 -7 -17t-20 -10q-8 -15 -21.5 -40.5t-29.5 -58.5t-32.5 -71.5t-31.5 -77.5q-18 -50 -27 -82.5t-11 -53t2.5 -29.5
t12.5 -12t8 -8.5t-6 -10.5t-16.5 -7.5t-23.5 0.5q-14 3 -25.5 15.5t-18 35.5t-6.5 58.5t11 84.5q7 37 26 74.5t41.5 70.5t45.5 59.5t38 43.5q-27 -3 -55 -3.5t-52 0t-42 3.5t-26 8z" />
    <glyph glyph-name="eight" unicode="8" horiz-adv-x="293" 
d="M81 397q-34 14 -47 43t-10 62.5t20 66.5t43.5 56.5t59.5 31.5t68 -9q28 -14 42 -45.5t11.5 -69t-22 -75.5t-57.5 -64q15 -11 37 -35t33 -66q7 -29 -2 -58t-30 -51.5t-51.5 -35t-67.5 -7.5q-41 5 -70 29t-36 59t13.5 77.5t79.5 86.5q-4 0 -7 1t-7 3zM177 634
q-12 3 -24 -6.5t-22 -27.5t-17 -42t-10 -49q-4 -37 1 -56t13.5 -26.5t17.5 -6.5t13 4q19 37 30 73t14 65.5t-1 49t-15 22.5zM138 349q-32 -35 -42 -65t-7 -52.5t13.5 -36t19.5 -16.5q15 -4 29 4.5t23 26.5t12 43t-5 54q-5 19 -17 34.5t-15 16.5q-3 -2 -6 -4.5t-5 -4.5z" />
    <glyph glyph-name="nine" unicode="9" horiz-adv-x="342" 
d="M54 167q3 10 9 12.5t13 1.5t13 -3t8 -1q-4 -2 2 -1.5t18 7.5t27.5 21.5t30.5 39.5q12 20 22.5 47.5t17.5 64.5q2 11 3.5 23t3.5 25q-5 -29 -28 -51.5t-52.5 -28.5t-60.5 11t-52 68q-9 20 -10 49t4.5 60t18.5 61t33 51.5t48 32t63 2.5q45 -10 74 -41.5t43 -75t14 -93.5
t-13 -98q-11 -42 -30.5 -79t-46 -65t-60 -45.5t-72.5 -20.5q-21 -2 -33.5 3.5t-7.5 22.5zM218 449q0 4 -0.5 19t-2.5 35t-6 42t-11 40.5t-16.5 30t-23.5 10.5q-21 -2 -34 -25.5t-18.5 -54.5t-4.5 -63t9 -50q15 -35 32.5 -41.5t33.5 2t28 25.5t14 30z" />
    <glyph glyph-name="zero" unicode="0" horiz-adv-x="412" 
d="M205 662q38 3 69 -16.5t52.5 -56.5t32.5 -90t10 -117q-1 -44 -12.5 -87t-32.5 -77.5t-50.5 -55.5t-66.5 -21q-85 0 -136.5 60t-51.5 175q0 57 15.5 108t41.5 89.5t59.5 62t69.5 26.5zM218 623q-30 0 -49.5 -34t-29 -84.5t-9.5 -108.5t9.5 -106.5t29 -79t47.5 -24.5
q31 5 50 40t27 83.5t6.5 103.5t-11.5 101.5t-28 77.5t-42 31z" />
    <glyph glyph-name="fi" unicode="&#xfb01;" horiz-adv-x="340" 
d="M93 487q0 -5 -2 -13.5t-5.5 -29t-7.5 -57.5t-7 -98q34 -7 57 -2t37.5 16t22 26t11.5 28l1 2h1q2 1 11 2.5t19.5 2t20 -2.5t14.5 -11q4 -9 2.5 -33t-2 -49t2.5 -45t15 -22q11 -2 22 13t19 34q10 22 18 50q1 -1 4 -2q2 -1 4.5 -2.5t7.5 -3.5q0 -15 -6.5 -41.5t-20 -52
t-35.5 -42.5t-53 -14q-22 2 -35 11.5t-20 22.5t-8.5 28.5t0.5 30.5l4 41q-12 -14 -25 -19t-23.5 -6t-17.5 0.5t-9 1.5q4 -2 22 -23.5t36 -63.5q6 -14 10 -33t5 -40t-2.5 -42t-13.5 -39t-26 -30.5t-34.5 -17.5t-38 -1t-36.5 20q-21 20 -30 55.5t-11.5 75t0 77t4.5 62.5
q5 54 11 92t12 63t11.5 39.5t9.5 22.5q8 15 17.5 20.5t17.5 5.5t13.5 -3t5.5 -4zM75 173q1 -19 1.5 -44t3 -47.5t8.5 -38.5t17 -17q9 -1 15.5 11.5t9.5 33t2 45t-7.5 47.5t-19 41.5t-32.5 26.5q0 -16 0.5 -27t1.5 -31zM212 433q-1 16 3.5 31.5t13.5 25t21.5 10t27.5 -14.5
q6 -5 7 -16.5t-1 -24t-7 -24t-12 -16.5q-6 -6 -14 -8t-16.5 1.5t-15 12.5t-7.5 23z" />
    <glyph glyph-name="fl" unicode="&#xfb02;" horiz-adv-x="378" 
d="M307 201q13 -1 25.5 10t22 27t16 32.5t8.5 27.5q6 1 10 0t7.5 -2.5t3.5 -5.5q-22 -93 -59 -127.5t-80 -21.5q-22 7 -38 26t-25 55q-4 14 -6 38.5t-3 48.5q-10 -19 -22 -30.5t-23.5 -18t-21 -8t-12.5 -1.5q4 -2 22 -23.5t36 -63.5q6 -14 10 -33t5 -40t-2.5 -42t-13.5 -39
t-26 -30.5t-34.5 -17.5t-38 -1t-36.5 20q-21 20 -30 55.5t-11.5 75t0 77t4.5 62.5q5 54 17 102.5t28 85t35.5 60t39.5 28.5q12 3 20.5 1t14 -6t7.5 -8.5t2 -5.5q0 -5 -9 -13t-23 -30t-29 -63.5t-27 -112.5q31 -4 63.5 9.5t55.5 54.5v12t1 12q3 44 8.5 89.5t14.5 84t21 65.5
t27 35t30.5 6.5t29 -9t23 -18t12.5 -20.5q6 -27 -2 -57.5t-22.5 -60.5t-31.5 -57.5t-27 -48.5q-2 -12 -2 -42t3 -61.5t10.5 -56t21.5 -25.5zM75 173q1 -19 1.5 -44t3 -47.5t8.5 -38.5t17 -17q9 -1 15.5 11.5t9.5 33t2 45t-7.5 47.5t-19 41.5t-32.5 26.5q0 -16 0.5 -27
t1.5 -31zM271 448q7 16 15 41t14.5 49.5t9 43.5t-1.5 24q-3 4 -7.5 -5.5t-9.5 -26.5q-9 -35 -13.5 -64t-6.5 -62z" />
    <glyph glyph-name="breve" unicode="&#x2d8;" horiz-adv-x="188" 
d="M54 505q-18 2 -27 13.5t-10.5 26.5t2.5 30.5t11 26.5q3 5 9 5.5t12 -1.5q7 -2 14 -5l-2 -12q-1 -5 -1.5 -8.5t0.5 -3.5q-1 -19 4 -27.5t12.5 -11t15.5 -1.5t12 2q8 2 11.5 10t4.5 18q1 11 -1 25q-2 3 0 5q2 4 19 4q17 -1 22 -22t-1 -42q-2 -8 -7.5 -15.5t-17.5 -12
t-32 -6t-50 1.5z" />
    <glyph glyph-name="dotaccent" unicode="&#x2d9;" horiz-adv-x="215" 
d="M52 599h99v-87h-99v87z" />
    <glyph glyph-name="ring" unicode="&#x2da;" horiz-adv-x="223" 
d="M38 574q4 33 27.5 52t50.5 19t48.5 -19t15.5 -57q-5 -27 -27.5 -41.5t-49.5 -14.5t-48 16t-17 45zM83 575q-1 -11 5.5 -23t24.5 -12q11 0 20 13.5t7 32.5q-1 14 -6.5 23.5t-16.5 9.5t-21.5 -11.5t-12.5 -32.5z" />
    <glyph glyph-name="hungarumlaut" unicode="&#x2dd;" horiz-adv-x="263" 
d="M66 682q9 7 21 8t22.5 -3.5t18 -14t6.5 -22.5q-1 -11 -8.5 -31t-19 -39.5t-25.5 -34.5t-26 -17t-18.5 0t-9.5 5t-3 6.5v3.5q8 8 15.5 18t13.5 19q7 10 13 20l-6 6q-8 8 -17 21q-6 7 -3 16.5t8.5 18t11 14.5t6.5 6zM168 663q9 7 21 8t22.5 -3.5t18 -14t6.5 -22.5
q-1 -11 -8.5 -31t-19 -39.5t-25.5 -34.5t-26 -17t-18.5 0t-9.5 5t-3 6.5v3.5q8 8 15.5 18t13.5 19q7 10 13 20l-6 6q-8 8 -17 21q-6 7 -3 16.5t8.5 18t11 14.5t6.5 6z" />
    <glyph glyph-name="caron" unicode="&#x2c7;" horiz-adv-x="206" 
d="M33 585l2 3t5.5 6t9.5 5t14 0q11 -2 18.5 -9.5t12 -15t7 -13.5t3.5 -6q4 12 9 22q5 8 12 16t18 10q10 2 16 0.5t8.5 -4t2.5 -4.5v-2q-9 -4 -16.5 -14t-14 -21t-11.5 -22t-9 -17q-4 -7 -9 -9.5t-10 -2.5q-6 0 -12 2q0 13 -6 25.5t-14.5 22.5t-18.5 17.5t-17 10.5z" />
    <glyph glyph-name="ogonek" unicode="&#x2db;" horiz-adv-x="215" 
d="M84 160q-1 2 1 6t6.5 6t11 1.5t15.5 -7.5v-27q0 -11 -1.5 -19.5t-4.5 -8.5t-11 -3t-14 -7t-8.5 -8.5t5.5 -8.5q8 -5 15.5 -4.5t13.5 2.5q7 3 14 7q2 -3 3 -7q0 -3 -1.5 -7.5t-6.5 -8.5q-6 -4 -16 -6t-20.5 -0.5t-18.5 7.5t-9 18q-2 12 2.5 20.5t9.5 13.5q6 6 14 10v31z
" />
    <glyph glyph-name="dotlessi" unicode="&#x131;" horiz-adv-x="155" 
d="M4 358l10 2t23 3t25.5 -1.5t17.5 -11.5q4 -9 2.5 -33t-2 -49t2.5 -45t15 -22q11 -2 22 13t19 34q10 22 18 50q1 -1 4 -2q2 -1 4.5 -2.5t7.5 -3.5q0 -15 -6.5 -41.5t-20 -52t-35.5 -42.5t-53 -14q-22 2 -35 11.5t-20 22.5t-8.5 28.5t0.5 30.5q1 16 2.5 37.5t3.5 41.5
q2 23 3 46z" />
    <glyph glyph-name="fraction" unicode="&#x2044;" horiz-adv-x="329" 
d="M300 764l4 -1.5t9 -4.5t10.5 -9t7.5 -15t-6 -26.5t-26 -50t-46 -83.5t-65 -127q-38 -76 -66 -141.5t-48 -114.5q-23 -57 -39 -105q-4 1 -8 5q-4 3 -10.5 9t-15.5 16q-5 5 5.5 35.5t31 77t47.5 104t56.5 117t58 116t51 100.5t36 71z" />
    <glyph glyph-name="Zcaron" unicode="&#x17d;" horiz-adv-x="552" 
d="M348 517q-38 -46 -89.5 -76t-103.5 -41t-99.5 -2t-78.5 42q-25 26 -31.5 50.5t-3.5 50.5q6 50 46 83t100.5 51t135 22t148.5 -4q13 31 20 58t7 46.5t-6 28.5t-18 3q-6 -3 -9 -3q-9 -9 -17.5 -22t-15.5 -26t-12.5 -24.5t-9.5 -18.5q-5 -10 -12 -13t-14 -3q-8 0 -17 2
q0 19 -8.5 36t-20.5 31t-25.5 24t-23.5 15l2.5 4t8 8.5t13.5 7t19 -0.5q15 -3 25.5 -13t17.5 -21t10.5 -19.5t4.5 -7.5q5 19 15 35q8 14 21.5 26t33.5 15q3 0 6 0.5t5 0.5q7 2 16 -3q20 -11 32.5 -29t18.5 -41t5.5 -49.5t-6.5 -53.5l-1 -5q26 -6 66 -15.5t78 -23.5
q1 0 10.5 4.5t24 9t32.5 5t36 -7.5q21 -10 25.5 -28t-5.5 -32.5t-34 -18t-60 14.5l-21 9q-15 3 -29 -12.5t-28.5 -44.5t-30.5 -68.5t-35.5 -84.5t-44 -93.5t-55.5 -93.5q-18 -27 -38 -50q39 -18 73.5 -40.5t65 -43t56.5 -34t49 -12.5q15 0 19 7.5t3 16.5t-6 16.5t-8 8.5
q2 5 10 7.5t16.5 0t15 -10.5t6.5 -24q0 -24 -23 -44t-63 -25q-58 -7 -112.5 18.5t-110.5 65.5q-13 8 -25 17t-23 17q-63 -55 -122.5 -71t-101.5 4q-29 14 -34 40.5t11.5 53.5t53 47.5t91.5 21.5q15 0 30 -1.5t29 -3.5q18 16 39.5 51t45.5 79t50 93t54.5 92t58.5 75t62 44
q-31 11 -60 18.5t-50 10.5q-6 -13 -15 -30t-20.5 -35t-23 -35t-21.5 -29zM-11 533q-8 -20 -3.5 -38.5t23.5 -29.5q30 -18 69.5 -11.5t79.5 26t75 45t56 46.5q40 41 66 89q-54 3 -113.5 -3t-111.5 -22t-90.5 -41.5t-50.5 -60.5zM178 149q-38 3 -66.5 -7t-44.5 -24.5t-17 -28
t17 -17.5q9 -2 24 -0.5t32.5 9.5t37 23.5t38.5 39.5q-5 2 -10.5 3t-10.5 2z" />
    <glyph glyph-name="zcaron" unicode="&#x17e;" horiz-adv-x="213" 
d="M114 441q46 -9 62 -35t12.5 -56t-21 -57t-37.5 -37l6 -6q2 -3 5.5 -7t7.5 -9q14 13 25.5 25.5t20.5 21.5q11 11 19 20q6 -2 10 -6q4 -3 6 -7.5t0 -10.5q-2 -7 -21 -27.5t-43 -44.5q9 -20 14 -44t-3 -53q-8 -32 -28.5 -49t-43.5 -21.5t-43.5 2t-28.5 21.5q-17 31 -2 60
t61 64l11 9q-5 24 -11 42q-4 10 -7 17q-6 7 -10 13q-3 5 -5 10.5t3 8.5q4 3 9 2.5t10 -2.5q5 -3 11 -6q8 20 11 40q2 17 0 36t-13 34q-12 15 -24 14.5t-22.5 -10t-18 -24.5t-10.5 -28q-5 -27 0 -38.5t7 -12.5t-0.5 -8t-11.5 -7q-22 0 -27 15.5t1 50.5q3 18 11 38t22 36
t35 24t51 2zM95 112q7 16 9 34l-11 -9q-14 -11 -19.5 -25.5t-4.5 -23t8 -5t18 28.5zM37 585l2 3t5.5 6t9.5 5t14 0q11 -2 18.5 -9.5t12 -15t7 -13.5t3.5 -6q4 12 9 22q5 8 12 16t18 10q10 2 16 0.5t8.5 -4t2.5 -4.5v-2q-9 -4 -16.5 -14t-14 -21t-11.5 -22t-9 -17
q-4 -7 -9 -9.5t-10 -2.5q-6 0 -12 2q0 13 -6 25.5t-14.5 22.5t-18.5 17.5t-17 10.5z" />
    <glyph glyph-name="exclam" unicode="!" horiz-adv-x="314" 
d="M110 697q-1 4 14.5 8t35 3t36 -10t18.5 -30q1 -17 -0.5 -51.5t-5 -77.5t-8.5 -89t-9.5 -84.5t-8.5 -65.5t-5 -31q-4 -11 -13 -14.5t-18 -3.5q-11 0 -24 4q2 36 2 82t-1 93t-2.5 93t-3.5 83t-4 61.5t-3 29.5zM116 198q2 5 10.5 7t19.5 3q12 1 27 1q1 0 3 -8t3.5 -18.5
t1.5 -22.5t-1 -19q-2 -9 -16.5 -12.5t-28.5 2.5t-22 22t3 45z" />
    <glyph glyph-name="quotedbl" unicode="&#x22;" horiz-adv-x="263" 
d="M66 682q9 7 21 8t22.5 -3.5t18 -14t6.5 -22.5q-1 -11 -8.5 -31t-19 -39.5t-25.5 -34.5t-26 -17t-18.5 0t-9.5 5t-3 6.5v3.5q8 8 15.5 18t13.5 19q7 10 13 20l-6 6q-8 8 -17 21q-6 7 -3 16.5t8.5 18t11 14.5t6.5 6zM168 663q9 7 21 8t22.5 -3.5t18 -14t6.5 -22.5
q-1 -11 -8.5 -31t-19 -39.5t-25.5 -34.5t-26 -17t-18.5 0t-9.5 5t-3 6.5v3.5q8 8 15.5 18t13.5 19q7 10 13 20l-6 6q-8 8 -17 21q-6 7 -3 16.5t8.5 18t11 14.5t6.5 6z" />
    <glyph glyph-name="numbersign" unicode="#" horiz-adv-x="462" 
d="M359 242q4 -9 7 -17q5 -16 1 -22q-5 -5 -23 -3t-63 6q-14 -52 -20 -81q-4 -18 -6 -31q-8 1 -16 3q-7 2 -14.5 4.5t-12.5 7.5q-4 3 3 31.5t18 68.5q-18 1 -34 1h-30q-5 -20 -9 -37t-6 -29q-3 -14 -5 -25q-8 1 -16 3q-7 2 -14.5 4.5t-12.5 7.5q-4 3 1 23.5t14 50.5
q-12 -1 -21 -1t-16 -1q-8 -1 -13 -1q-3 8 -5 15q-5 14 -4 26q1 4 21 5.5t50 0.5q5 14 9.5 29t9.5 29q-15 -1 -27.5 -1t-20.5 -1q-10 -1 -17 -2q-3 8 -5 15q-2 6 -3.5 13t0.5 13q1 4 25.5 5.5t61.5 0.5q7 22 13.5 41t11.5 33q5 17 10 30q10 -1 19 -3q8 -2 14.5 -4.5t8.5 -7.5
q3 -7 -5 -26t-24 -64q17 -1 33 -1.5t32 -2.5q6 18 11.5 33t9.5 26l8 24q10 -1 19 -3q8 -2 14 -4t8 -7q4 -7 -2.5 -22.5t-19.5 -48.5q11 -1 19 -1.5t15 -0.5q7 -1 14 -1q4 -8 7 -16q2 -7 3 -13.5t-1 -8.5q-4 -5 -20 -4t-51 4q-4 -7 -6.5 -15t-4.5 -17q-3 -7 -5.5 -13.5
t-4.5 -13.5q14 -1 26.5 -1.5t21.5 -1.5q11 -1 19 -1zM179 251l67 -2l20 61h-17q-14 1 -26 1h-24z" />
    <glyph glyph-name="dollar" unicode="$" horiz-adv-x="324" 
d="M200 678v-9t-0.5 -21.5t-1.5 -27t-4 -25.5q22 -3 47 -14q5 -2 8 -9t3 -14t-3 -11t-9 -1q-13 6 -26.5 10t-26 4.5t-24 -4.5t-21.5 -17q-13 -16 -7 -35t22.5 -41.5t40 -49.5t45.5 -59q22 -33 26 -65t-5 -58.5t-28 -45t-43 -25.5q2 -17 3.5 -34.5t-1.5 -25.5q-3 -7 -12 -8.5
t-18 -1t-16 2l-7 1.5v21v20.5t2 22.5q-22 3 -40 13.5t-30 25.5t-17 33t-1 36q2 9 6 19t11.5 15t17.5 2.5t24 -19.5q-5 -5 -9.5 -7t-8.5 -16q-3 -11 2.5 -22t15.5 -18t22.5 -9t23.5 4q19 12 22.5 28.5t-3 34.5t-21 36t-30 34.5t-30.5 30t-23 20.5q-14 12 -22 29.5t-10.5 36
t0.5 36t11 30.5q17 30 42 46t54 20q-2 9 -3.5 20t-2.5 22t-0.5 19.5t2.5 13.5q3 7 12 8.5t18 1t16 -2z" />
    <glyph glyph-name="percent" unicode="%" horiz-adv-x="395" 
d="M220 342q3 12 10.5 26.5t19.5 25.5t29 15t40 -4q18 -6 28 -25t9 -43t-13 -48.5t-38 -41.5q-19 -12 -33.5 -13t-25.5 3q-12 4 -23 15q-2 3 -2 6q-1 4 2 9q2 4 5 2q2 -1 3 -2q-1 -2 1 -4q2 -3 11 -8q8 -4 22 7t25 48q5 19 5.5 34t-3.5 24t-10.5 10t-14.5 -8
q-8 -8 -10.5 -18t-3.5 -20q6 -3 11 -6.5t8 -5.5l6 -6q3 -8 2 -16q-1 -7 -6 -13.5t-19 -10.5q-16 -4 -24 2t-12 17q-6 -3 -14 -8t-19 -14q-18 -14 -33.5 -35t-27 -41.5t-19 -35t-10.5 -14.5q-2 0 -6 2v-1q-3 0 -7 4q-4 3 -9 8t-13 14q-6 6 4.5 36.5t31 77.5t49 105.5
t59.5 119.5h-2q-13 -2 -23.5 -2t-19.5 2q-3 -13 -10.5 -27.5t-19.5 -25t-29 -15t-39 3.5q-18 7 -28 26t-9 42.5t13 47.5t38 41q19 12 34 13t26 -3q12 -4 23 -15q0 -2 1 -5q0 -2 0.5 -5t-1.5 -5q-3 -3 -6 -2q-2 0 -3 2q0 2 -1 4q-1 3 -10 8q-8 4 -22.5 -6.5t-25.5 -48.5
q-5 -19 -5.5 -34t3.5 -24t10.5 -10t15.5 8q8 8 10.5 18t3.5 21q-14 6 -20 12q-4 3 -6 6q-3 9 -2 17q1 7 6 13t19 10q19 5 27.5 -5.5t10.5 -27.5q8 0 17.5 1t23.5 4q7 1 12 3t12 4q11 22 19.5 39.5t15.5 31.5q8 15 14 28q7 -1 12 -5q5 -3 9.5 -8t6.5 -13l1.5 -7.5t-1.5 -7
t-7.5 -13t-15 -26t-24.5 -46t-36 -72.5q-29 -59 -52 -110t-40 -93q20 20 36 32q17 13 29.5 18.5t21.5 8.5z" />
    <glyph glyph-name="ampersand" unicode="&#x26;" horiz-adv-x="377" 
d="M273 537q5 -30 -4.5 -48.5t-24.5 -27.5t-30.5 -10t-23.5 4q-5 3 -6 7l-2 8t0 9q5 0 10 1t10 2.5t12 6.5q6 4 12 13.5t8.5 20.5t0 21.5t-12.5 15.5q-11 5 -22.5 -1.5t-22 -22t-17.5 -38.5t-8 -50q-1 -26 4 -43t12 -28q18 7 32 5.5t21.5 -8t6.5 -16t-12 -17.5
q-8 -6 -20 -6.5t-25 3.5q-6 -8 -12.5 -21t-15.5 -36q-11 -26 -13 -57t5 -59t24 -47.5t45 -23.5q18 -2 31.5 4.5t23 19.5t14.5 29.5t6 34.5q1 17 -4.5 29t-11.5 19q-8 8 -17 12q1 -7 -1 -12t-5.5 -8t-11.5 -1t-11 9t-1 15.5t8.5 17.5t17.5 15q12 7 32 8t38 -8t29 -30.5
t4 -61.5q-8 -47 -36 -81.5t-66.5 -49.5t-83 -9t-84.5 40q-28 24 -37 59t-4 72t22 71.5t41 57.5q14 13 29 20q-10 10 -20.5 23t-18.5 29t-12.5 35.5t-2.5 42.5q3 33 18 55t34.5 34t41 15t38.5 -1q29 -8 47 -23.5t22 -38.5z" />
    <glyph glyph-name="quotesingle" unicode="'" horiz-adv-x="171" 
d="M66 682q9 7 21 8t22.5 -3.5t18 -14t6.5 -22.5q-1 -11 -8.5 -31t-19 -39.5t-25.5 -34.5t-26 -17t-18.5 0t-9.5 5t-3 6.5v3.5q8 8 15.5 18t13.5 19q7 10 13 20l-6 6q-8 8 -17 21q-6 7 -3 16.5t8.5 18t11 14.5t6.5 6z" />
    <glyph glyph-name="parenleft" unicode="(" horiz-adv-x="320" 
d="M238 649q5 3 12 -4.5t2 -14.5q-31 -26 -56 -65q-21 -33 -39.5 -83t-21.5 -119q-4 -73 15 -124.5t43 -84.5q28 -39 64 -63q2 -2 0.5 -7t-4.5 -10t-6.5 -7.5t-6.5 -0.5q-55 20 -96 59q-18 16 -34.5 38t-29 50.5t-19.5 63.5t-5 77q2 53 16.5 96t35 76t43.5 56.5t42.5 38
t32 21.5z" />
    <glyph glyph-name="parenright" unicode=")" horiz-adv-x="320" 
d="M76 66q-5 -3 -12 4.5t-2 14.5q30 26 55 65q21 33 40 83t22 119q3 73 -15.5 124.5t-42.5 84.5q-28 39 -64 63q-2 2 -0.5 7t4.5 10t6.5 7.5t6.5 0.5q55 -20 96 -59q18 -17 34.5 -38.5t29 -50t19.5 -63.5t5 -77q-2 -54 -16.5 -96.5t-35 -75.5t-43.5 -56.5t-42.5 -38
t-32 -21.5z" />
    <glyph glyph-name="hyphen" unicode="-" horiz-adv-x="344" 
d="M53 356l-1.5 8.5t-1.5 19.5t3 20.5t14 11.5t44.5 2.5t71.5 0.5h96q4 -16 5 -29q1 -11 -2 -21t-11 -12q-6 -2 -24.5 -2.5t-42.5 -0.5t-51 0.5t-49 1t-36.5 0.5h-14.5z" />
    <glyph glyph-name="plus" unicode="+" horiz-adv-x="344" 
d="M137 498l8.5 1.5t19.5 1.5t20.5 -3.5t11.5 -13.5q1 -7 1.5 -24.5t0.5 -40.5h80q4 -16 5 -29q1 -11 -2 -21t-11 -12q-6 -2 -26 -2.5t-45 -0.5v-82q-16 -4 -29 -5q-11 -1 -21 1.5t-12 11.5q-2 6 -2.5 27t-0.5 47q-33 1 -58 1.5t-24 0.5l-1.5 8.5t-1.5 19.5t3 20.5t14 11.5
q7 1 26 1.5t42 0.5q0 16 0.5 30.5t0.5 25.5q0 13 1 24z" />
    <glyph glyph-name="comma" unicode="," horiz-adv-x="127" 
d="M31 203q8 16 23.5 18.5t28.5 -6t19 -26.5t-5 -42q-8 -19 -23.5 -34.5t-31.5 -16.5t-22 7q-4 4 -4 8q2 1 10.5 7t15.5 12.5t9 13.5t-9 12q-12 5 -15 20.5t4 26.5z" />
    <glyph glyph-name="period" unicode="." horiz-adv-x="130" 
d="M101 193q9 -27 -2 -40t-38 -11q-21 2 -32.5 18t2.5 43q6 12 16 16t20.5 2.5t20 -9t13.5 -19.5z" />
    <glyph glyph-name="slash" unicode="/" horiz-adv-x="329" 
d="M300 764l4 -1.5t9 -4.5t10.5 -9t7.5 -15t-6 -26.5t-26 -50t-46 -83.5t-65 -127q-38 -76 -66 -141.5t-48 -114.5q-23 -57 -39 -105q-4 1 -8 5q-4 3 -10.5 9t-15.5 16q-5 5 5.5 35.5t31 77t47.5 104t56.5 117t58 116t51 100.5t36 71z" />
    <glyph glyph-name="asterisk" unicode="*" horiz-adv-x="220" 
d="M72 449q1 0 -3 2t-7.5 5.5t-4 9t7.5 13.5l5 5h-23q-3 3 -5 7q-4 7 5 16q2 2 9.5 3.5t18.5 2.5q-5 4 -8.5 8t-6.5 7l-6 6q-1 4 1 8q4 8 15 8q6 0 23 -15v31q3 3 7 5q6 3 16 -5q2 -2 3.5 -10t2.5 -19q5 5 8.5 9t6.5 7l7 7q4 1 8 -1q8 -4 8 -16q0 -5 -6 -12.5t-15 -17.5
q16 -1 26.5 -2t10.5 0l1.5 -4t1 -9t-4 -9t-14.5 -4h-17q8 -11 14 -17.5t6 -5.5q0 -1 -2 -5t-5.5 -6.5t-9 -2.5t-12.5 7q-1 0 -5 4.5t-8 7.5q-1 -14 -2 -22t0 -8q-1 0 -5 -1.5t-8.5 -1t-8 4.5t-3.5 14v15q-10 -8 -16.5 -13.5t-5.5 -5.5z" />
    <glyph glyph-name="colon" unicode=":" horiz-adv-x="132" 
d="M101 300q9 -27 -2 -40t-38 -11q-21 2 -32.5 18t2.5 43q6 12 16 16t20.5 2.5t20 -9t13.5 -19.5zM101 444q9 -27 -2 -40t-38 -11q-21 2 -32.5 18t2.5 43q6 12 16 16t20.5 2.5t20 -9t13.5 -19.5z" />
    <glyph glyph-name="semicolon" unicode=";" horiz-adv-x="132" 
d="M31 310q5 10 13.5 15t18.5 4t19 -6.5t15 -14.5q7 -8 10 -20t-1 -30q-5 -20 -15 -34.5t-21 -23t-21 -11.5t-14 0q-5 2 -6.5 4.5t-2.5 4.5t-1 3q7 5 13 11q5 5 10.5 12t8.5 15q1 3 1 10q-10 1 -18 6t-12 13t-4 18.5t7 23.5zM101 444q9 -27 -2 -40t-38 -11q-21 2 -32.5 18
t2.5 43q6 12 16 16t20.5 2.5t20 -9t13.5 -19.5z" />
    <glyph glyph-name="question" unicode="?" horiz-adv-x="469" 
d="M131 380q-32 7 -49.5 31t-22 55.5t3.5 67t28 66.5t52 53t75 26q64 7 102.5 -19.5t55.5 -68t16 -88t-16 -80.5t-33.5 -55t-35.5 -36t-31 -28t-20 -31t-7.5 -27t-0.5 -14t4 -6q1 -2 -6 -5t-16.5 -4t-18 0t-11.5 7q-2 3 -2.5 14.5t4 30t15.5 42.5t33 51q24 30 34 71.5
t7.5 82t-15 73t-33.5 44.5t-41.5 -3t-35.5 -43t-22 -62.5t-1 -62.5t15.5 -38t19.5 -8.5t17 11t7 21.5q0 8 -1.5 15.5t-3.5 12.5q-2 6 -4 10q12 11 21 5.5t13 -20t1.5 -33.5t-13.5 -34.5t-31.5 -23.5t-52.5 0zM260 156q9 -27 -2 -40t-38 -11q-21 2 -32.5 18t2.5 43
q6 12 16 16t20.5 2.5t20 -9t13.5 -19.5z" />
    <glyph glyph-name="less" unicode="&#x3c;" horiz-adv-x="273" 
d="M197 616q1 2 7 4t13.5 1t15.5 -4.5t12 -12.5l-134 -216l128 -198q-3 -7 -7 -13q-3 -5 -8 -10.5t-11 -7.5q-4 -2 -19.5 13.5t-36.5 40t-44 53t-43 54t-33.5 42t-14.5 17.5q-1 0 11.5 18t32 45t42.5 57.5t43 57t33 43.5t13 16z" />
    <glyph glyph-name="greater" unicode="&#x3e;" horiz-adv-x="273" 
d="M69 164q-1 -2 -7 -4t-13.5 -1t-15.5 4.5t-12 12.5l134 216l-128 198q3 7 7 13q7 13 19 18q4 2 19.5 -13.5t36.5 -40t44 -53t43 -54t33.5 -42.5t14.5 -17q1 -1 -11.5 -18.5t-32 -44.5t-42.5 -57.5t-43 -57t-33 -43.5t-13 -16z" />
    <glyph glyph-name="equal" unicode="=" horiz-adv-x="344" 
d="M53 416l-1.5 8.5t-1.5 19.5t3 20.5t14 11.5t44.5 2.5t71.5 0.5h96q4 -16 5 -29q1 -11 -2 -21t-11 -12q-6 -2 -24.5 -2.5t-42.5 -0.5t-51 0.5t-49 1t-36.5 0.5h-14.5zM53 297l-1.5 8.5t-1.5 19.5t3 20.5t14 11.5t44.5 2.5t71.5 0.5h96q4 -16 5 -29q1 -11 -2 -21t-11 -12
q-6 -2 -24.5 -2.5t-42.5 -0.5t-51 0.5t-49 1t-36.5 0.5h-14.5z" />
    <glyph glyph-name="at" unicode="@" horiz-adv-x="453" 
d="M193 372q21 10 36 10.5t25.5 -6.5t16 -19.5t5.5 -26.5q5 2 11 3q13 2 24 -5q7 -5 5.5 -29t-4.5 -50.5t-4 -47.5t9 -20h1q4 0 10 15t10.5 38t6.5 50.5t-1.5 52.5t-14 45t-31.5 27q-20 7 -43.5 6.5t-46.5 -9.5t-43 -27.5t-34 -47.5q-22 -47 -22.5 -82t11 -58.5t28.5 -34
t30 -8.5t21.5 7t13.5 10q6 6 9 13l11 -7q-2 -13 -10 -25q-7 -11 -21 -22.5t-40 -20.5q-25 -9 -53.5 0t-49.5 35.5t-28.5 68.5t9.5 98q15 47 48.5 82t76 54.5t87.5 21.5t82 -18q31 -17 49.5 -48.5t25 -69t1.5 -75.5t-20.5 -66t-40.5 -42t-59 -3q-18 6 -27.5 20t-13.5 29.5
t-4.5 29.5t0.5 19q-3 -9 -12.5 -21.5t-22 -21.5t-27 -11.5t-27.5 7.5q-16 12 -20 37.5t1.5 53.5t20 53t35.5 36zM257 324q0 3 -2.5 10t-8 12.5t-12 7t-13.5 -7.5q-5 -6 -11.5 -22.5t-11 -34t-5 -32t7.5 -16.5q7 -2 17 10.5t18.5 28.5t14.5 29.5t6 14.5z" />
    <glyph glyph-name="bracketleft" unicode="[" horiz-adv-x="277" 
d="M55 694q21 1 48 1.5t51.5 1t41.5 0.5h18q0 -10 -1 -17t-1.5 -12t-1.5 -5t-12 -1.5t-25 -3.5q-16 -2 -35 -4l15 -591l48 -5l-1 -46l-143 -9z" />
    <glyph glyph-name="bracketright" unicode="]" horiz-adv-x="277" 
d="M214 6q-21 -1 -48 -1.5t-51.5 -1t-41.5 -0.5h-18q0 9 1 17q1 6 1.5 11.5t1.5 5.5t12 1t25 3q16 2 35 5l-15 591l-48 5l1 46l143 9z" />
    <glyph glyph-name="backslash" unicode="\" horiz-adv-x="329" 
d="M300 86l-13.5 27t-36 71t-51 100.5t-58 116t-56.5 117t-47.5 104t-31 77t-5.5 35.5q9 10 15.5 16t10.5 9q4 4 8 5q16 -48 39 -105q20 -49 48 -114.5t66 -141.5q37 -76 65 -127t46 -83.5t26 -50t6 -26.5t-7.5 -15t-10.5 -9t-9 -4.5z" />
    <glyph glyph-name="underscore" unicode="_" horiz-adv-x="407" 
d="M33 146q6 0 32 0.5t61.5 1t75.5 1.5t74 1t57.5 -1t25.5 -3q6 -6 8 -12.5t3 -12.5q0 -7 -1 -14q-85 -3 -153 -5q-29 -1 -57.5 -1.5t-51.5 -1t-38.5 0t-19.5 1.5q-8 2 -12.5 9t-6 15t-0.5 14.5t3 6.5z" />
    <glyph glyph-name="asciicircum" unicode="^" horiz-adv-x="323" 
d="M19 239q15 7 34 21.5t36.5 35t29.5 45.5t13 52q13 3 24 3q10 -1 20.5 -5t18.5 -18q7 -13 17.5 -35t23 -45t28.5 -42.5t34 -27.5q1 1 0.5 -3.5t-6 -9.5t-17 -8t-32.5 1q-22 5 -37 20.5t-24 32.5q-11 20 -18 44q-2 1 -6.5 -11.5t-14 -28t-24.5 -30.5t-37 -19
q-16 -4 -28 -0.5t-19.5 9.5t-11.5 12t-4 7z" />
    <glyph glyph-name="grave" unicode="`" horiz-adv-x="308" 
d="M75 669l11.5 -8.5t28 -21t36.5 -28t38 -30t31.5 -26t16.5 -15.5q5 -7 4 -14t-5 -12q-4 -6 -11 -12q-33 11 -65 23q-27 11 -56 24.5t-50 30.5q-15 11 -14 26.5t8.5 29.5t17 23.5z" />
    <glyph glyph-name="braceleft" unicode="{" horiz-adv-x="317" 
d="M273 699q1 0 3.5 -6.5t0 -13t-11 -9.5t-29.5 4q-11 4 -23 4t-23 -2q-17 -4 -29 -17.5t-15 -39.5q-3 -22 5.5 -48t18.5 -56t17.5 -63.5t3.5 -69.5q-3 -24 -10.5 -39t-15.5 -24t-15 -12.5t-9 -3.5q2 0 13 -4.5t25 -25.5q7 -11 7.5 -35.5t-1 -53.5t-3 -57.5t0.5 -48.5
t15 -25.5t28 -3.5q17 2 38 10q6 -7 11 -11l11 -11q-19 -24 -47 -34t-56.5 -8t-53.5 15.5t-37 38.5q-8 16 -10.5 39.5t-1 49.5t5 51t7.5 45.5t6.5 33.5l2.5 13q-16 -5 -31.5 -0.5t-26.5 13.5t-15 21t3 23t20 14.5t26 2.5q15 -1 31 -5q-8 19 -16 43t-13.5 55t-6.5 69t7 85
q6 38 23 60t38.5 33t44.5 13t42.5 0t32 -5.5z" />
    <glyph glyph-name="bar" unicode="|" horiz-adv-x="200" 
d="M55 743q42 2 58.5 2.5t16.5 -1.5q1 -9 0 -24.5t-2 -49t-2.5 -89t-1 -144t2 -214.5t6.5 -300l-76 3z" />
    <glyph glyph-name="braceright" unicode="}" horiz-adv-x="317" 
d="M40 5q-2 0 -4 6.5t0.5 13t11 9.5t29.5 -4q11 -4 23 -4t23 2q17 4 29 17.5t15 39.5q3 22 -5.5 48t-18.5 56t-17.5 63.5t-3.5 69.5q3 23 10 38t15 24t14.5 12.5t8.5 4.5q-2 0 -13 4.5t-23 25.5q-7 11 -7.5 35.5t1 53.5t3 57.5t-0.5 48.5t-15.5 25.5t-27.5 3.5
q-18 -2 -38 -10l-11 11q-11 9 -11 11q19 24 47 34t56.5 8t53.5 -15.5t37 -38.5q8 -17 10.5 -40t1 -49t-5 -51t-7.5 -45.5t-6.5 -33t-2.5 -13.5q16 4 31.5 0t26.5 -13t15 -21t-3 -23q-8 -11 -20.5 -14.5t-25.5 -2.5q-15 1 -31 5q7 -19 15.5 -43t14 -55t6.5 -69.5t-7 -84.5
q-7 -38 -23.5 -60t-38 -33t-44.5 -13t-42.5 0t-32 5.5z" />
    <glyph glyph-name="circumflex" unicode="&#x2c6;" horiz-adv-x="229" 
d="M204 531l-2.5 -3.5t-7 -7.5t-11.5 -6t-17 0q-14 3 -23 12t-15 18.5t-8.5 17t-3.5 6.5q-4 -15 -11 -27q-6 -11 -15 -20t-22 -12q-13 -2 -20 0t-10.5 5t-3.5 5.5v2.5q11 5 20.5 17t17.5 25.5t14 27t11 21.5t11 11t12 3q7 0 15 -2q1 -17 8.5 -32t18 -27.5t22 -21.5t20.5 -13
z" />
    <glyph glyph-name="tilde" unicode="&#x2dc;" horiz-adv-x="300" 
d="M83 595q19 -2 38 -9.5t36 -15.5q9 -4 20.5 -9t23 -8.5t21 -4.5t15.5 2t7.5 9t2.5 11.5t3.5 9t11.5 2.5q12 -2 13.5 -15t-7.5 -27.5t-28 -25.5t-48 -9q-27 2 -47 13t-35.5 22.5t-27.5 18.5t-22 1q-9 -5 -10.5 -10t0 -9.5t3.5 -9.5t0 -10t-9 -10.5t-19 -0.5q-9 3 -10 17
t6 29.5t22.5 27.5t39.5 11z" />
    <glyph glyph-name="asciitilde" unicode="~" horiz-adv-x="448" 
d="M126 376q29 -2 58 -14.5t56 -23.5l31.5 -13.5t34.5 -13t32 -7.5t24 3t11.5 14.5t4 18t5.5 14t17 2.5q18 -2 20.5 -22t-11 -42.5t-42.5 -39.5t-74 -14q-41 4 -72 21t-55 34t-42 28t-33 2q-14 -8 -16.5 -15.5t0 -15t5.5 -15t0 -14.5q-2 -7 -13 -15.5t-30 -1.5
q-13 4 -14.5 26t9 45.5t34 42t60.5 16.5z" />
    <glyph glyph-name="quotesinglbase" unicode="&#x201a;" horiz-adv-x="127" 
d="M31 203q8 16 23.5 18.5t28.5 -6t19 -26.5t-5 -42q-8 -19 -23.5 -34.5t-31.5 -16.5t-22 7q-4 4 -4 8q2 1 10.5 7t15.5 12.5t9 13.5t-9 12q-12 5 -15 20.5t4 26.5z" />
    <glyph glyph-name="quotedblbase" unicode="&#x201e;" horiz-adv-x="217" 
d="M31 203q8 16 23.5 18.5t28.5 -6t19 -26.5t-5 -42q-8 -19 -23.5 -34.5t-31.5 -16.5t-22 7q-4 4 -4 8q2 1 10.5 7t15.5 12.5t9 13.5t-9 12q-12 5 -15 20.5t4 26.5zM119 192q8 16 23.5 18.5t28.5 -6t19 -26.5t-5 -42q-8 -19 -23.5 -34.5t-31.5 -16.5t-22 7q-4 4 -4 8
q2 1 10.5 7t15.5 12.5t9 13.5t-9 12q-12 5 -15 20.5t4 26.5z" />
    <glyph glyph-name="ellipsis" unicode="&#x2026;" horiz-adv-x="359" 
d="M101 193q9 -27 -2 -40t-38 -11q-21 2 -32.5 18t2.5 43q6 12 16 16t20.5 2.5t20 -9t13.5 -19.5zM211 193q9 -27 -2 -40t-38 -11q-21 2 -32.5 18t2.5 43q6 12 16 16t20.5 2.5t20 -9t13.5 -19.5zM328 193q9 -27 -2 -40t-38 -11q-21 2 -32.5 18t2.5 43q6 12 16 16t20.5 2.5
t20 -9t13.5 -19.5z" />
    <glyph glyph-name="Scaron" unicode="&#x160;" horiz-adv-x="553" 
d="M260 419q-41 11 -56.5 32t-16 37.5t9 21.5t20.5 -17q-7 -3 -9 -7q-2 -3 2.5 -6.5t19.5 -7.5q19 -5 49 1.5t64 20.5t67.5 32.5t59.5 39t40 40.5t8 35q-7 18 -39 26t-78 6.5t-100 -12t-104 -30t-89.5 -48.5t-56.5 -66q-13 -29 -0.5 -52t41.5 -42.5t70 -36t83.5 -32t82 -31
t66.5 -31.5q30 8 60 10.5t54.5 2t40.5 -2t17 -2.5l4 -26q-3 -1 -14.5 -0.5t-29 0.5t-38.5 -2t-42 -8q29 -20 51 -44.5t27 -59.5q8 -51 -15 -85t-60 -52t-78.5 -20.5t-71.5 9.5q-33 13 -52.5 29.5t-29.5 33.5t-13.5 33t-3.5 30q-1 29 17.5 52.5t48.5 42.5l-44 20
q-29 13 -58.5 27.5t-55.5 31t-48 36.5t-37 44q-8 12 -13 29t-7 35.5t-0.5 37t6.5 33.5q22 66 67.5 108t101 65t116 29t112.5 -0.5t89.5 -23.5t49.5 -40q14 -28 9.5 -60t-22.5 -63t-47.5 -58.5t-65.5 -45.5t-77 -24t-82 5zM230 124q1 -22 26 -39.5t58.5 -24.5t68 -1t53.5 32
q9 12 2.5 25.5t-23.5 27.5t-41 28.5t-49 28.5q-12 -3 -28.5 -11t-31.5 -19t-25.5 -23t-9.5 -24zM205.582 874.159l2.7627 4.14941q2.7627 4.15039 7.59766 8.2998q4.83398 4.14941 13.1221 6.91602q8.28711 2.76562 19.3379 0q15.1943 -2.7666 25.5537 -13.1406
t16.5752 -20.748q6.21582 -10.373 9.66895 -18.6729q3.4541 -8.29883 4.83496 -8.29883q5.52539 16.5986 12.4316 30.4297q6.90625 11.0654 16.5752 22.1309t24.8633 13.832q13.8125 2.7666 22.1006 0.691406q8.28809 -2.07422 11.7412 -5.53223t3.45312 -6.22461v-2.7666
q-12.4316 -5.53223 -22.791 -19.3643q-10.3604 -13.832 -19.3389 -29.0469q-8.97754 -15.2148 -15.8848 -30.4297q-6.90625 -15.2148 -12.4316 -23.5137q-5.52441 -9.68262 -12.4307 -13.1406q-6.90723 -3.45801 -13.8135 -3.45801q-8.28711 0 -16.5752 2.7666
q0 17.9814 -8.28809 35.2705q-8.28711 17.29 -20.0283 31.1221t-25.5537 24.2051q-13.8125 10.374 -23.4824 14.5234z" />
    <glyph glyph-name="guilsinglleft" unicode="&#x2039;" horiz-adv-x="273" 
d="M197 616q1 2 7 4t13.5 1t15.5 -4.5t12 -12.5l-134 -216l128 -198q-3 -7 -7 -13q-3 -5 -8 -10.5t-11 -7.5q-4 -2 -19.5 13.5t-36.5 40t-44 53t-43 54t-33.5 42t-14.5 17.5q-1 0 11.5 18t32 45t42.5 57.5t43 57t33 43.5t13 16z" />
    <glyph glyph-name="cent" unicode="&#xa2;" horiz-adv-x="366" 
d="M265 417q-10 0 -14 4.5t-4.5 10.5t0.5 11l1 5q6 3 10.5 15t6.5 27.5t1 30t-6 21.5t-16.5 14t-26 1.5t-30 -29.5t-28.5 -78q-14 -54 -13.5 -99.5t10 -78t25.5 -49.5t33 -14t25.5 17t12.5 29q4 18 4 39q12 10 23 14q9 4 18.5 2t14.5 -15q4 -13 0 -33t-15.5 -39.5t-29.5 -36
t-40 -22.5q-2 -1 -6 -1q2 -11 4.5 -24.5t3.5 -25t-0.5 -19.5t-6.5 -8q-8 -1 -16 -0.5t-15 1.5l-16 2v25q0 11 0.5 23.5t2.5 23.5q-23 2 -48 12.5t-45 32.5t-33 56.5t-13 85.5q0 60 14 106.5t37 78.5t54 48.5t64 15.5q-2 11 -4.5 24.5t-3.5 25.5t0.5 20.5t6.5 8.5h16t15 -1
l16 -2v-31q-1 -13 -2 -27t-3 -25q38 -13 53 -41.5t14 -58t-15.5 -51.5t-35.5 -22z" />
    <glyph glyph-name="Euro" unicode="&#x20ac;" horiz-adv-x="412" 
d="M60 365q4 0 9 1q5 0 11 0.5t14 1.5l2 25q-22 2 -29 7q-9 6 -11 14.5t-1 15.5t3.5 12t3.5 5q6 0 13 1q11 1 32 3q11 40 29.5 69.5t42.5 48t51.5 25.5t56.5 1q30 -6 48.5 -21.5t27 -35.5t8.5 -41.5t-6 -39t-18 -29t-27 -11.5q-10 0 -14 4.5t-4.5 10.5t0.5 11l1 5
q6 3 10.5 15t6.5 27.5t1 30t-6 21.5t-16.5 13.5t-26 1.5t-30 -28.5t-28.5 -76.5q22 -2 36.5 -5.5t16.5 -11.5q3 -22 1 -31q-1 -5 -2 -7q-8 -1 -18 -2q-8 -1 -20 -1.5t-25 -0.5l-2 -22q26 -1 44 -5t20 -13q3 -22 1 -31q-1 -5 -2 -7q-8 -1 -18 -2q-8 -1 -19 -1.5t-24 -0.5
q6 -51 25 -79t41 -23q17 3 25.5 17t12.5 29q4 18 4 39q12 10 23 14q9 4 18.5 2t14.5 -15q4 -13 0 -33t-15.5 -39.5t-29.5 -36t-40 -22.5q-21 -6 -50 -3.5t-57 18.5t-50.5 47.5t-28.5 84.5q-24 2 -31 7q-9 6 -11 14.5t-1 15.5t3.5 12t3.5 5z" />
    <glyph glyph-name="sterling" unicode="&#xa3;" horiz-adv-x="406" 
d="M53 353q1 0 0 7.5t-1 16.5t3 17.5t13 10.5q5 1 15 1.5t22 0.5v22.5t1 18.5q5 55 29 88t56 53q16 10 37.5 12.5t42.5 -2.5t38 -18.5t24 -35.5q10 -32 9.5 -55.5t-8 -39t-20 -23.5t-25.5 -9q-6 -1 -10.5 2.5t-7.5 7.5q-4 4 -6 11q7 7 13 16q5 8 11 19t11 26q4 15 -1 29.5
t-16 23.5t-26 10.5t-30 -10.5q-9 -7 -13.5 -21t-6 -33.5t-1 -43.5t1.5 -50q8 -1 14.5 -1h11.5t10 -1q4 -14 5 -25q1 -10 -1 -18t-10 -10q-10 -2 -31 -2q-1 -23 -2.5 -46.5t-6.5 -46.5l-6 -20q32 -10 61 -17.5t43 -3.5q11 3 14.5 14t2.5 22q-1 13 -6 30q-2 3 1 5q2 2 8.5 2.5
t22.5 -1.5q9 -1 12.5 -14.5t2 -31.5t-9 -36t-20.5 -27q-4 -3 -17.5 -8.5t-34.5 -7t-48.5 4t-59.5 23.5q-18 -18 -41 -24.5t-43.5 -4.5t-35 12t-15.5 25q-5 36 13.5 48t57.5 10q3 20 4 45t1 50q-21 1 -37 2t-15 1z" />
    <glyph glyph-name="yen" unicode="&#xa5;" horiz-adv-x="384" 
d="M86 249l-2 6.5t-2 15.5t3.5 17.5t14.5 10.5q5 1 15 2t24 1q0 6 0.5 11.5t0.5 10.5h-57l-2 6.5t-2 15.5t3.5 17.5t14.5 10.5l47 3v7q0 1 1 2q0 18 -16 47t-35.5 57t-36.5 48.5t-21 22.5q2 1 11 9t22 15.5t27 10.5t25 -5q24 -18 41.5 -44t29.5 -50q14 -28 24 -58
q12 33 25 62q11 25 25 49t28 36q14 11 23.5 11.5t17.5 -4.5t15 -16q-14 -17 -29.5 -42t-29 -52t-23 -51.5t-11.5 -39.5q-1 -2 -2 -5.5t-1 -7.5h43q5 -14 8 -25q2 -10 0.5 -17.5t-10.5 -9.5q-5 -1 -16 -1.5t-25 -0.5v-10.5t1 -10.5h45q5 -14 8 -25q2 -10 0.5 -17.5
t-10.5 -9.5q-5 -1 -15 -1.5t-24 -0.5q2 -20 5 -35.5t5 -23.5q0 -1 -8 -7.5t-21.5 -13t-32 -10t-38.5 1.5q-15 3 -21 28.5t-8 58.5h-54z" />
    <glyph glyph-name="currency" unicode="&#xa4;" horiz-adv-x="532" 
d="M245 592q50 3 84 -9.5t57 -36.5q8 10 19 21.5t22 22.5q12 12 25 24q6 0 12 -4q13 -7 18 -30q2 -9 -4.5 -19t-17 -20t-23.5 -19t-24 -16q16 -32 20.5 -72.5t0.5 -85.5q-2 -17 -7.5 -41.5t-17.5 -50.5q10 -7 21.5 -15t20.5 -16.5t14 -17t3 -15.5q-3 -13 -7.5 -19.5
t-9.5 -9.5q-5 -4 -12 -4q-9 8 -19 18q-8 8 -18.5 17.5t-18.5 19.5q-13 -17 -30.5 -29.5t-39.5 -19.5t-49 -5.5t-60 13.5q-38 13 -60 42q-9 -10 -19.5 -20.5l-19.5 -19.5q-11 -11 -21 -20q-7 0 -13 4q-5 3 -10 10t-8 21q-2 8 3.5 17.5t15.5 18.5t22 18t23 16
q-11 27 -14.5 58.5t-1 63.5t10.5 63t22 58q-11 7 -25 17t-25 20.5t-18 21.5t-5 20q3 14 8.5 20.5t10.5 10.5q6 4 13 5l26 -26q11 -11 23 -23.5t20 -23.5q17 20 38 32.5t45 14.5zM230 473q-13 -33 -17.5 -75.5t0.5 -81.5t19.5 -66.5t38.5 -29.5t40.5 11.5t26.5 36.5t14.5 52
t4.5 59q0 43 -12.5 81t-32 56.5t-41.5 11t-41 -54.5z" />
    <glyph glyph-name="OE" unicode="&#x152;" horiz-adv-x="1083" 
d="M692 106q55 -23 114 -14.5t112 38t97 75.5t70 99h4l4 -1q13 -5 11.5 -15t-6.5 -19q-28 -59 -75.5 -111t-106 -89t-123.5 -54.5t-128 -6.5q-19 3 -40.5 10t-42.5 18.5t-40 27t-34 35.5q-35 -41 -81 -67t-105 -32q-68 -8 -122 6.5t-93 44t-63.5 72t-35.5 90.5t-7.5 99
t20.5 98t47.5 87t74.5 66q-1 37 14.5 67t41 51.5t57.5 33t64 11.5q50 0 90.5 -16.5t72 -44.5t54 -66.5t36.5 -82.5v9q-2 60 29 106t81 75q44 26 94.5 37.5t98.5 6.5q53 -5 92 -30q39 -26 55.5 -65.5t14 -80.5t-22 -78.5t-51.5 -58.5q-39 -26 -70 -27.5t-48.5 7t-19.5 20
t17 11.5q-1 0 8.5 3.5t24 12t32.5 22t33.5 33.5t27 47t13.5 62q2 24 -9.5 38t-29.5 21t-39 8.5t-38 -0.5q-49 -6 -94.5 -34.5t-73 -69t-28 -86.5t40.5 -86q9 2 20 3.5t22 1.5t20.5 -2.5t14.5 -8.5q10 -13 11 -26t-5 -23t-16.5 -15.5t-21.5 -3.5q-13 2 -27 12t-26 21
q-27 -9 -49.5 -28t-37.5 -44t-20.5 -53t2.5 -55t30.5 -51t63.5 -41zM253 656q-21 -32 -25.5 -76t4.5 -91t30 -93t51.5 -82.5t68 -59.5t80.5 -24q13 56 13.5 116t-9.5 114q-12 68 -38 121t-57 82t-62.5 29.5t-55.5 -36.5zM451 189q-70 9 -122 37t-88 68t-57 88t-28 96
q-18 -34 -28 -80.5t-10.5 -96t9.5 -97t32 -84.5t57.5 -58t85.5 -17q27 2 50 14t42 31.5t33 44.5t24 54zM596 384q17 10 35 16t34 9q-23 10 -46.5 28t-36.5 47q5 -24 8.5 -49t5.5 -51z" />
    <glyph glyph-name="quoteleft" unicode="&#x2018;" horiz-adv-x="158" 
d="M92 542q-9 -8 -21 -9t-22.5 3.5t-18 14t-6.5 23.5q1 11 8.5 30.5t19 39t25.5 35t26 17.5t18.5 0t9.5 -5t3 -6.5v-3.5q-8 -8 -15.5 -18.5t-13.5 -18.5q-7 -11 -13 -20l6 -6q3 -3 7 -8t10 -13t3 -17t-8.5 -17.5t-11 -14.5t-6.5 -6z" />
    <glyph glyph-name="quoteright" unicode="&#x2019;" horiz-adv-x="158" 
d="M66 689q9 7 21 8t22.5 -3.5t18 -14t6.5 -22.5q-1 -11 -8.5 -31t-19 -39.5t-25.5 -34.5t-26 -17t-18.5 0t-9.5 5t-3 6.5v3.5q8 8 15.5 18t13.5 19q7 10 13 20l-6 6q-8 8 -17 21q-6 7 -3 16.5t8.5 18t11 14.5t6.5 6z" />
    <glyph glyph-name="quotedblleft" unicode="&#x201c;" horiz-adv-x="261" 
d="M92 542q-9 -8 -21 -9t-22.5 3.5t-18 14t-6.5 23.5q1 11 8.5 30.5t19 39t25.5 35t26 17.5t18.5 0t9.5 -5t3 -6.5v-3.5q-8 -8 -15.5 -18.5t-13.5 -18.5q-7 -11 -13 -20l6 -6q3 -3 7 -8t10 -13t3 -17t-8.5 -17.5t-11 -14.5t-6.5 -6zM190 516q-9 -8 -21 -9t-22.5 3.5t-18 14
t-6.5 23.5q1 11 8.5 30.5t19 39t25.5 35t26 17.5t18.5 0t9.5 -5t3 -6.5v-3.5q-8 -8 -15.5 -18.5t-13.5 -18.5q-7 -11 -13 -20l6 -6q3 -3 7 -8t10 -13t3 -17t-8.5 -17.5t-11 -14.5t-6.5 -6z" />
    <glyph glyph-name="quotedblright" unicode="&#x201d;" horiz-adv-x="261" 
d="M164 663q9 7 21 8t22.5 -3.5t18 -14t6.5 -22.5q-1 -11 -8.5 -31t-19 -39.5t-25.5 -34.5t-26 -17t-18.5 0t-9.5 5t-3 6.5v3.5q8 8 15.5 18t13.5 19q7 10 13 20l-6 6q-8 8 -17 21q-6 7 -3 16.5t8.5 18t11 14.5t6.5 6zM66 689q9 7 21 8t22.5 -3.5t18 -14t6.5 -22.5
q-1 -11 -8.5 -31t-19 -39.5t-25.5 -34.5t-26 -17t-18.5 0t-9.5 5t-3 6.5v3.5q8 8 15.5 18t13.5 19q7 10 13 20l-6 6q-8 8 -17 21q-6 7 -3 16.5t8.5 18t11 14.5t6.5 6z" />
    <glyph glyph-name="bullet" unicode="&#x2022;" horiz-adv-x="183" 
d="M24 300q0 27 19.5 46.5t46.5 19.5t46.5 -19.5t19.5 -46.5t-19.5 -46.5t-46.5 -19.5t-46.5 19.5t-19.5 46.5z" />
    <glyph glyph-name="endash" unicode="&#x2013;" horiz-adv-x="344" 
d="M53 356l-1.5 8.5t-1.5 19.5t3 20.5t14 11.5t44.5 2.5t71.5 0.5h96q4 -16 5 -29q1 -11 -2 -21t-11 -12q-6 -2 -24.5 -2.5t-42.5 -0.5t-51 0.5t-49 1t-36.5 0.5h-14.5z" />
    <glyph glyph-name="emdash" unicode="&#x2014;" horiz-adv-x="443" 
d="M53 356l-1.5 8.5t-1.5 19.5t3 20.5t14 11.5q5 1 22 1.5t40.5 1t52 0.5h57.5h151q4 -16 5 -29q1 -11 -2 -21t-11 -12q-6 -2 -32.5 -2.5t-63 -0.5t-78 0.5t-76 1t-57 0.5h-22.5z" />
    <glyph glyph-name="scaron" unicode="&#x161;" horiz-adv-x="194" 
d="M150 428q4 -2 6.5 -7.5t2.5 -11t-2.5 -9t-7.5 -1.5q-22 10 -43 12.5t-38 -17.5q-14 -17 1.5 -45t58.5 -75l7 -7q28 9 44 21t17 11l10 -19q-8 -8 -20.5 -18t-33.5 -21q21 -32 24 -62t-7.5 -53t-31 -36t-45.5 -11q-21 0 -39.5 8t-32 21t-20 28.5t-3.5 31.5q1 5 6 14
t13 18.5t19.5 18t25.5 14.5q-12 8 -22 19.5t-25 25.5q-12 10 -18.5 24.5t-8.5 29.5t0.5 29.5t8.5 25.5q25 43 66.5 52.5t87.5 -11.5zM84 126q18 11 20.5 33t-22.5 51q-10 -6 -27 -20t-24 -27q-5 -9 -0.5 -17.5t13.5 -14.5t20 -8t20 3zM28 585l2 3t5.5 6t9.5 5t14 0
q11 -2 18.5 -9.5t12 -15t7 -13.5t3.5 -6q4 12 9 22q5 8 12 16t18 10q10 2 16 0.5t8.5 -4t2.5 -4.5v-2q-9 -4 -16.5 -14t-14 -21t-11.5 -22t-9 -17q-4 -7 -9 -9.5t-10 -2.5q-6 0 -12 2q0 13 -6 25.5t-14.5 22.5t-18.5 17.5t-17 10.5z" />
    <glyph glyph-name="guilsinglright" unicode="&#x203a;" horiz-adv-x="273" 
d="M69 164q-1 -2 -7 -4t-13.5 -1t-15.5 4.5t-12 12.5l134 216l-128 198q3 7 7 13q7 13 19 18q4 2 19.5 -13.5t36.5 -40t44 -53t43 -54t33.5 -42.5t14.5 -17q1 -1 -11.5 -18.5t-32 -44.5t-42.5 -57.5t-43 -57t-33 -43.5t-13 -16z" />
    <glyph glyph-name="oe" unicode="&#x153;" horiz-adv-x="401" 
d="M343 326q-13 -12 -29.5 -19t-34.5 -12q-2 -19 -2 -36.5t4 -30.5t12.5 -20.5t23.5 -6.5q19 2 34.5 17t26.5 33q13 21 23 47q1 -1 4 -2q4 -1 14 -7q3 -3 1 -15.5t-9 -30t-19 -36.5t-28 -34.5t-37.5 -24t-46.5 -4.5q-47 6 -70 45q-19 -25 -47 -38.5t-66 -6.5q-46 8 -68 35
t-28 60t0 65t17 50q7 20 28.5 44t50.5 36t61.5 4t61.5 -51q4 -6 7 -16q31 48 71 62.5t69 -12.5q14 -14 14.5 -29t-6 -28t-16.5 -23.5t-16 -14.5zM87 294q-1 -35 10.5 -60t34.5 -27q18 -2 28 4.5t18 18.5q-9 14 -12 31t3 34q4 13 13 22t15 11q3 28 -10.5 47.5t-33.5 24.5
t-33 -6.5t-20 -30t-10 -38t-3 -31.5zM330 404q-12 3 -23.5 -19.5t-20.5 -58.5q18 6 31 18.5t19.5 25t5 22.5t-11.5 12z" />
    <glyph glyph-name="dieresis" unicode="&#xa8;" horiz-adv-x="254" 
d="M111 559q9 -27 -2 -40t-38 -11q-21 2 -32.5 18t2.5 43q6 12 16 16t20.5 2.5t20 -9t13.5 -19.5zM222 559q9 -27 -2 -40t-38 -11q-21 2 -32.5 18t2.5 43q6 12 16 16t20.5 2.5t20 -9t13.5 -19.5z" />
    <glyph glyph-name="Ydieresis" unicode="&#x178;" horiz-adv-x="824" 
d="M384 531q-24 -57 -64.5 -102t-87.5 -70.5t-95.5 -29t-87.5 21.5q-31 20 -44.5 43.5t-18.5 50.5q-9 53 20 98t82 80t123.5 59.5t144.5 36.5q4 35 2.5 65t-7 49.5t-14 27t-18.5 -1.5q-9 -8 -12 -6.5t-10 13.5q-1 9 2 16q2 6 7.5 9.5t16.5 1.5q45 -11 70 -57.5t29 -106.5
q16 0 36 0.5t37 -0.5q12 18 28.5 30t36.5 13q30 1 44 -13t12.5 -30.5t-17.5 -30t-44 -11.5q-5 0 -14 -1.5t-14 -0.5q-13 -63 -13 -117.5t7.5 -96t20.5 -67t28 -30.5q18 -6 32.5 6t26 35.5t19.5 55.5t13.5 66.5t7.5 68t2 59.5q-1 -1 9.5 2t24 5t26 1.5t14.5 -8.5
q11 -40 15 -88.5t3.5 -98t-4.5 -96t-10 -81.5l86 4v-27q-12 -2 -27 -5q-13 -2 -30.5 -5t-37.5 -5q-18 -65 -45.5 -114t-60.5 -82.5t-68.5 -50.5t-69.5 -18q-39 -1 -76.5 16t-58.5 44.5t-18 63t46 71.5q24 20 54.5 35.5t64 26.5t67.5 19t66 13q12 28 22.5 65.5t16.5 79.5
q-19 -65 -54 -98t-70 -35q-46 -3 -73.5 18.5t-40.5 58t-14.5 81.5t4.5 89.5t17.5 82.5t23.5 60h-26.5t-23.5 -1q-1 -15 -5 -35.5t-9.5 -42.5t-12 -42.5t-12.5 -36.5zM34 450q-2 -23 8 -40.5t31 -23.5q23 -7 47 -1t47 20.5t45 35.5t41 44t34 45.5t24 40.5q27 55 38 109
q-53 -12 -108.5 -34.5t-101 -53t-75 -67t-30.5 -75.5zM433 104q13 1 37 7t51.5 22t55.5 43.5t50 70.5q-62 -13 -109.5 -37.5t-75 -48.5t-31.5 -41.5t22 -15.5zM543 850q9 -27 -2 -40t-38 -11q-21 2 -32.5 18t2.5 43q6 12 16 16t20.5 2.5t20 -9t13.5 -19.5zM654 850
q9 -27 -2 -40t-38 -11q-21 2 -32.5 18t2.5 43q6 12 16 16t20.5 2.5t20 -9t13.5 -19.5z" />
    <glyph glyph-name="exclamdown" unicode="&#xa1;" horiz-adv-x="314" 
d="M214 139q1 -4 -14.5 -8t-35 -3t-36 10t-18.5 30q-2 16 0 51t5.5 78t8.5 89t9.5 84.5t8 65.5t5.5 31q4 11 12.5 14.5t18.5 3.5q11 0 24 -4q-2 -37 -2 -82.5t1 -92.5t2.5 -93t3.5 -83t4 -61.5t3 -29.5zM208 638q-2 -5 -10.5 -7t-19.5 -3q-12 -1 -27 -1q-1 0 -3 8t-3.5 18.5
t-2 22t1.5 19.5q2 9 16.5 12.5t28.5 -2.5t22 -22t-3 -45z" />
    <glyph glyph-name="brokenbar" unicode="&#xa6;" horiz-adv-x="200" 
d="M127 242q1 -133 6 -319l-76 3l-1 316h71zM56 382l-1 361q42 2 58.5 2.5t16.5 -1.5q1 -9 0 -27t-2.5 -57t-2.5 -105.5t0 -172.5h-69z" />
    <glyph glyph-name="trademark" unicode="&#x2122;" horiz-adv-x="444" 
d="M225 338q-6 -10 -18 -10.5t-20 2.5q-23 11 -24.5 55.5t9.5 127.5l-11 2q-16 2 -39 -1q-2 -17 -3 -39.5t0 -46t4.5 -45t9.5 -36.5q3 -8 7.5 -9t8 0t6 1.5t2.5 -2.5q-1 -5 -11.5 -15t-33.5 -6q-29 5 -36.5 36.5t-5.5 80.5q1 18 3.5 37t5.5 36q-23 -4 -42.5 -3.5t-21.5 16.5
q-1 7 2.5 10.5t3.5 -0.5q0 -6 25 -9q4 0 14 0.5t22 2.5q5 17 8.5 29t5.5 16q4 5 9.5 6t10.5 1q6 0 12 -2q-1 -5 -2 -12q-2 -12 -3 -33l26 4q17 3 32 6t20 -2q3 -1 7 -5q1 -2 1 -11.5t-0.5 -21.5t-1 -24.5t-0.5 -20.5q4 7 8.5 13.5t10.5 11.5q20 17 38.5 10t19.5 -33v-14
q8 25 21 45.5t33 26.5q17 5 26 -2t13 -19.5t4.5 -28t-0.5 -27.5q-1 -13 -3 -31.5t-3 -36t-0.5 -31t4.5 -15.5q8 -5 10.5 -2.5t3.5 0.5q2 -2 -4.5 -9t-21.5 -10q-9 -2 -18.5 -0.5t-16.5 9t-10.5 22t-1.5 38.5q3 24 6.5 45t6 36.5t2.5 24t-5 8.5t-11 -11t-11.5 -26.5
t-10.5 -31.5t-7 -25q-2 -13 -3.5 -21t-1.5 -13v-8q-12 -5 -22 -6q-8 -1 -16 3t-10 18q-3 13 -0.5 29.5t5 31.5t3.5 26t-3 11q-6 1 -11 -7.5t-8 -22t-5 -30t-3 -31.5v-1q0 -3 0.5 -13t3.5 -16q2 -2 3.5 -0.5t2.5 -1.5z" />
    <glyph glyph-name="perthousand" unicode="&#x2030;" horiz-adv-x="536" 
d="M157 279l10 8q17 13 29.5 18.5t21.5 8.5l2 28q3 12 10.5 26.5t19.5 25.5t29 15t40 -4q12 -4 20.5 -14t12.5 -23.5t4 -29.5t-6 -32q6 3 11 4.5t10 3.5l2 28q3 12 10.5 26.5t19.5 25.5t29 15t40 -4q18 -6 28 -25t9 -43t-13 -48.5t-38 -41.5q-19 -12 -33.5 -13t-25.5 3
q-12 4 -23 15q-2 3 -2 6q-1 4 2 9q2 4 5 2q2 -1 3 -2q-1 -2 1 -4q2 -3 11 -8q8 -4 22 7t25 48q5 19 5.5 34t-3.5 24t-10.5 10t-14.5 -8q-8 -8 -10.5 -18t-3.5 -20q6 -3 11 -6.5t8 -5.5l6 -6q3 -8 2 -16q-1 -7 -6 -13.5t-19 -10.5q-16 -4 -24 2t-12 17q-6 -3 -14 -8t-19 -14
l-18 -13.5t-19 -12.5q-18 -11 -32.5 -11t-25.5 4q-12 4 -21 14q-2 3 -2 6q-1 4 2 9q2 4 5 2q2 -1 3 -2q-1 -2 1 -4q2 -3 11 -8q8 -4 22 7t25 48q5 19 5.5 34t-3.5 24t-10.5 10t-14.5 -8q-8 -8 -10.5 -18t-3.5 -20q6 -3 11 -6.5t8 -5.5l6 -6q3 -8 2 -16q-1 -7 -6 -13.5
t-19 -10.5q-16 -4 -24 2t-12 17q-6 -3 -14 -8t-19 -14q-12 -9 -22.5 -21t-19.5 -26q-10 -14 -18 -28.5t-14 -25.5t-10 -18t-6 -7t-6 2v-1q-3 0 -7 4q-4 3 -9 8t-13 14q-6 6 4.5 36.5t31 77.5t49 105.5t59.5 119.5h-2q-13 -2 -23.5 -2t-19.5 2q-3 -13 -10.5 -27.5t-19.5 -25
t-29 -15t-39 3.5q-18 7 -28 26t-9 42.5t13 47.5t38 41q19 12 34 13t26 -3q12 -4 23 -15q0 -2 1 -5q0 -2 0.5 -5t-1.5 -5q-3 -3 -6 -2q-2 0 -3 2q0 2 -1 4q-1 3 -10 8q-8 4 -22.5 -6.5t-25.5 -48.5q-5 -19 -5.5 -34t3.5 -24t10.5 -10t15.5 8q8 8 10.5 18t3.5 21q-14 6 -20 12
q-4 3 -6 6q-3 9 -2 17q1 7 6 13t19 10q19 5 27.5 -5.5t10.5 -27.5q8 0 17.5 1t23.5 4q7 1 12 3t12 4q11 22 19.5 39.5t15.5 31.5q8 15 14 28q7 -1 12 -5q5 -3 9.5 -8t6.5 -13l1.5 -7.5t-1.5 -7t-7.5 -13t-15 -26t-24.5 -46t-36 -72.5q-29 -59 -52 -110t-40 -93l13 13t13 11z
" />
    <glyph glyph-name="copyright" unicode="&#xa9;" horiz-adv-x="392" 
d="M46 449q0 31 11.5 58.5t32 47.5t47.5 32t58 12t58.5 -12t47.5 -32t32 -47.5t12 -58.5t-12 -58t-32 -47.5t-47.5 -32t-58.5 -11.5t-58 11.5t-47.5 32t-32 47.5t-11.5 58zM246 530q2 -4 10.5 -9t10.5 7q2 17 -13 27.5t-37.5 12t-47.5 -6.5t-43 -27q-21 -24 -29.5 -52
t-4.5 -55t19 -50.5t41 -38.5q35 -15 61 -8t43 23t25 32.5t8 20.5q-1 9 -6 11q-2 1 -4 1q-16 -18 -32 -29q-14 -10 -29.5 -16.5t-29.5 -0.5q-17 7 -23.5 23t-5.5 35.5t9 40t20 36t27 23t31 0.5z" />
    <glyph glyph-name="registered" unicode="&#xae;" horiz-adv-x="392" 
d="M46 449q0 31 11.5 58.5t32 47.5t47.5 32t58 12t58.5 -12t47.5 -32t32 -47.5t12 -58.5t-12 -58t-32 -47.5t-47.5 -32t-58.5 -11.5t-58 11.5t-47.5 32t-32 47.5t-11.5 58zM178 470q11 21 22.5 38t20.5 26t14.5 8.5t5.5 -14.5q0 -15 -5 -32t-13.5 -28t-20 -12.5t-24.5 14.5z
M228 574q-12 0 -23 -9.5t-20 -24.5t-17 -33t-14 -34v45.5v19.5t0.5 5.5t0.5 3.5q0 1 -4 3t-10 2t-12.5 -4t-12.5 -15t-10 -32.5t-5 -46.5t1.5 -49.5t8.5 -40.5t17.5 -20.5t22.5 -4.5q13 0 28 5q-12 10 -17.5 30t-7.5 62l1 2q4 -9 13.5 -28.5t22 -38t28 -30.5t31.5 -7
q18 6 29 18t16 24t6 21t-1 9t-3.5 0.5t-3.5 0.5h-3q-4 -14 -10 -25q-5 -9 -13 -16.5t-20 -5.5q-16 2 -26 20.5t-15 36.5q16 3 31.5 15.5t26.5 30t16.5 37t2.5 36t-16 27t-39 11.5z" />
    <glyph glyph-name="degree" unicode="&#xb0;" horiz-adv-x="223" 
d="M38 574q4 33 27.5 52t50.5 19t48.5 -19t15.5 -57q-5 -27 -27.5 -41.5t-49.5 -14.5t-48 16t-17 45zM83 575q-1 -11 5.5 -23t24.5 -12q11 0 20 13.5t7 32.5q-1 14 -6.5 23.5t-16.5 9.5t-21.5 -11.5t-12.5 -32.5z" />
    <glyph glyph-name="guillemotleft" unicode="&#xab;" horiz-adv-x="422" 
d="M197 616q1 2 7 4t13.5 1t15.5 -4.5t12 -12.5l-134 -216l128 -198q-3 -7 -7 -13q-3 -5 -8 -10.5t-11 -7.5q-4 -2 -19.5 13.5t-36.5 40t-44 53t-43 54t-33.5 42t-14.5 17.5q-1 0 11.5 18t32 45t42.5 57.5t43 57t33 43.5t13 16zM333 616q1 2 7 4t13.5 1t15.5 -4.5t12 -12.5
l-134 -216l128 -198q-3 -7 -7 -13q-3 -5 -8 -10.5t-11 -7.5q-4 -2 -19.5 13.5t-36.5 40t-44 53t-43 54t-33.5 42t-14.5 17.5q-1 0 11.5 18t32 45t42.5 57.5t43 57t33 43.5t13 16z" />
    <glyph glyph-name="minus" unicode="&#x2212;" horiz-adv-x="344" 
d="M53 356l-1.5 8.5t-1.5 19.5t3 20.5t14 11.5t44.5 2.5t71.5 0.5h96q4 -16 5 -29q1 -11 -2 -21t-11 -12q-6 -2 -24.5 -2.5t-42.5 -0.5t-51 0.5t-49 1t-36.5 0.5h-14.5z" />
    <glyph glyph-name="logicalnot" unicode="&#xac;" horiz-adv-x="455" 
d="M53 356l-1.5 8.5t-1.5 19.5t3 20.5t14 11.5q8 1 35.5 2t64 1h77h74.5h56h23v-55q0 -22 -0.5 -44t-1.5 -33t-11 -15.5t-21.5 -5t-21.5 0l-10 0.5l-0.5 8.5t-1.5 22t-1.5 29t-0.5 27.5h-52t-59.5 0.5t-60 0.5t-52 0.5t-36.5 0.5h-14z" />
    <glyph glyph-name="plusminus" unicode="&#xb1;" horiz-adv-x="306" 
d="M122 501l7 1.5t16.5 1.5t17.5 -3t10 -12q1 -5 1.5 -20t0.5 -35h67q3 -13 4 -24q1 -9 -1 -17.5t-9 -10.5q-5 -2 -22.5 -2.5t-38.5 -0.5v-69q-13 -3 -24 -4q-9 -1 -17.5 1t-10.5 10q-2 5 -2.5 23t-0.5 39q-28 1 -49 1.5t-20 0.5l-1.5 7t-1.5 16.5t3 17.5t12 10q5 1 21 1.5
t36 0.5q0 14 0.5 26t0.5 21q0 11 1 20zM51 230l-1.5 7.5t-1.5 16.5t3 17.5t12 9.5q4 0 14 0.5t23.5 1t29 1t31.5 0.5h81q3 -14 4 -25q1 -10 -1 -18t-9 -10q-5 -1 -20.5 -1.5t-36.5 -0.5h-43.5t-41.5 0.5t-31 0.5h-12z" />
    <glyph glyph-name="acute" unicode="&#xb4;" horiz-adv-x="308" 
d="M206 669l9.5 -9.5t17 -23.5t8.5 -29.5t-14 -26.5q-21 -17 -50.5 -30.5t-56.5 -24.5q-32 -12 -64 -23q-7 6 -11 12q-4 5 -5 12t4 14q3 4 16.5 15.5t31.5 26t38 30t36.5 28t28 21z" />
    <glyph glyph-name="florin" unicode="&#x192;" horiz-adv-x="197" 
d="M-26 321q7 5 17 2.5t17 -6.5q2 19 4.5 34t5.5 29q10 45 24 84.5t50 61.5q23 14 40.5 9t29.5 -20t17 -36.5t3 -41t-12 -33.5t-28 -14q-8 0 -12.5 2t-6.5 4q-3 3 -4 6q3 5 7.5 15t11.5 42q3 14 0.5 24.5t-9.5 11.5q-11 1 -19 -10.5t-14 -30.5t-10 -42t-6 -44.5t-2.5 -38
t-0.5 -22.5q18 -8 51.5 -11.5t73.5 3.5q3 -2 4 -5t0.5 -7t-5.5 -9q-8 -9 -25 -14t-36.5 -7t-36.5 -2t-23 1q2 -20 2.5 -58t-4.5 -98q-5 -51 -25.5 -79.5t-47 -40t-53.5 -9.5t-45 13q-18 10 -23 24.5t-3 27t9 22t14 9.5t8 -6t0 -14t-3 -15t-2 -8q19 -9 32.5 0t23.5 28
t16.5 46t10 54.5t5.5 52.5t2 41q-15 4 -22 15.5t-8.5 23.5t1 22.5t6.5 13.5z" />
    <glyph glyph-name="mu" unicode="&#xb5;" horiz-adv-x="294" 
d="M11 396q9 -1 19 1t20 2.5t19 -2t15 -11.5q2 -6 2 -22t-1.5 -36t-3 -41.5t-1 -40t4 -31.5t11.5 -14q10 -2 20.5 20.5t20.5 52.5t17.5 60.5t10.5 44.5q2 12 3 23t3 19q2 10 3 17l7.5 1.5t18 2t20.5 -2.5t15 -12q2 -6 1.5 -27.5t-2.5 -50.5t-4 -61t-2 -59.5t3 -46t11 -19.5
q4 0 6 1q-5 -16 -15 -21t-24 -3q-20 2 -32.5 10t-19.5 19t-9.5 24.5t-2.5 27.5q-11 -29 -28 -43t-38 -3v-20q0 -36 3 -57.5t6.5 -33.5t6.5 -16t4 -3q-7 -4 -23.5 -8t-34 -3t-33 9t-19.5 28q-3 13 -2.5 42t3 65t6 74.5t7 70t6 52.5z" />
    <glyph glyph-name="paragraph" unicode="&#xb6;" horiz-adv-x="600" 
d="M403 219q2 42 6.5 91.5t9.5 93.5q5 51 11 102l-30 5q-14 2 -32.5 3.5t-38.5 2.5q4 -12 5 -50t-1 -89.5t-6 -109.5t-10 -110t-13 -91.5t-14 -52.5q-11 -21 -27 -26.5t-32 -3.5q-18 2 -38 12q7 7 15.5 40t16.5 80.5t15.5 104t14.5 112t12 103.5t8 79q-28 -3 -54 -10.5
t-46 -21.5q-31 -22 -46 -50t-17 -55t7 -50t27 -35q17 -12 28 -6.5t17 17.5q7 14 9 36q0 1 5.5 3t12 1.5t12 -6t5.5 -18.5q0 -14 -8.5 -32t-25 -34t-40 -24.5t-53.5 -2.5t-51 27.5t-30 51.5t-4.5 64.5t24.5 66.5q18 29 49 53.5t73 42.5q41 18 74.5 25t65 9t64.5 0.5t72 -1.5
q13 12 29 18q13 5 30 6t34 -11t23 -25t4 -24.5t-9.5 -19.5t-17.5 -10q-1 -1 -9 -1q-4 0 -9 -1q-3 -48 -6 -95q-2 -40 -3.5 -83t0.5 -75q1 -32 6 -53.5t10.5 -34.5t11.5 -18.5t9 -5.5t0.5 -5t-10.5 -11.5t-20.5 -12.5t-28.5 -8q-32 -4 -50 4.5t-26.5 26t-10 41.5t0.5 51z" />
    <glyph glyph-name="periodcentered" unicode="&#xb7;" horiz-adv-x="225" 
d="M170 329q14 -44 -3.5 -65t-61.5 -17q-17 2 -30.5 9.5t-21 20t-7.5 29.5t11 39q9 19 25 26t33.5 4t32.5 -15t22 -31z" />
    <glyph glyph-name="cedilla" unicode="&#xb8;" horiz-adv-x="215" 
d="M104 129q8 -4 13 -10q5 -5 7.5 -13.5t0.5 -20.5t-11 -18t-19.5 -7.5t-20.5 0.5t-15 6t-6 8.5t0 7.5q1 4 3 7q6 -4 13 -7q6 -2 14 -2.5t16 4.5q8 4 6.5 8.5t-7.5 8.5t-13.5 7t-10.5 3q-4 0 -4 8.5t1 19.5q1 12 3 27q9 7 16 7.5t11 -1.5t5.5 -6t0.5 -6z" />
    <glyph glyph-name="guillemotright" unicode="&#xbb;" horiz-adv-x="422" 
d="M205 164q-1 -2 -7 -4t-13.5 -1t-15.5 4.5t-12 12.5l134 216l-128 198q3 7 7 13q7 13 19 18q4 2 19.5 -13.5t36.5 -40t44 -53t43 -54t33.5 -42.5t14.5 -17q1 -1 -11.5 -18.5t-32 -44.5t-42.5 -57.5t-43 -57t-33 -43.5t-13 -16zM69 164q-1 -2 -7 -4t-13.5 -1t-15.5 4.5
t-12 12.5l134 216l-128 198q3 7 7 13q7 13 19 18q4 2 19.5 -13.5t36.5 -40t44 -53t43 -54t33.5 -42.5t14.5 -17q1 -1 -11.5 -18.5t-32 -44.5t-42.5 -57.5t-43 -57t-33 -43.5t-13 -16z" />
    <glyph glyph-name="questiondown" unicode="&#xbf;" horiz-adv-x="469" 
d="M318 405q31 -7 49 -31t22.5 -55.5t-3.5 -67t-28 -66.5t-52 -52.5t-75 -26.5t-74 6t-52 32t-32 49.5t-14.5 58.5t0.5 58.5t14 51.5q15 34 33.5 55t35.5 36t31 28t20 31q5 17 7 26.5t1 14.5t-4 6q-1 2 6 5t16.5 4t18 0t11.5 -7q1 -3 2 -14.5t-3.5 -30t-15.5 -42.5t-33 -51
q-24 -30 -34 -71.5t-7.5 -82t15 -73t33.5 -44.5t41.5 3t35.5 43t22 62.5t1 62.5t-15.5 38t-19.5 8.5t-17 -11t-7 -21.5q0 -9 1 -16t3 -12q2 -6 5 -10q-12 -11 -21 -5.5t-13 20t-1.5 33.5t13.5 34.5t31.5 23t52.5 0.5zM189 629q-9 27 2 40t38 11q21 -2 32.5 -18t-2.5 -43
q-6 -12 -16 -16t-20.5 -2.5t-20 9t-13.5 19.5z" />
    <glyph glyph-name="Lslash" unicode="&#x141;" horiz-adv-x="709" 
d="M384 531q-24 -57 -64.5 -102t-87.5 -70.5t-95.5 -29t-87.5 21.5q-31 20 -44.5 43.5t-18.5 50.5q-9 53 20 98t82 80t123.5 59.5t144.5 36.5q4 35 2.5 65t-7 49.5t-14 27t-18.5 -1.5q-9 -8 -12 -6.5t-10 13.5q-1 9 2 16q2 6 7.5 9.5t16.5 1.5q45 -11 70 -57.5t29 -106.5
q16 0 36 0.5t37 -0.5q12 18 28.5 30t36.5 13q30 1 44 -13t12.5 -30.5t-17.5 -30t-44 -11.5h-10t-10 1q-10 -30 -19 -69.5t-17 -84t-14 -92t-9 -93.5q23 11 42.5 20.5t34.5 16.5q18 8 32 15q11 -12 16 -23q5 -10 3.5 -20.5t-14.5 -18.5q-9 -7 -42 -23t-75 -36q0 -40 3.5 -75
t12 -62t21.5 -44.5t32 -21.5q23 -6 48 14t47.5 53.5t41.5 75.5t30 81q7 1 11 1q10 0 9 -8q-8 -53 -25 -103.5t-41.5 -91.5t-55 -68t-66.5 -31q-32 -4 -62 4.5t-54.5 29.5t-42 55t-24.5 81q-2 14 -3 27.5t-2 27.5q-39 -17 -66 -29t-26 -12t-4 6.5t-8.5 16.5t-1 21.5
t18.5 20.5q9 5 32.5 16.5t54.5 25.5q4 59 17.5 115.5t30.5 108t36.5 96t35.5 78.5h-26.5t-23.5 -1q-1 -15 -5 -35.5t-9.5 -42.5t-12 -42.5t-12.5 -36.5zM34 450q-2 -23 8 -40.5t31 -23.5q23 -7 47 -1t47 20.5t45 35.5t41 44t34 45.5t24 40.5q27 55 38 109
q-53 -12 -108.5 -34.5t-101 -53t-75 -67t-30.5 -75.5z" />
    <glyph glyph-name="lslash" unicode="&#x142;" horiz-adv-x="186" 
d="M115 201q13 -1 25.5 10t22 27t16 32.5t8.5 27.5q6 1 10 0t7.5 -2.5t3.5 -5.5q-22 -93 -59 -127.5t-80 -21.5q-22 7 -38 26t-25 55q-2 6 -3 13.5t-2 16.5q-15 -7 -27.5 -12l-22.5 -9q-11 -4 -20 -9q1 0 -4 6.5t-8.5 16.5t-1 21.5t18.5 20.5l62 30v29t1 31q3 44 8.5 89.5
t14.5 84t21 65.5t27 35t30.5 6.5t29 -9t23 -18t12.5 -20.5q6 -27 -2 -57.5t-22.5 -60.5t-31.5 -57.5t-27 -48.5q-1 -5 -1.5 -12.5t-0.5 -18.5q17 8 31.5 15t25.5 12q13 6 25 11q11 -12 16 -23q5 -10 3.5 -20.5t-14.5 -18.5q-9 -7 -32.5 -18t-52.5 -25q2 -33 10 -59.5
t23 -27.5zM79 448q7 16 15 41t14.5 49.5t9 43.5t-1.5 24q-3 4 -7.5 -5.5t-9.5 -26.5q-9 -35 -13.5 -64t-6.5 -62z" />
    <glyph glyph-name="section" unicode="&#xa7;" horiz-adv-x="343" 
d="M294 305q21 -32 24 -62t-7.5 -53t-31 -36t-45.5 -11q-6 0 -11.5 0.5t-10.5 1.5q1 -37 -16.5 -61.5t-43.5 -35.5t-55.5 -7.5t-53.5 22.5q-29 23 -33.5 49.5t4 48t25.5 33.5t31 7q6 -2 9 -7.5t3.5 -11.5t-0.5 -10t-2 -4q-5 2 -13.5 3t-15.5 -4q-10 -6 -14 -19.5t6 -30.5
t24.5 -20t26.5 5t19.5 24t3.5 36q-5 22 -19.5 43t-30.5 43.5t-27.5 48t-8.5 56.5q2 27 12 47t25.5 33t34.5 18t39 1q1 3 2 5.5t3 5.5q11 23 32 34t44 13q39 2 56 -12.5t21 -39.5q1 -5 -3 -10t-9 -8t-9 -3t-4 6q0 11 -6 21t-15.5 15.5t-20.5 3.5t-21 -16q-13 -17 4 -54
t78 -108zM226 190q9 6 15 14t5 20t-9.5 28.5t-28.5 39.5q-9 10 -21 25t-22.5 32t-18.5 36t-8 38q-12 4 -25.5 -5.5t-18.5 -23.5q-8 -29 5 -55.5t33.5 -52t42 -50t30.5 -49.5q11 -4 21 3z" />
    <glyph glyph-name="Agrave" unicode="&#xc0;" horiz-adv-x="736" 
d="M630 748q32 -20 40 -60t5.5 -97.5t-9.5 -132t-5 -162.5q2 -61 5 -115.5t20 -89.5q8 -17 19 -21q5 -3 0.5 -10t-15.5 -15.5t-27 -15t-33 -8t-33.5 5t-29.5 25.5q-6 8 -21 25t-37.5 40t-51 50t-61.5 56q-6 -14 -12 -26l-12 -24q-28 -52 -63.5 -91.5t-76 -60.5t-83 -20.5
t-83.5 27.5q-39 25 -56.5 58t-18 68t13 70t36.5 64.5t53.5 50.5t62.5 30q-58 16 -129 10q1 -2 -9.5 -8t-17.5 -4q-3 1 -3 16.5t6.5 33.5t22.5 33.5t44 17.5q27 1 61.5 -8.5t73 -27t77.5 -41.5t74 -52q35 71 69 143.5t65.5 132t60.5 97t53 38.5zM307 292q-25 17 -47 30
t-44 24q-43 0 -77 -21.5t-56 -54t-30.5 -70.5t-2 -69t30 -50t65.5 -14q37 5 75.5 49.5t76.5 111.5l28 50zM544 288q2 29 4.5 58.5t6.5 58.5q7 51 15 97.5t14 85t9 67t-1 42.5q-13 -19 -32 -57t-45 -104q-22 -55 -45 -121.5t-49 -132.5q39 -37 69.5 -72.5t52.5 -64.5
q-2 30 -1.5 67t2.5 76zM462 943l11.5 -8.5t28 -21t36.5 -28t38 -30t31.5 -26t16.5 -15.5q5 -7 4 -14t-5 -12q-4 -6 -11 -12q-33 11 -65 23q-27 11 -56 24.5t-50 30.5q-15 11 -14 26.5t8.5 29.5t17 23.5z" />
    <glyph glyph-name="Aacute" unicode="&#xc1;" horiz-adv-x="736" 
d="M630 748q32 -20 40 -60t5.5 -97.5t-9.5 -132t-5 -162.5q2 -61 5 -115.5t20 -89.5q8 -17 19 -21q5 -3 0.5 -10t-15.5 -15.5t-27 -15t-33 -8t-33.5 5t-29.5 25.5q-6 8 -21 25t-37.5 40t-51 50t-61.5 56q-6 -14 -12 -26l-12 -24q-28 -52 -63.5 -91.5t-76 -60.5t-83 -20.5
t-83.5 27.5q-39 25 -56.5 58t-18 68t13 70t36.5 64.5t53.5 50.5t62.5 30q-58 16 -129 10q1 -2 -9.5 -8t-17.5 -4q-3 1 -3 16.5t6.5 33.5t22.5 33.5t44 17.5q27 1 61.5 -8.5t73 -27t77.5 -41.5t74 -52q35 71 69 143.5t65.5 132t60.5 97t53 38.5zM307 292q-25 17 -47 30
t-44 24q-43 0 -77 -21.5t-56 -54t-30.5 -70.5t-2 -69t30 -50t65.5 -14q37 5 75.5 49.5t76.5 111.5l28 50zM544 288q2 29 4.5 58.5t6.5 58.5q7 51 15 97.5t14 85t9 67t-1 42.5q-13 -19 -32 -57t-45 -104q-22 -55 -45 -121.5t-49 -132.5q39 -37 69.5 -72.5t52.5 -64.5
q-2 30 -1.5 67t2.5 76zM756 943l9.5 -9.5t17 -23.5t8.5 -29.5t-14 -26.5q-21 -17 -50.5 -30.5t-56.5 -24.5q-32 -12 -64 -23q-7 6 -11 12q-4 5 -5 12t4 14q3 4 16.5 15.5t31.5 26t38 30t36.5 28t28 21z" />
    <glyph glyph-name="Acircumflex" unicode="&#xc2;" horiz-adv-x="736" 
d="M630 748q32 -20 40 -60t5.5 -97.5t-9.5 -132t-5 -162.5q2 -61 5 -115.5t20 -89.5q8 -17 19 -21q5 -3 0.5 -10t-15.5 -15.5t-27 -15t-33 -8t-33.5 5t-29.5 25.5q-6 8 -21 25t-37.5 40t-51 50t-61.5 56q-6 -14 -12 -26l-12 -24q-28 -52 -63.5 -91.5t-76 -60.5t-83 -20.5
t-83.5 27.5q-39 25 -56.5 58t-18 68t13 70t36.5 64.5t53.5 50.5t62.5 30q-58 16 -129 10q1 -2 -9.5 -8t-17.5 -4q-3 1 -3 16.5t6.5 33.5t22.5 33.5t44 17.5q27 1 61.5 -8.5t73 -27t77.5 -41.5t74 -52q35 71 69 143.5t65.5 132t60.5 97t53 38.5zM307 292q-25 17 -47 30
t-44 24q-43 0 -77 -21.5t-56 -54t-30.5 -70.5t-2 -69t30 -50t65.5 -14q37 5 75.5 49.5t76.5 111.5l28 50zM544 288q2 29 4.5 58.5t6.5 58.5q7 51 15 97.5t14 85t9 67t-1 42.5q-13 -19 -32 -57t-45 -104q-22 -55 -45 -121.5t-49 -132.5q39 -37 69.5 -72.5t52.5 -64.5
q-2 30 -1.5 67t2.5 76zM739.83 801.94l-3.14746 -4.41602t-8.8125 -9.46191q-5.66504 -5.04688 -14.4785 -7.57031q-8.8125 -2.52344 -21.4023 0q-17.626 3.78516 -28.9561 15.1396q-11.3311 11.3555 -18.8848 23.3408t-10.7012 21.4482q-3.14746 9.46191 -4.40625 8.2002
q-5.03613 -18.9248 -13.8486 -34.0645q-7.55371 -13.8779 -18.8848 -25.2334q-11.3311 -11.3545 -27.6973 -15.1396q-16.3672 -2.52344 -25.1797 0t-13.2188 6.30859q-4.40723 3.78516 -4.40723 6.93945v3.15332q13.8486 6.30859 25.8096 21.4482
q11.96 15.1406 22.0322 32.1729q10.0713 17.0322 17.625 34.0645t13.8486 27.126q6.29492 10.0928 13.8486 13.8779t15.1074 3.78516q8.81348 0 18.8848 -2.52344q1.25977 -21.4482 10.7012 -40.373q9.44238 -18.9248 22.6621 -34.6953q13.2188 -15.7715 27.6973 -27.126
t25.8086 -16.4014z" />
    <glyph glyph-name="Atilde" unicode="&#xc3;" horiz-adv-x="736" 
d="M630 748q32 -20 40 -60t5.5 -97.5t-9.5 -132t-5 -162.5q2 -61 5 -115.5t20 -89.5q8 -17 19 -21q5 -3 0.5 -10t-15.5 -15.5t-27 -15t-33 -8t-33.5 5t-29.5 25.5q-6 8 -21 25t-37.5 40t-51 50t-61.5 56q-6 -14 -12 -26l-12 -24q-28 -52 -63.5 -91.5t-76 -60.5t-83 -20.5
t-83.5 27.5q-39 25 -56.5 58t-18 68t13 70t36.5 64.5t53.5 50.5t62.5 30q-58 16 -129 10q1 -2 -9.5 -8t-17.5 -4q-3 1 -3 16.5t6.5 33.5t22.5 33.5t44 17.5q27 1 61.5 -8.5t73 -27t77.5 -41.5t74 -52q35 71 69 143.5t65.5 132t60.5 97t53 38.5zM307 292q-25 17 -47 30
t-44 24q-43 0 -77 -21.5t-56 -54t-30.5 -70.5t-2 -69t30 -50t65.5 -14q37 5 75.5 49.5t76.5 111.5l28 50zM544 288q2 29 4.5 58.5t6.5 58.5q7 51 15 97.5t14 85t9 67t-1 42.5q-13 -19 -32 -57t-45 -104q-22 -55 -45 -121.5t-49 -132.5q39 -37 69.5 -72.5t52.5 -64.5
q-2 30 -1.5 67t2.5 76zM536 867q19 -2 38 -9.5t36 -15.5q9 -4 20.5 -9t23 -8.5t21 -4.5t15.5 2t7.5 9t2.5 11.5t3.5 9t11.5 2.5q12 -2 13.5 -15t-7.5 -27.5t-28 -25.5t-48 -9q-27 2 -47 13t-35.5 22.5t-27.5 18.5t-22 1q-9 -5 -10.5 -10t0 -9.5t3.5 -9.5t0 -10t-9 -10.5
t-19 -0.5q-9 3 -10 17t6 29.5t22.5 27.5t39.5 11z" />
    <glyph glyph-name="Adieresis" unicode="&#xc4;" horiz-adv-x="736" 
d="M630 748q32 -20 40 -60t5.5 -97.5t-9.5 -132t-5 -162.5q2 -61 5 -115.5t20 -89.5q8 -17 19 -21q5 -3 0.5 -10t-15.5 -15.5t-27 -15t-33 -8t-33.5 5t-29.5 25.5q-6 8 -21 25t-37.5 40t-51 50t-61.5 56q-6 -14 -12 -26l-12 -24q-28 -52 -63.5 -91.5t-76 -60.5t-83 -20.5
t-83.5 27.5q-39 25 -56.5 58t-18 68t13 70t36.5 64.5t53.5 50.5t62.5 30q-58 16 -129 10q1 -2 -9.5 -8t-17.5 -4q-3 1 -3 16.5t6.5 33.5t22.5 33.5t44 17.5q27 1 61.5 -8.5t73 -27t77.5 -41.5t74 -52q35 71 69 143.5t65.5 132t60.5 97t53 38.5zM307 292q-25 17 -47 30
t-44 24q-43 0 -77 -21.5t-56 -54t-30.5 -70.5t-2 -69t30 -50t65.5 -14q37 5 75.5 49.5t76.5 111.5l28 50zM544 288q2 29 4.5 58.5t6.5 58.5q7 51 15 97.5t14 85t9 67t-1 42.5q-13 -19 -32 -57t-45 -104q-22 -55 -45 -121.5t-49 -132.5q39 -37 69.5 -72.5t52.5 -64.5
q-2 30 -1.5 67t2.5 76zM591 827q9 -27 -2 -40t-38 -11q-21 2 -32.5 18t2.5 43q6 12 16 16t20.5 2.5t20 -9t13.5 -19.5zM702 827q9 -27 -2 -40t-38 -11q-21 2 -32.5 18t2.5 43q6 12 16 16t20.5 2.5t20 -9t13.5 -19.5z" />
    <glyph glyph-name="Aring" unicode="&#xc5;" horiz-adv-x="736" 
d="M630 748q32 -20 40 -60t5.5 -97.5t-9.5 -132t-5 -162.5q2 -61 5 -115.5t20 -89.5q8 -17 19 -21q5 -3 0.5 -10t-15.5 -15.5t-27 -15t-33 -8t-33.5 5t-29.5 25.5q-6 8 -21 25t-37.5 40t-51 50t-61.5 56q-6 -14 -12 -26l-12 -24q-28 -52 -63.5 -91.5t-76 -60.5t-83 -20.5
t-83.5 27.5q-39 25 -56.5 58t-18 68t13 70t36.5 64.5t53.5 50.5t62.5 30q-58 16 -129 10q1 -2 -9.5 -8t-17.5 -4q-3 1 -3 16.5t6.5 33.5t22.5 33.5t44 17.5q27 1 61.5 -8.5t73 -27t77.5 -41.5t74 -52q35 71 69 143.5t65.5 132t60.5 97t53 38.5zM307 292q-25 17 -47 30
t-44 24q-43 0 -77 -21.5t-56 -54t-30.5 -70.5t-2 -69t30 -50t65.5 -14q37 5 75.5 49.5t76.5 111.5l28 50zM544 288q2 29 4.5 58.5t6.5 58.5q7 51 15 97.5t14 85t9 67t-1 42.5q-13 -19 -32 -57t-45 -104q-22 -55 -45 -121.5t-49 -132.5q39 -37 69.5 -72.5t52.5 -64.5
q-2 30 -1.5 67t2.5 76zM548 842q4 33 27.5 52t50.5 19t48.5 -19t15.5 -57q-5 -27 -27.5 -41.5t-49.5 -14.5t-48 16t-17 45zM593 843q-1 -11 5.5 -23t24.5 -12q11 0 20 13.5t7 32.5q-1 14 -6.5 23.5t-16.5 9.5t-21.5 -11.5t-12.5 -32.5z" />
    <glyph glyph-name="AE" unicode="&#xc6;" horiz-adv-x="1154" 
d="M762 103q55 -23 114 -14.5t112 38t97 75.5t70 99h4l4 -1q13 -5 11.5 -15t-6.5 -19q-28 -59 -75.5 -111t-106 -89t-123.5 -54.5t-128 -6.5q-36 6 -73 24q-23 -9 -49.5 -7t-45.5 30q-6 8 -21 25t-37.5 40t-51 50t-61.5 56q-6 -14 -12 -26l-12 -24q-28 -52 -63.5 -91.5
t-76 -60.5t-83 -20.5t-83.5 27.5q-39 25 -56.5 58t-18 68t13 70t36.5 64.5t53.5 50.5t62.5 30q-58 16 -129 10q1 -2 -9.5 -8t-17.5 -4q-3 1 -3 16.5t6.5 33.5t22.5 33.5t44 17.5q27 1 61.5 -8.5t73 -27t77.5 -41.5t74 -52q35 71 69 143.5t65.5 132t60.5 97t53 38.5l25 -2
q26 -16 35.5 -44.5t10.5 -70.5q31 43 77 70q44 26 94.5 37.5t98.5 6.5q53 -5 92 -30q39 -26 55.5 -65.5t14 -80.5t-22 -78.5t-51.5 -58.5q-39 -26 -70 -27.5t-48.5 7t-19.5 20t17 11.5q-1 0 8.5 3.5t24 12t32.5 22t33.5 33.5t27 47t13.5 62q2 24 -9.5 38t-29.5 21t-39 8.5
t-38 -0.5q-49 -6 -94.5 -34.5t-73 -69t-28 -86.5t40.5 -86q9 2 20 3.5t22 1.5t20.5 -2.5t14.5 -8.5q10 -13 11 -26t-5 -23t-16.5 -15.5t-21.5 -3.5q-13 2 -27 12t-26 21q-27 -9 -49.5 -28t-37.5 -44t-20.5 -53t2.5 -55t30.5 -51.5t63.5 -40.5zM307 292q-25 17 -47 30t-44 24
q-43 0 -77 -21.5t-56 -54t-30.5 -70.5t-2 -69t30 -50t65.5 -14q37 5 75.5 49.5t76.5 111.5l28 50zM544 288q2 29 4.5 58.5t6.5 58.5q7 51 15 97.5t14 85t9 67t-1 42.5q-13 -19 -32 -57t-45 -104q-22 -55 -45 -121.5t-49 -132.5q39 -37 69.5 -72.5t52.5 -64.5q-2 30 -1.5 67
t2.5 76zM661 379q19 10 38 16.5t36 10.5q-17 8 -36 20.5t-33 31.5q-2 -19 -3 -39z" />
    <glyph glyph-name="Ccedilla" unicode="&#xc7;" horiz-adv-x="655" 
d="M266 -15q10 -5 17 -14q6 -8 10.5 -19.5t1.5 -28.5t-15 -25.5t-27 -10.5t-29 1t-21 9q-8 5 -9.5 11t-0.5 11t5 10q9 -5 19 -9q8 -3 19 -3.5t23 5.5q11 6 8.5 12.5t-10.5 12t-18.5 9.5t-14.5 4q-6 1 -6 17.5t2 33.5q-72 15 -118 48.5t-70.5 78t-29.5 96.5t3.5 105t29 103.5
t47.5 91.5q54 81 117 130t125.5 69.5t119 15t96.5 -31.5q39 -26 55.5 -65.5t14 -80.5t-22 -78.5t-51.5 -58.5q-39 -26 -70 -27.5t-48.5 7t-19.5 20t17 11.5q-1 0 8.5 3.5t24 12t32.5 22t33.5 33.5t27 47t13.5 62q2 38 -29 56.5t-75 13.5q-75 -8 -134.5 -49.5t-100 -100.5
t-60.5 -127.5t-16 -131.5t34.5 -112.5t90.5 -70.5q56 -20 115 -11t112 37.5t96.5 73.5t69.5 98h4l4 -1q13 -5 10.5 -14.5t-5.5 -19.5q-17 -53 -60 -101t-99.5 -84.5t-120.5 -57.5t-122 -19z" />
    <glyph glyph-name="Egrave" unicode="&#xc8;" horiz-adv-x="612" 
d="M220 103q55 -23 114 -14.5t112 38t97 75.5t70 99h4l4 -1q13 -5 11.5 -15t-6.5 -19q-28 -59 -75.5 -111t-106 -89t-123.5 -54.5t-128 -6.5q-31 6 -67 21t-65 42t-46 66t-10 92q5 40 25 71t47.5 53.5t58 36.5t57.5 19q-15 7 -30.5 17t-29 24t-22.5 32.5t-10 42.5
q-2 60 29 106t81 75q44 26 94.5 37.5t98.5 6.5q53 -5 92 -30q39 -26 55.5 -65.5t14 -80.5t-22 -78.5t-51.5 -58.5q-39 -26 -70 -27.5t-48.5 7t-19.5 20t17 11.5q-1 0 8.5 3.5t24 12t32.5 22t33.5 33.5t27 47t13.5 62q2 24 -9.5 38t-29.5 21t-39 8.5t-38 -0.5
q-49 -6 -94.5 -34.5t-73 -69t-28 -86.5t40.5 -86q9 2 20 3.5t22 1.5t20.5 -2.5t14.5 -8.5q10 -13 11 -26t-5 -23t-16.5 -15.5t-21.5 -3.5q-13 2 -27 12t-26 21q-27 -9 -49.5 -28t-37.5 -44t-20.5 -53t2.5 -55t30.5 -51.5t63.5 -40.5zM274 950l11.5 -8.5t28 -21t36.5 -28
t38 -30t31.5 -26t16.5 -15.5q5 -7 4 -14t-5 -12q-4 -6 -11 -12q-33 11 -65 23q-27 11 -56 24.5t-50 30.5q-15 11 -14 26.5t8.5 29.5t17 23.5z" />
    <glyph glyph-name="Eacute" unicode="&#xc9;" horiz-adv-x="612" 
d="M220 103q55 -23 114 -14.5t112 38t97 75.5t70 99h4l4 -1q13 -5 11.5 -15t-6.5 -19q-28 -59 -75.5 -111t-106 -89t-123.5 -54.5t-128 -6.5q-31 6 -67 21t-65 42t-46 66t-10 92q5 40 25 71t47.5 53.5t58 36.5t57.5 19q-15 7 -30.5 17t-29 24t-22.5 32.5t-10 42.5
q-2 60 29 106t81 75q44 26 94.5 37.5t98.5 6.5q53 -5 92 -30q39 -26 55.5 -65.5t14 -80.5t-22 -78.5t-51.5 -58.5q-39 -26 -70 -27.5t-48.5 7t-19.5 20t17 11.5q-1 0 8.5 3.5t24 12t32.5 22t33.5 33.5t27 47t13.5 62q2 24 -9.5 38t-29.5 21t-39 8.5t-38 -0.5
q-49 -6 -94.5 -34.5t-73 -69t-28 -86.5t40.5 -86q9 2 20 3.5t22 1.5t20.5 -2.5t14.5 -8.5q10 -13 11 -26t-5 -23t-16.5 -15.5t-21.5 -3.5q-13 2 -27 12t-26 21q-27 -9 -49.5 -28t-37.5 -44t-20.5 -53t2.5 -55t30.5 -51.5t63.5 -40.5zM524 949l9.5 -9.5t17 -23.5t8.5 -29.5
t-14 -26.5q-21 -17 -50.5 -30.5t-56.5 -24.5q-32 -12 -64 -23q-7 6 -11 12q-4 5 -5 12t4 14q3 4 16.5 15.5t31.5 26t38 30t36.5 28t28 21z" />
    <glyph glyph-name="Ecircumflex" unicode="&#xca;" horiz-adv-x="612" 
d="M220 103q55 -23 114 -14.5t112 38t97 75.5t70 99h4l4 -1q13 -5 11.5 -15t-6.5 -19q-28 -59 -75.5 -111t-106 -89t-123.5 -54.5t-128 -6.5q-31 6 -67 21t-65 42t-46 66t-10 92q5 40 25 71t47.5 53.5t58 36.5t57.5 19q-15 7 -30.5 17t-29 24t-22.5 32.5t-10 42.5
q-2 60 29 106t81 75q44 26 94.5 37.5t98.5 6.5q53 -5 92 -30q39 -26 55.5 -65.5t14 -80.5t-22 -78.5t-51.5 -58.5q-39 -26 -70 -27.5t-48.5 7t-19.5 20t17 11.5q-1 0 8.5 3.5t24 12t32.5 22t33.5 33.5t27 47t13.5 62q2 24 -9.5 38t-29.5 21t-39 8.5t-38 -0.5
q-49 -6 -94.5 -34.5t-73 -69t-28 -86.5t40.5 -86q9 2 20 3.5t22 1.5t20.5 -2.5t14.5 -8.5q10 -13 11 -26t-5 -23t-16.5 -15.5t-21.5 -3.5q-13 2 -27 12t-26 21q-27 -9 -49.5 -28t-37.5 -44t-20.5 -53t2.5 -55t30.5 -51.5t63.5 -40.5zM513.769 809.932l-3.18359 -4.44922
q-3.18262 -4.44824 -8.91309 -9.5332q-5.73047 -5.08398 -14.6436 -7.62598q-8.91406 -2.54199 -21.6475 0q-17.8281 3.81348 -29.2881 15.2529t-19.1006 23.5146t-10.8232 21.6074q-3.18359 9.5332 -4.45703 8.2627q-5.09375 -19.0664 -14.0078 -34.3193
q-7.63965 -13.9814 -19.1006 -25.4209q-11.46 -11.4395 -28.0137 -15.2529q-16.5537 -2.54199 -25.4678 0t-13.3701 6.35547q-4.45703 3.81348 -4.45703 6.99121v3.17773q14.0068 6.35449 26.1045 21.6074q12.0967 15.2529 22.2842 32.4121q10.1865 17.1592 17.8271 34.3184
q7.63965 17.1592 14.0068 27.3281q6.36719 10.168 14.0068 13.9814q7.64062 3.81348 15.2803 3.81348q8.91406 0 19.1016 -2.54199q1.27344 -21.6084 10.8232 -40.6738q9.55078 -19.0664 22.9209 -34.9541q13.3701 -15.8887 28.0146 -27.3281
q14.6436 -11.4395 26.1035 -16.5234z" />
    <glyph glyph-name="Edieresis" unicode="&#xcb;" horiz-adv-x="612" 
d="M220 103q55 -23 114 -14.5t112 38t97 75.5t70 99h4l4 -1q13 -5 11.5 -15t-6.5 -19q-28 -59 -75.5 -111t-106 -89t-123.5 -54.5t-128 -6.5q-31 6 -67 21t-65 42t-46 66t-10 92q5 40 25 71t47.5 53.5t58 36.5t57.5 19q-15 7 -30.5 17t-29 24t-22.5 32.5t-10 42.5
q-2 60 29 106t81 75q44 26 94.5 37.5t98.5 6.5q53 -5 92 -30q39 -26 55.5 -65.5t14 -80.5t-22 -78.5t-51.5 -58.5q-39 -26 -70 -27.5t-48.5 7t-19.5 20t17 11.5q-1 0 8.5 3.5t24 12t32.5 22t33.5 33.5t27 47t13.5 62q2 24 -9.5 38t-29.5 21t-39 8.5t-38 -0.5
q-49 -6 -94.5 -34.5t-73 -69t-28 -86.5t40.5 -86q9 2 20 3.5t22 1.5t20.5 -2.5t14.5 -8.5q10 -13 11 -26t-5 -23t-16.5 -15.5t-21.5 -3.5q-13 2 -27 12t-26 21q-27 -9 -49.5 -28t-37.5 -44t-20.5 -53t2.5 -55t30.5 -51.5t63.5 -40.5zM362 831q9 -27 -2 -40t-38 -11
q-21 2 -32.5 18t2.5 43q6 12 16 16t20.5 2.5t20 -9t13.5 -19.5zM473 831q9 -27 -2 -40t-38 -11q-21 2 -32.5 18t2.5 43q6 12 16 16t20.5 2.5t20 -9t13.5 -19.5z" />
    <glyph glyph-name="Igrave" unicode="&#xcc;" horiz-adv-x="647" 
d="M428 619q54 10 85 11t47.5 -4t22 -15.5t8.5 -23.5q4 -18 2.5 -45t-6 -65.5t-11 -89.5t-12.5 -117q-6 -61 -4.5 -116t15.5 -90q7 -18 18 -23q6 -3 -2 -12.5t-24.5 -17.5t-37.5 -12t-40.5 3.5t-34 30t-17.5 66.5q-2 33 0.5 77.5t8.5 92.5q4 29 9 58.5t10 57.5q4 19 10 48.5
t10.5 61t6 59.5t-3.5 44q-14 -2 -28.5 -4.5t-31.5 -7.5q-1 -15 -4.5 -37.5t-9.5 -46.5t-12.5 -47.5t-13.5 -39.5q-24 -57 -64.5 -102t-87.5 -70.5t-95.5 -29t-87.5 21.5q-31 20 -44.5 43.5t-18.5 50.5q-9 53 23.5 96.5t88 77.5t124.5 59t134 41q4 35 2.5 65t-7 49.5t-14 27
t-18.5 -1.5q-9 -8 -12 -6.5t-10 13.5q-1 9 2 16q2 6 7.5 9.5t16.5 1.5q45 -11 71.5 -54t29.5 -104zM38 334q-2 -23 8 -40.5t31 -23.5q23 -7 47 -1t47 20.5t45 35.5t41 44t34 45.5t24 40.5q27 55 38 109q-55 -18 -111 -44t-101.5 -56t-74 -63t-28.5 -67zM386 911l11.5 -8.5
t28 -21t36.5 -28t38 -30t31.5 -26t16.5 -15.5q5 -7 4 -14t-5 -12q-4 -6 -11 -12q-33 11 -65 23q-27 11 -56 24.5t-50 30.5q-15 11 -14 26.5t8.5 29.5t17 23.5z" />
    <glyph glyph-name="Iacute" unicode="&#xcd;" horiz-adv-x="647" 
d="M428 619q54 10 85 11t47.5 -4t22 -15.5t8.5 -23.5q4 -18 2.5 -45t-6 -65.5t-11 -89.5t-12.5 -117q-6 -61 -4.5 -116t15.5 -90q7 -18 18 -23q6 -3 -2 -12.5t-24.5 -17.5t-37.5 -12t-40.5 3.5t-34 30t-17.5 66.5q-2 33 0.5 77.5t8.5 92.5q4 29 9 58.5t10 57.5q4 19 10 48.5
t10.5 61t6 59.5t-3.5 44q-14 -2 -28.5 -4.5t-31.5 -7.5q-1 -15 -4.5 -37.5t-9.5 -46.5t-12.5 -47.5t-13.5 -39.5q-24 -57 -64.5 -102t-87.5 -70.5t-95.5 -29t-87.5 21.5q-31 20 -44.5 43.5t-18.5 50.5q-9 53 23.5 96.5t88 77.5t124.5 59t134 41q4 35 2.5 65t-7 49.5t-14 27
t-18.5 -1.5q-9 -8 -12 -6.5t-10 13.5q-1 9 2 16q2 6 7.5 9.5t16.5 1.5q45 -11 71.5 -54t29.5 -104zM38 334q-2 -23 8 -40.5t31 -23.5q23 -7 47 -1t47 20.5t45 35.5t41 44t34 45.5t24 40.5q27 55 38 109q-55 -18 -111 -44t-101.5 -56t-74 -63t-28.5 -67zM651 867l9.5 -9.5
t17 -23.5t8.5 -29.5t-14 -26.5q-21 -17 -50.5 -30.5t-56.5 -24.5q-32 -12 -64 -23q-7 6 -11 12q-4 5 -5 12t4 14q3 4 16.5 15.5t31.5 26t38 30t36.5 28t28 21z" />
    <glyph glyph-name="Icircumflex" unicode="&#xce;" horiz-adv-x="647" 
d="M428 619q54 10 85 11t47.5 -4t22 -15.5t8.5 -23.5q4 -18 2.5 -45t-6 -65.5t-11 -89.5t-12.5 -117q-6 -61 -4.5 -116t15.5 -90q7 -18 18 -23q6 -3 -2 -12.5t-24.5 -17.5t-37.5 -12t-40.5 3.5t-34 30t-17.5 66.5q-2 33 0.5 77.5t8.5 92.5q4 29 9 58.5t10 57.5q4 19 10 48.5
t10.5 61t6 59.5t-3.5 44q-14 -2 -28.5 -4.5t-31.5 -7.5q-1 -15 -4.5 -37.5t-9.5 -46.5t-12.5 -47.5t-13.5 -39.5q-24 -57 -64.5 -102t-87.5 -70.5t-95.5 -29t-87.5 21.5q-31 20 -44.5 43.5t-18.5 50.5q-9 53 23.5 96.5t88 77.5t124.5 59t134 41q4 35 2.5 65t-7 49.5t-14 27
t-18.5 -1.5q-9 -8 -12 -6.5t-10 13.5q-1 9 2 16q2 6 7.5 9.5t16.5 1.5q45 -11 71.5 -54t29.5 -104zM38 334q-2 -23 8 -40.5t31 -23.5q23 -7 47 -1t47 20.5t45 35.5t41 44t34 45.5t24 40.5q27 55 38 109q-55 -18 -111 -44t-101.5 -56t-74 -63t-28.5 -67zM671.659 740.344
l-3.52539 -4.93945q-3.52441 -4.93848 -9.87012 -10.584q-6.3457 -5.64453 -16.2158 -8.4668q-9.87109 -2.82227 -23.9717 0q-19.7422 4.2334 -32.4326 16.9346q-12.6904 12.7002 -21.1514 26.1074q-8.46094 13.4062 -11.9854 23.9902q-3.52539 10.584 -4.93555 9.17285
q-5.64062 -21.168 -15.5117 -38.1025q-8.45996 -15.5234 -21.1514 -28.2236q-12.6904 -12.7012 -31.0215 -16.9346q-18.3311 -2.82227 -28.2021 0t-14.8057 7.05566q-4.93555 4.2334 -4.93555 7.76172v3.52832q15.5107 7.05566 28.9072 23.9902
q13.3955 16.9336 24.6768 35.9854q11.2803 19.0508 19.7412 38.1016q8.45996 19.0518 15.5107 30.3408q7.05078 11.29 15.5107 15.5234q8.46094 4.2334 16.9209 4.2334q9.87109 0 21.1523 -2.82227q1.41016 -23.9902 11.9854 -45.1582q10.5762 -21.168 25.3818 -38.8076
t31.0225 -30.3408q16.2158 -12.7012 28.9062 -18.3457z" />
    <glyph glyph-name="Idieresis" unicode="&#xcf;" horiz-adv-x="647" 
d="M428 619q54 10 85 11t47.5 -4t22 -15.5t8.5 -23.5q4 -18 2.5 -45t-6 -65.5t-11 -89.5t-12.5 -117q-6 -61 -4.5 -116t15.5 -90q7 -18 18 -23q6 -3 -2 -12.5t-24.5 -17.5t-37.5 -12t-40.5 3.5t-34 30t-17.5 66.5q-2 33 0.5 77.5t8.5 92.5q4 29 9 58.5t10 57.5q4 19 10 48.5
t10.5 61t6 59.5t-3.5 44q-14 -2 -28.5 -4.5t-31.5 -7.5q-1 -15 -4.5 -37.5t-9.5 -46.5t-12.5 -47.5t-13.5 -39.5q-24 -57 -64.5 -102t-87.5 -70.5t-95.5 -29t-87.5 21.5q-31 20 -44.5 43.5t-18.5 50.5q-9 53 23.5 96.5t88 77.5t124.5 59t134 41q4 35 2.5 65t-7 49.5t-14 27
t-18.5 -1.5q-9 -8 -12 -6.5t-10 13.5q-1 9 2 16q2 6 7.5 9.5t16.5 1.5q45 -11 71.5 -54t29.5 -104zM38 334q-2 -23 8 -40.5t31 -23.5q23 -7 47 -1t47 20.5t45 35.5t41 44t34 45.5t24 40.5q27 55 38 109q-55 -18 -111 -44t-101.5 -56t-74 -63t-28.5 -67zM514 759
q9 -27 -2 -40t-38 -11q-21 2 -32.5 18t2.5 43q6 12 16 16t20.5 2.5t20 -9t13.5 -19.5zM625 759q9 -27 -2 -40t-38 -11q-21 2 -32.5 18t2.5 43q6 12 16 16t20.5 2.5t20 -9t13.5 -19.5z" />
    <glyph glyph-name="Eth" unicode="&#xd0;" horiz-adv-x="767" 
d="M209 310q-31 -22 -64.5 -29.5t-62.5 -1t-50 27.5t-26 55q-8 50 5 97t40 89t65.5 77t82.5 61q57 35 120 52t121 11q43 -4 83 -18.5t74.5 -40t61.5 -62t44 -83.5q38 -105 -2 -239q36 -3 59 -6t28 -5q6 -3 6 -6.5t-2 -5.5q-3 -4 -8 -6h-26h-67q-34 -89 -88.5 -149
t-115.5 -91.5t-120 -34.5t-102 23q-23 14 -39 34t-25 42q-3 6 -5.5 14t-4.5 18q-9 40 13 72.5t85 58.5q0 27 1.5 57.5t4.5 61.5h-21q-15 -23 -31.5 -42t-33.5 -31zM152 385l-1.5 8.5t-1.5 19.5t3 20.5t14 11.5q8 1 36 1.5t66 1.5q17 25 29 50t19 47q6 24 13 31q8 6 18.5 7.5
t20.5 0.5t16.5 -2.5t6.5 -0.5q1 -3 1 -41t1 -92h89q4 -16 5 -29q1 -11 -2 -21t-11 -12q-5 -2 -28 -2.5t-52 -0.5l3 -87q48 9 102.5 12t106.5 2q1 3 5 9q36 71 45.5 123t-0.5 88q-8 34 -29.5 59.5t-52.5 43t-70 26t-82 8.5q-101 -2 -195 -51q-69 -36 -120 -94t-66 -130
q-6 -30 4.5 -47t32 -21t49.5 4t57 28q18 13 33 28q-28 1 -47 1t-18 0zM410 149q0 -1 -1 -3t-3.5 -4.5t-8.5 -6.5q-12 -7 -35 -11t-42 9q-12 8 -20.5 25.5t-9.5 46.5q-21 -11 -33 -22.5t-17.5 -22t-6 -20t2.5 -16.5q17 -24 56 -33t88.5 5.5t103.5 56t101 119.5
q-45 -3 -93 -10t-93 -18q2 -34 4.5 -59t6.5 -36z" />
    <glyph glyph-name="Ntilde" unicode="&#xd1;" horiz-adv-x="989" 
d="M428 619q54 10 85 11t47.5 -4t22 -15.5t8.5 -23.5q4 -16 3 -39t-4.5 -55t-9 -73.5t-11.5 -94.5q11 38 26 80t35 81q26 50 51 80t49.5 43t48.5 10.5t48 -16.5q28 -16 37.5 -56t9 -90.5t-7.5 -105.5t-12 -101.5t-4 -77.5t16 -34q24 -5 46.5 19t39.5 55q20 36 38 83l26 -10
q-1 -6 -7 -26t-17.5 -46.5t-28.5 -55.5t-39.5 -52t-50 -36t-60.5 -8q-35 5 -54.5 26t-27 52.5t-6 71t7.5 81t15 82.5t16 76t10 61.5t-2 38.5q-4 10 -16 10.5t-29 -13t-37 -43.5t-40 -81q-21 -53 -38 -103t-28 -96t-14 -86.5t5 -73.5q2 -10 7 -15t11 -8t-2 -12.5t-24.5 -17.5
t-37.5 -12t-40.5 3.5t-34 30t-17.5 66.5q-2 33 0.5 77.5t8.5 92.5q4 29 9 58.5t10 57.5q4 19 10 48.5t10.5 61t6 59.5t-3.5 44q-14 -2 -28.5 -4.5t-31.5 -7.5q-1 -15 -4.5 -37.5t-9.5 -46.5t-12.5 -47.5t-13.5 -39.5q-24 -57 -64.5 -102t-87.5 -70.5t-95.5 -29t-87.5 21.5
q-31 20 -44.5 43.5t-18.5 50.5q-9 53 23.5 96.5t88 77.5t124.5 59t134 41q4 35 2.5 65t-7 49.5t-14 27t-18.5 -1.5q-9 -8 -12 -6.5t-10 13.5q-1 9 2 16q2 6 7.5 9.5t16.5 1.5q45 -11 71.5 -54t29.5 -104zM38 334q-2 -23 8 -40.5t31 -23.5q23 -7 47 -1t47 20.5t45 35.5t41 44
t34 45.5t24 40.5q27 55 38 109q-55 -18 -111 -44t-101.5 -56t-74 -63t-28.5 -67zM674 795q19 -2 38 -9.5t36 -15.5q9 -4 20.5 -9t23 -8.5t21 -4.5t15.5 2t7.5 9t2.5 11.5t3.5 9t11.5 2.5q12 -2 13.5 -15t-7.5 -27.5t-28 -25.5t-48 -9q-27 2 -47 13t-35.5 22.5t-27.5 18.5
t-22 1q-9 -5 -10.5 -10t0 -9.5t3.5 -9.5t0 -10t-9 -10.5t-19 -0.5q-9 3 -10 17t6 29.5t22.5 27.5t39.5 11z" />
    <glyph glyph-name="Ograve" unicode="&#xd2;" 
d="M322 0q-68 -8 -122 6.5t-93 44t-63.5 72t-35.5 90.5t-7.5 99t20.5 98t47.5 87t74.5 66q-1 37 14.5 67t41 51.5t57.5 33t64 11.5q58 -1 103 -22.5t78.5 -58t54.5 -84.5t31.5 -102t9.5 -111t-12 -110q28 7 47 17t32 20q14 11 24 23q8 3 12 3q4 -1 4.5 -5t-6.5 -18
q-6 -12 -18 -25t-29.5 -25t-39 -22t-46.5 -16q-34 -75 -94.5 -127.5t-148.5 -62.5zM253 656q-21 -32 -25.5 -76t4.5 -91t30 -93t51.5 -82.5t68 -59.5t80.5 -24q13 56 13.5 116t-9.5 114q-12 68 -38 121t-57 82t-62.5 29.5t-55.5 -36.5zM451 189q-70 9 -122 37t-88 68t-57 88
t-28 96q-18 -34 -28 -80.5t-10.5 -96t9.5 -97t32 -84.5t57.5 -58t85.5 -17q27 2 50 14t42 31.5t33 44.5t24 54zM243 922l11.5 -8.5t28 -21t36.5 -28t38 -30t31.5 -26t16.5 -15.5q5 -7 4 -14t-5 -12q-4 -6 -11 -12q-33 11 -65 23q-27 11 -56 24.5t-50 30.5q-15 11 -14 26.5
t8.5 29.5t17 23.5z" />
    <glyph glyph-name="Oacute" unicode="&#xd3;" 
d="M322 0q-68 -8 -122 6.5t-93 44t-63.5 72t-35.5 90.5t-7.5 99t20.5 98t47.5 87t74.5 66q-1 37 14.5 67t41 51.5t57.5 33t64 11.5q58 -1 103 -22.5t78.5 -58t54.5 -84.5t31.5 -102t9.5 -111t-12 -110q28 7 47 17t32 20q14 11 24 23q8 3 12 3q4 -1 4.5 -5t-6.5 -18
q-6 -12 -18 -25t-29.5 -25t-39 -22t-46.5 -16q-34 -75 -94.5 -127.5t-148.5 -62.5zM253 656q-21 -32 -25.5 -76t4.5 -91t30 -93t51.5 -82.5t68 -59.5t80.5 -24q13 56 13.5 116t-9.5 114q-12 68 -38 121t-57 82t-62.5 29.5t-55.5 -36.5zM451 189q-70 9 -122 37t-88 68t-57 88
t-28 96q-18 -34 -28 -80.5t-10.5 -96t9.5 -97t32 -84.5t57.5 -58t85.5 -17q27 2 50 14t42 31.5t33 44.5t24 54zM425 929l9.5 -9.5t17 -23.5t8.5 -29.5t-14 -26.5q-21 -17 -50.5 -30.5t-56.5 -24.5q-32 -12 -64 -23q-7 6 -11 12q-4 5 -5 12t4 14q3 4 16.5 15.5t31.5 26t38 30
t36.5 28t28 21z" />
    <glyph glyph-name="Ocircumflex" unicode="&#xd4;" 
d="M322 0q-68 -8 -122 6.5t-93 44t-63.5 72t-35.5 90.5t-7.5 99t20.5 98t47.5 87t74.5 66q-1 37 14.5 67t41 51.5t57.5 33t64 11.5q58 -1 103 -22.5t78.5 -58t54.5 -84.5t31.5 -102t9.5 -111t-12 -110q28 7 47 17t32 20q14 11 24 23q8 3 12 3q4 -1 4.5 -5t-6.5 -18
q-6 -12 -18 -25t-29.5 -25t-39 -22t-46.5 -16q-34 -75 -94.5 -127.5t-148.5 -62.5zM253 656q-21 -32 -25.5 -76t4.5 -91t30 -93t51.5 -82.5t68 -59.5t80.5 -24q13 56 13.5 116t-9.5 114q-12 68 -38 121t-57 82t-62.5 29.5t-55.5 -36.5zM451 189q-70 9 -122 37t-88 68t-57 88
t-28 96q-18 -34 -28 -80.5t-10.5 -96t9.5 -97t32 -84.5t57.5 -58t85.5 -17q27 2 50 14t42 31.5t33 44.5t24 54zM481.266 803.005l-3.74121 -5.23438q-3.74121 -5.2334 -10.4746 -11.2139q-6.73438 -5.98145 -17.209 -8.97266q-10.4746 -2.99023 -25.4385 0
q-20.9492 4.48633 -34.417 17.9443q-13.4678 13.457 -22.4463 27.6631q-8.97852 14.2051 -12.7197 25.4199q-3.74023 11.2148 -5.2373 9.71875q-5.98535 -22.4287 -16.46 -40.373q-8.97852 -16.4482 -22.4463 -29.9053q-13.4678 -13.458 -32.9209 -17.9443
q-19.4531 -2.99023 -29.9277 0q-10.4746 2.99121 -15.7119 7.47656q-5.2373 4.48633 -5.2373 8.22461v3.73828q16.46 7.47656 30.6758 25.4199t26.1865 38.1299q11.9717 20.1865 20.9502 40.373t16.46 32.1494q7.48242 11.9619 16.4609 16.4482t17.957 4.48633
q10.4746 0 22.4453 -2.99121q1.49609 -25.4199 12.7197 -47.8496q11.2227 -22.4297 26.9346 -41.1201q15.7129 -18.6914 32.9209 -32.1494q17.209 -13.458 30.6768 -19.4385z" />
    <glyph glyph-name="Otilde" unicode="&#xd5;" 
d="M322 0q-68 -8 -122 6.5t-93 44t-63.5 72t-35.5 90.5t-7.5 99t20.5 98t47.5 87t74.5 66q-1 37 14.5 67t41 51.5t57.5 33t64 11.5q58 -1 103 -22.5t78.5 -58t54.5 -84.5t31.5 -102t9.5 -111t-12 -110q28 7 47 17t32 20q14 11 24 23q8 3 12 3q4 -1 4.5 -5t-6.5 -18
q-6 -12 -18 -25t-29.5 -25t-39 -22t-46.5 -16q-34 -75 -94.5 -127.5t-148.5 -62.5zM253 656q-21 -32 -25.5 -76t4.5 -91t30 -93t51.5 -82.5t68 -59.5t80.5 -24q13 56 13.5 116t-9.5 114q-12 68 -38 121t-57 82t-62.5 29.5t-55.5 -36.5zM451 189q-70 9 -122 37t-88 68t-57 88
t-28 96q-18 -34 -28 -80.5t-10.5 -96t9.5 -97t32 -84.5t57.5 -58t85.5 -17q27 2 50 14t42 31.5t33 44.5t24 54zM282 859q19 -2 38 -9.5t36 -15.5q9 -4 20.5 -9t23 -8.5t21 -4.5t15.5 2t7.5 9t2.5 11.5t3.5 9t11.5 2.5q12 -2 13.5 -15t-7.5 -27.5t-28 -25.5t-48 -9
q-27 2 -47 13t-35.5 22.5t-27.5 18.5t-22 1q-9 -5 -10.5 -10t0 -9.5t3.5 -9.5t0 -10t-9 -10.5t-19 -0.5q-9 3 -10 17t6 29.5t22.5 27.5t39.5 11z" />
    <glyph glyph-name="Odieresis" unicode="&#xd6;" 
d="M322 0q-68 -8 -122 6.5t-93 44t-63.5 72t-35.5 90.5t-7.5 99t20.5 98t47.5 87t74.5 66q-1 37 14.5 67t41 51.5t57.5 33t64 11.5q58 -1 103 -22.5t78.5 -58t54.5 -84.5t31.5 -102t9.5 -111t-12 -110q28 7 47 17t32 20q14 11 24 23q8 3 12 3q4 -1 4.5 -5t-6.5 -18
q-6 -12 -18 -25t-29.5 -25t-39 -22t-46.5 -16q-34 -75 -94.5 -127.5t-148.5 -62.5zM253 656q-21 -32 -25.5 -76t4.5 -91t30 -93t51.5 -82.5t68 -59.5t80.5 -24q13 56 13.5 116t-9.5 114q-12 68 -38 121t-57 82t-62.5 29.5t-55.5 -36.5zM451 189q-70 9 -122 37t-88 68t-57 88
t-28 96q-18 -34 -28 -80.5t-10.5 -96t9.5 -97t32 -84.5t57.5 -58t85.5 -17q27 2 50 14t42 31.5t33 44.5t24 54zM306 821q9 -27 -2 -40t-38 -11q-21 2 -32.5 18t2.5 43q6 12 16 16t20.5 2.5t20 -9t13.5 -19.5zM417 821q9 -27 -2 -40t-38 -11q-21 2 -32.5 18t2.5 43
q6 12 16 16t20.5 2.5t20 -9t13.5 -19.5z" />
    <glyph glyph-name="Oslash" unicode="&#xd8;" 
d="M474 764l5 -2t12 -6.5t14 -12t10 -19.5q4 -16 -24 -67q36 -36 59.5 -85t35 -105t11 -115t-11.5 -114q28 7 47 17t32 20q14 11 24 23q8 3 12 3q4 -1 4.5 -5t-6.5 -18q-6 -12 -18 -25t-29.5 -25t-39 -22t-46.5 -16q-34 -75 -94.5 -127.5t-148.5 -62.5q-80 -9 -144 13
q-13 -32 -22.5 -57t-15.5 -43q-8 -21 -13 -37q-4 2 -10 7q-5 4 -14 11.5t-21 20.5q-6 6 5 39.5t33 86.5q-43 28 -70 70.5t-39.5 91.5t-10 101t19 100.5t47.5 90t76 68.5q-1 37 14.5 67t41 51.5t57.5 33t64 11.5q68 -2 119 -30q8 16 14 28.5t11 21.5q5 11 10 18zM253 656
q-17 -27 -23 -61.5t-2.5 -72.5t15.5 -77t32 -75q35 70 68 135.5t60 119.5q-18 27 -38 43.5t-40 21.5t-38.5 -3t-33.5 -31zM462 230q13 56 13.5 116t-9.5 114q-11 55 -29 99q-22 -39 -49.5 -91t-60.5 -120l-16 -32q31 -38 69 -61.5t82 -24.5zM451 189q-52 7 -94 24t-75 43
q-24 -51 -44 -97.5t-37 -87.5q20 -15 45 -22t56 -4q27 2 50 14t42 31.5t33 44.5t24 54zM156 478q-18 -33 -28 -79t-10.5 -95t9 -96.5t30.5 -84.5q36 79 82 173q-35 40 -55.5 87t-27.5 95z" />
    <glyph glyph-name="Ugrave" unicode="&#xd9;" horiz-adv-x="934" 
d="M724 593q0 1 11.5 4t26 3t27.5 -5t17 -19q5 -18 3.5 -56t-4.5 -86t-7 -99t-5 -94t3.5 -71.5t17.5 -31.5q12 -3 23.5 2.5t22.5 16t21 25t19 29.5q20 36 38 84l26 -10q-1 -6 -7 -26t-17.5 -46.5t-28.5 -55.5t-39.5 -51.5t-50 -36t-60.5 -8.5q-39 5 -58 32t-24 67
q-23 -65 -57 -109t-81 -51q-32 -5 -62 3.5t-54.5 29.5t-42 55.5t-24.5 81.5q-11 73 -2 147.5t28.5 142.5t44 127t44.5 102h-26.5t-23.5 -1q-1 -15 -5 -35.5t-9.5 -42.5t-12 -42.5t-12.5 -36.5q-24 -57 -64.5 -102t-87.5 -70.5t-95.5 -29t-87.5 21.5q-31 20 -44.5 43.5
t-18.5 50.5q-9 53 20 98t82 80t123.5 59.5t144.5 36.5q4 35 2.5 65t-7 49.5t-14 27t-18.5 -1.5q-9 -8 -12 -6.5t-10 13.5q-1 9 2 16q2 6 7.5 9.5t16.5 1.5q45 -11 70 -57.5t29 -106.5q16 0 36 0.5t37 -0.5q12 18 28.5 30t36.5 13q30 1 44 -13t12.5 -30.5t-17.5 -30
t-44 -11.5h-10t-10 1q-14 -43 -25.5 -106t-19 -132t-9 -137t5.5 -121t23.5 -83t45.5 -24q23 5 44.5 37t40.5 79t35 103.5t27 110.5t17 99t5 69q0 3 -0.5 5t-0.5 5zM34 450q-2 -23 8 -40.5t31 -23.5q23 -7 47 -1t47 20.5t45 35.5t41 44t34 45.5t24 40.5q27 55 38 109
q-53 -12 -108.5 -34.5t-101 -53t-75 -67t-30.5 -75.5zM569 937l11.5 -8.5t28 -21t36.5 -28t38 -30t31.5 -26t16.5 -15.5q5 -7 4 -14t-5 -12q-4 -6 -11 -12q-33 11 -65 23q-27 11 -56 24.5t-50 30.5q-15 11 -14 26.5t8.5 29.5t17 23.5z" />
    <glyph glyph-name="Uacute" unicode="&#xda;" horiz-adv-x="934" 
d="M724 593q0 1 11.5 4t26 3t27.5 -5t17 -19q5 -18 3.5 -56t-4.5 -86t-7 -99t-5 -94t3.5 -71.5t17.5 -31.5q12 -3 23.5 2.5t22.5 16t21 25t19 29.5q20 36 38 84l26 -10q-1 -6 -7 -26t-17.5 -46.5t-28.5 -55.5t-39.5 -51.5t-50 -36t-60.5 -8.5q-39 5 -58 32t-24 67
q-23 -65 -57 -109t-81 -51q-32 -5 -62 3.5t-54.5 29.5t-42 55.5t-24.5 81.5q-11 73 -2 147.5t28.5 142.5t44 127t44.5 102h-26.5t-23.5 -1q-1 -15 -5 -35.5t-9.5 -42.5t-12 -42.5t-12.5 -36.5q-24 -57 -64.5 -102t-87.5 -70.5t-95.5 -29t-87.5 21.5q-31 20 -44.5 43.5
t-18.5 50.5q-9 53 20 98t82 80t123.5 59.5t144.5 36.5q4 35 2.5 65t-7 49.5t-14 27t-18.5 -1.5q-9 -8 -12 -6.5t-10 13.5q-1 9 2 16q2 6 7.5 9.5t16.5 1.5q45 -11 70 -57.5t29 -106.5q16 0 36 0.5t37 -0.5q12 18 28.5 30t36.5 13q30 1 44 -13t12.5 -30.5t-17.5 -30
t-44 -11.5h-10t-10 1q-14 -43 -25.5 -106t-19 -132t-9 -137t5.5 -121t23.5 -83t45.5 -24q23 5 44.5 37t40.5 79t35 103.5t27 110.5t17 99t5 69q0 3 -0.5 5t-0.5 5zM34 450q-2 -23 8 -40.5t31 -23.5q23 -7 47 -1t47 20.5t45 35.5t41 44t34 45.5t24 40.5q27 55 38 109
q-53 -12 -108.5 -34.5t-101 -53t-75 -67t-30.5 -75.5zM817 929l9.5 -9.5t17 -23.5t8.5 -29.5t-14 -26.5q-21 -17 -50.5 -30.5t-56.5 -24.5q-32 -12 -64 -23q-7 6 -11 12q-4 5 -5 12t4 14q3 4 16.5 15.5t31.5 26t38 30t36.5 28t28 21z" />
    <glyph glyph-name="Ucircumflex" unicode="&#xdb;" horiz-adv-x="934" 
d="M724 593q0 1 11.5 4t26 3t27.5 -5t17 -19q5 -18 3.5 -56t-4.5 -86t-7 -99t-5 -94t3.5 -71.5t17.5 -31.5q12 -3 23.5 2.5t22.5 16t21 25t19 29.5q20 36 38 84l26 -10q-1 -6 -7 -26t-17.5 -46.5t-28.5 -55.5t-39.5 -51.5t-50 -36t-60.5 -8.5q-39 5 -58 32t-24 67
q-23 -65 -57 -109t-81 -51q-32 -5 -62 3.5t-54.5 29.5t-42 55.5t-24.5 81.5q-11 73 -2 147.5t28.5 142.5t44 127t44.5 102h-26.5t-23.5 -1q-1 -15 -5 -35.5t-9.5 -42.5t-12 -42.5t-12.5 -36.5q-24 -57 -64.5 -102t-87.5 -70.5t-95.5 -29t-87.5 21.5q-31 20 -44.5 43.5
t-18.5 50.5q-9 53 20 98t82 80t123.5 59.5t144.5 36.5q4 35 2.5 65t-7 49.5t-14 27t-18.5 -1.5q-9 -8 -12 -6.5t-10 13.5q-1 9 2 16q2 6 7.5 9.5t16.5 1.5q45 -11 70 -57.5t29 -106.5q16 0 36 0.5t37 -0.5q12 18 28.5 30t36.5 13q30 1 44 -13t12.5 -30.5t-17.5 -30
t-44 -11.5h-10t-10 1q-14 -43 -25.5 -106t-19 -132t-9 -137t5.5 -121t23.5 -83t45.5 -24q23 5 44.5 37t40.5 79t35 103.5t27 110.5t17 99t5 69q0 3 -0.5 5t-0.5 5zM34 450q-2 -23 8 -40.5t31 -23.5q23 -7 47 -1t47 20.5t45 35.5t41 44t34 45.5t24 40.5q27 55 38 109
q-53 -12 -108.5 -34.5t-101 -53t-75 -67t-30.5 -75.5zM849.769 794.932l-3.18359 -4.44922q-3.18262 -4.44824 -8.91309 -9.5332q-5.73047 -5.08398 -14.6436 -7.62598q-8.91406 -2.54199 -21.6475 0q-17.8281 3.81348 -29.2881 15.2529t-19.1006 23.5146t-10.8232 21.6074
q-3.18359 9.5332 -4.45703 8.2627q-5.09375 -19.0664 -14.0078 -34.3193q-7.63965 -13.9814 -19.1006 -25.4209q-11.46 -11.4395 -28.0137 -15.2529q-16.5537 -2.54199 -25.4678 0t-13.3701 6.35547q-4.45703 3.81348 -4.45703 6.99121v3.17773
q14.0068 6.35449 26.1045 21.6074q12.0967 15.2529 22.2842 32.4121q10.1865 17.1592 17.8271 34.3184q7.63965 17.1592 14.0068 27.3281q6.36719 10.168 14.0068 13.9814q7.64062 3.81348 15.2803 3.81348q8.91406 0 19.1016 -2.54199q1.27344 -21.6084 10.8232 -40.6738
q9.55078 -19.0664 22.9209 -34.9541q13.3701 -15.8887 28.0146 -27.3281q14.6436 -11.4395 26.1035 -16.5234z" />
    <glyph glyph-name="Udieresis" unicode="&#xdc;" horiz-adv-x="934" 
d="M724 593q0 1 11.5 4t26 3t27.5 -5t17 -19q5 -18 3.5 -56t-4.5 -86t-7 -99t-5 -94t3.5 -71.5t17.5 -31.5q12 -3 23.5 2.5t22.5 16t21 25t19 29.5q20 36 38 84l26 -10q-1 -6 -7 -26t-17.5 -46.5t-28.5 -55.5t-39.5 -51.5t-50 -36t-60.5 -8.5q-39 5 -58 32t-24 67
q-23 -65 -57 -109t-81 -51q-32 -5 -62 3.5t-54.5 29.5t-42 55.5t-24.5 81.5q-11 73 -2 147.5t28.5 142.5t44 127t44.5 102h-26.5t-23.5 -1q-1 -15 -5 -35.5t-9.5 -42.5t-12 -42.5t-12.5 -36.5q-24 -57 -64.5 -102t-87.5 -70.5t-95.5 -29t-87.5 21.5q-31 20 -44.5 43.5
t-18.5 50.5q-9 53 20 98t82 80t123.5 59.5t144.5 36.5q4 35 2.5 65t-7 49.5t-14 27t-18.5 -1.5q-9 -8 -12 -6.5t-10 13.5q-1 9 2 16q2 6 7.5 9.5t16.5 1.5q45 -11 70 -57.5t29 -106.5q16 0 36 0.5t37 -0.5q12 18 28.5 30t36.5 13q30 1 44 -13t12.5 -30.5t-17.5 -30
t-44 -11.5h-10t-10 1q-14 -43 -25.5 -106t-19 -132t-9 -137t5.5 -121t23.5 -83t45.5 -24q23 5 44.5 37t40.5 79t35 103.5t27 110.5t17 99t5 69q0 3 -0.5 5t-0.5 5zM34 450q-2 -23 8 -40.5t31 -23.5q23 -7 47 -1t47 20.5t45 35.5t41 44t34 45.5t24 40.5q27 55 38 109
q-53 -12 -108.5 -34.5t-101 -53t-75 -67t-30.5 -75.5zM699 821q9 -27 -2 -40t-38 -11q-21 2 -32.5 18t2.5 43q6 12 16 16t20.5 2.5t20 -9t13.5 -19.5zM810 821q9 -27 -2 -40t-38 -11q-21 2 -32.5 18t2.5 43q6 12 16 16t20.5 2.5t20 -9t13.5 -19.5z" />
    <glyph glyph-name="Yacute" unicode="&#xdd;" horiz-adv-x="824" 
d="M384 531q-24 -57 -64.5 -102t-87.5 -70.5t-95.5 -29t-87.5 21.5q-31 20 -44.5 43.5t-18.5 50.5q-9 53 20 98t82 80t123.5 59.5t144.5 36.5q4 35 2.5 65t-7 49.5t-14 27t-18.5 -1.5q-9 -8 -12 -6.5t-10 13.5q-1 9 2 16q2 6 7.5 9.5t16.5 1.5q45 -11 70 -57.5t29 -106.5
q16 0 36 0.5t37 -0.5q12 18 28.5 30t36.5 13q30 1 44 -13t12.5 -30.5t-17.5 -30t-44 -11.5q-5 0 -14 -1.5t-14 -0.5q-13 -63 -13 -117.5t7.5 -96t20.5 -67t28 -30.5q18 -6 32.5 6t26 35.5t19.5 55.5t13.5 66.5t7.5 68t2 59.5q-1 -1 9.5 2t24 5t26 1.5t14.5 -8.5
q11 -40 15 -88.5t3.5 -98t-4.5 -96t-10 -81.5l86 4v-27q-12 -2 -27 -5q-13 -2 -30.5 -5t-37.5 -5q-18 -65 -45.5 -114t-60.5 -82.5t-68.5 -50.5t-69.5 -18q-39 -1 -76.5 16t-58.5 44.5t-18 63t46 71.5q24 20 54.5 35.5t64 26.5t67.5 19t66 13q12 28 22.5 65.5t16.5 79.5
q-19 -65 -54 -98t-70 -35q-46 -3 -73.5 18.5t-40.5 58t-14.5 81.5t4.5 89.5t17.5 82.5t23.5 60h-26.5t-23.5 -1q-1 -15 -5 -35.5t-9.5 -42.5t-12 -42.5t-12.5 -36.5zM34 450q-2 -23 8 -40.5t31 -23.5q23 -7 47 -1t47 20.5t45 35.5t41 44t34 45.5t24 40.5q27 55 38 109
q-53 -12 -108.5 -34.5t-101 -53t-75 -67t-30.5 -75.5zM433 104q13 1 37 7t51.5 22t55.5 43.5t50 70.5q-62 -13 -109.5 -37.5t-75 -48.5t-31.5 -41.5t22 -15.5zM760 944l9.5 -9.5t17 -23.5t8.5 -29.5t-14 -26.5q-21 -17 -50.5 -30.5t-56.5 -24.5q-32 -12 -64 -23q-7 6 -11 12
q-4 5 -5 12t4 14q3 4 16.5 15.5t31.5 26t38 30t36.5 28t28 21z" />
    <glyph glyph-name="agrave" unicode="&#xe0;" horiz-adv-x="333" 
d="M196 418l8 2t19.5 2.5t22.5 -2t16 -11.5q2 -6 2 -23.5t-1.5 -40t-2.5 -47.5t-0.5 -46t4 -35.5t11.5 -15.5q11 -2 22 13t19 34q10 22 18 50q1 -1 4 -2q2 -1 4.5 -2.5t7.5 -3.5q0 -15 -6 -41t-18.5 -50.5t-34 -43t-52.5 -18.5q-15 0 -28 8t-22 21t-14 27.5t-4 28.5
q-17 -35 -42 -59t-59 -24q-30 0 -50.5 20.5t-27 52.5t2 72t36.5 79q15 21 33.5 32.5t36.5 15.5t34 0.5t25 -13.5t14.5 -19.5t7.5 -16.5t3 -10t1 0q2 15 3.5 27.5t3.5 20.5q2 10 3 18zM135 374q-10 1 -20.5 -11t-19 -31t-14 -41.5t-6 -42t5.5 -32.5t21 -13q17 -1 32 19.5
t27 49.5q3 10 3.5 26.5t-2 33t-9 28.5t-18.5 14zM109 669l11.5 -8.5t28 -21t36.5 -28t38 -30t31.5 -26t16.5 -15.5q5 -7 4 -14t-5 -12q-4 -6 -11 -12q-33 11 -65 23q-27 11 -56 24.5t-50 30.5q-15 11 -14 26.5t8.5 29.5t17 23.5z" />
    <glyph glyph-name="aacute" unicode="&#xe1;" horiz-adv-x="333" 
d="M196 418l8 2t19.5 2.5t22.5 -2t16 -11.5q2 -6 2 -23.5t-1.5 -40t-2.5 -47.5t-0.5 -46t4 -35.5t11.5 -15.5q11 -2 22 13t19 34q10 22 18 50q1 -1 4 -2q2 -1 4.5 -2.5t7.5 -3.5q0 -15 -6 -41t-18.5 -50.5t-34 -43t-52.5 -18.5q-15 0 -28 8t-22 21t-14 27.5t-4 28.5
q-17 -35 -42 -59t-59 -24q-30 0 -50.5 20.5t-27 52.5t2 72t36.5 79q15 21 33.5 32.5t36.5 15.5t34 0.5t25 -13.5t14.5 -19.5t7.5 -16.5t3 -10t1 0q2 15 3.5 27.5t3.5 20.5q2 10 3 18zM135 374q-10 1 -20.5 -11t-19 -31t-14 -41.5t-6 -42t5.5 -32.5t21 -13q17 -1 32 19.5
t27 49.5q3 10 3.5 26.5t-2 33t-9 28.5t-18.5 14zM223 669l9.5 -9.5t17 -23.5t8.5 -29.5t-14 -26.5q-21 -17 -50.5 -30.5t-56.5 -24.5q-32 -12 -64 -23q-7 6 -11 12q-4 5 -5 12t4 14q3 4 16.5 15.5t31.5 26t38 30t37 28t28 21z" />
    <glyph glyph-name="acircumflex" unicode="&#xe2;" horiz-adv-x="333" 
d="M196 418l8 2t19.5 2.5t22.5 -2t16 -11.5q2 -6 2 -23.5t-1.5 -40t-2.5 -47.5t-0.5 -46t4 -35.5t11.5 -15.5q11 -2 22 13t19 34q10 22 18 50q1 -1 4 -2q2 -1 4.5 -2.5t7.5 -3.5q0 -15 -6 -41t-18.5 -50.5t-34 -43t-52.5 -18.5q-15 0 -28 8t-22 21t-14 27.5t-4 28.5
q-17 -35 -42 -59t-59 -24q-30 0 -50.5 20.5t-27 52.5t2 72t36.5 79q15 21 33.5 32.5t36.5 15.5t34 0.5t25 -13.5t14.5 -19.5t7.5 -16.5t3 -10t1 0q2 15 3.5 27.5t3.5 20.5q2 10 3 18zM135 374q-10 1 -20.5 -11t-19 -31t-14 -41.5t-6 -42t5.5 -32.5t21 -13q17 -1 32 19.5
t27 49.5q3 10 3.5 26.5t-2 33t-9 28.5t-18.5 14zM252 531l-2.5 -3.5t-7 -7.5t-11.5 -6t-17 0q-14 3 -23 12t-15 18.5t-8.5 17t-3.5 6.5q-4 -15 -11 -27q-6 -11 -15 -20t-22 -12q-13 -2 -20 0t-10.5 5t-3.5 5.5v2.5q11 5 20.5 17t17.5 25.5t14 27t11 21.5t11 11t12 3
q7 0 15 -2q1 -17 8.5 -32t18 -27.5t22 -21.5t20.5 -13z" />
    <glyph glyph-name="atilde" unicode="&#xe3;" horiz-adv-x="333" 
d="M196 418l8 2t19.5 2.5t22.5 -2t16 -11.5q2 -6 2 -23.5t-1.5 -40t-2.5 -47.5t-0.5 -46t4 -35.5t11.5 -15.5q11 -2 22 13t19 34q10 22 18 50q1 -1 4 -2q2 -1 4.5 -2.5t7.5 -3.5q0 -15 -6 -41t-18.5 -50.5t-34 -43t-52.5 -18.5q-15 0 -28 8t-22 21t-14 27.5t-4 28.5
q-17 -35 -42 -59t-59 -24q-30 0 -50.5 20.5t-27 52.5t2 72t36.5 79q15 21 33.5 32.5t36.5 15.5t34 0.5t25 -13.5t14.5 -19.5t7.5 -16.5t3 -10t1 0q2 15 3.5 27.5t3.5 20.5q2 10 3 18zM135 374q-10 1 -20.5 -11t-19 -31t-14 -41.5t-6 -42t5.5 -32.5t21 -13q17 -1 32 19.5
t27 49.5q3 10 3.5 26.5t-2 33t-9 28.5t-18.5 14zM102 595q19 -2 38 -9.5t36 -15.5q9 -4 20.5 -9t23 -8.5t21 -4.5t15.5 2t7.5 9t2.5 11.5t3.5 9t11.5 2.5q12 -2 13.5 -15t-7.5 -27.5t-28 -25.5t-48 -9q-27 2 -47 13t-35.5 22.5t-27.5 18.5t-22 1q-9 -5 -10.5 -10t0 -9.5
t3.5 -9.5t0 -10t-9 -10.5t-19 -0.5q-9 3 -10 17t6 29.5t22.5 27.5t39.5 11z" />
    <glyph glyph-name="adieresis" unicode="&#xe4;" horiz-adv-x="333" 
d="M196 418l8 2t19.5 2.5t22.5 -2t16 -11.5q2 -6 2 -23.5t-1.5 -40t-2.5 -47.5t-0.5 -46t4 -35.5t11.5 -15.5q11 -2 22 13t19 34q10 22 18 50q1 -1 4 -2q2 -1 4.5 -2.5t7.5 -3.5q0 -15 -6 -41t-18.5 -50.5t-34 -43t-52.5 -18.5q-15 0 -28 8t-22 21t-14 27.5t-4 28.5
q-17 -35 -42 -59t-59 -24q-30 0 -50.5 20.5t-27 52.5t2 72t36.5 79q15 21 33.5 32.5t36.5 15.5t34 0.5t25 -13.5t14.5 -19.5t7.5 -16.5t3 -10t1 0q2 15 3.5 27.5t3.5 20.5q2 10 3 18zM135 374q-10 1 -20.5 -11t-19 -31t-14 -41.5t-6 -42t5.5 -32.5t21 -13q17 -1 32 19.5
t27 49.5q3 10 3.5 26.5t-2 33t-9 28.5t-18.5 14zM149 559q9 -27 -2 -40t-38 -11q-21 2 -32.5 18t2.5 43q6 12 16 16t20.5 2.5t20 -9t13.5 -19.5zM260 559q9 -27 -2 -40t-38 -11q-21 2 -32.5 18t2.5 43q6 12 16 16t20.5 2.5t20 -9t13.5 -19.5z" />
    <glyph glyph-name="aring" unicode="&#xe5;" horiz-adv-x="333" 
d="M196 418l8 2t19.5 2.5t22.5 -2t16 -11.5q2 -6 2 -23.5t-1.5 -40t-2.5 -47.5t-0.5 -46t4 -35.5t11.5 -15.5q11 -2 22 13t19 34q10 22 18 50q1 -1 4 -2q2 -1 4.5 -2.5t7.5 -3.5q0 -15 -6 -41t-18.5 -50.5t-34 -43t-52.5 -18.5q-15 0 -28 8t-22 21t-14 27.5t-4 28.5
q-17 -35 -42 -59t-59 -24q-30 0 -50.5 20.5t-27 52.5t2 72t36.5 79q15 21 33.5 32.5t36.5 15.5t34 0.5t25 -13.5t14.5 -19.5t7.5 -16.5t3 -10t1 0q2 15 3.5 27.5t3.5 20.5q2 10 3 18zM135 374q-10 1 -20.5 -11t-19 -31t-14 -41.5t-6 -42t5.5 -32.5t21 -13q17 -1 32 19.5
t27 49.5q3 10 3.5 26.5t-2 33t-9 28.5t-18.5 14zM94 574q4 33 27.5 52t50.5 19t48.5 -19t15.5 -57q-5 -27 -27.5 -41.5t-49.5 -14.5t-48 16t-17 45zM139 575q-1 -11 5.5 -23t24.5 -12q11 0 20 13.5t7 32.5q-1 14 -6.5 23.5t-16.5 9.5t-21.5 -11.5t-12.5 -32.5z" />
    <glyph glyph-name="ae" unicode="&#xe6;" horiz-adv-x="389" 
d="M333 326q-13 -12 -29.5 -19t-34.5 -12q-2 -19 -2 -36.5t4 -30.5t12.5 -20.5t23.5 -6.5q19 2 34.5 17t26.5 33q13 21 23 47q1 -1 4 -2q4 -1 14 -7q4 -4 -2 -28t-22.5 -51t-43 -49t-62.5 -20q-23 -2 -43 5.5t-35 20t-23 27.5t-7 28q-17 -35 -42 -59t-59 -24
q-30 0 -50.5 20.5t-27 52.5t2 72t36.5 79q15 21 33.5 32.5t36.5 15.5t34 0.5t25 -13.5t14.5 -19.5t7.5 -16.5t3 -10t1 0q2 15 3.5 27.5t3.5 20.5q2 10 3 18l6.5 1.5t16.5 2.5t20 0t17 -7q26 21 53.5 23.5t47.5 -17.5q14 -14 14.5 -29t-6 -28t-16.5 -23.5t-16 -14.5zM135 374
q-10 1 -20.5 -11t-19 -31t-14 -41.5t-6 -42t5.5 -32.5t21 -13q17 -1 32 19.5t27 49.5q3 10 3.5 26.5t-2 33t-9 28.5t-18.5 14zM320 404q-12 3 -23.5 -19.5t-20.5 -58.5q18 6 31 18.5t19.5 25t5 22.5t-11.5 12z" />
    <glyph glyph-name="ccedilla" unicode="&#xe7;" horiz-adv-x="215" 
d="M123 129q8 -4 13 -10q5 -5 7.5 -13.5t0.5 -20.5t-11 -18t-19.5 -7.5t-20.5 0.5t-15 6t-6 8.5t0 7.5q1 4 3 7q6 -4 13 -7q6 -2 14 -2.5t16 4.5q8 4 6.5 8.5t-7.5 8.5t-13.5 7t-10.5 3q-4 0 -4.5 10.5t1.5 21.5q-1 0 -1.5 0.5t-1.5 0.5q-30 4 -51.5 20.5t-32 42.5
t-8.5 59.5t19 72.5q22 50 55.5 75t59.5 28q14 2 25 -2.5t13 -18.5q1 -8 -2 -10.5t-8 -2.5t-9.5 2t-6.5 4q-13 -7 -23.5 -25.5t-18 -42t-11 -49t-1.5 -47t10 -35.5t23 -14q19 0 36 15t31 33q16 21 30 49q2 1 5 1q2 -1 5 -3t6 -7q1 -4 -5 -24.5t-20 -44.5t-35 -46t-49 -29z
" />
    <glyph glyph-name="egrave" unicode="&#xe8;" horiz-adv-x="201" 
d="M144 326q-13 -12 -29.5 -19t-34.5 -12q-2 -19 -2 -36.5t4 -30.5t12.5 -20.5t23.5 -6.5q19 2 34.5 17t26.5 33q13 21 23 47q1 -1 4 -2q4 -1 14 -7q3 -3 1 -15.5t-9 -30t-19 -36.5t-28 -34.5t-37.5 -24t-46.5 -4.5q-29 4 -49.5 21.5t-30 44.5t-6.5 62t20 74
q15 31 34.5 52.5t40.5 31.5t41.5 8t36.5 -17q14 -14 14.5 -29t-6 -28t-16.5 -23.5t-16 -14.5zM131 404q-12 3 -23.5 -19.5t-20.5 -58.5q18 6 31 18.5t19.5 25t5 22.5t-11.5 12zM44 669l11.5 -8.5t28 -21t36.5 -28t38 -30t31.5 -26t16.5 -15.5q5 -7 4 -14t-5 -12
q-4 -6 -11 -12q-33 11 -65 23q-27 11 -56 24.5t-50 30.5q-15 11 -14 26.5t8.5 29.5t17 23.5z" />
    <glyph glyph-name="eacute" unicode="&#xe9;" horiz-adv-x="201" 
d="M144 326q-13 -12 -29.5 -19t-34.5 -12q-2 -19 -2 -36.5t4 -30.5t12.5 -20.5t23.5 -6.5q19 2 34.5 17t26.5 33q13 21 23 47q1 -1 4 -2q4 -1 14 -7q3 -3 1 -15.5t-9 -30t-19 -36.5t-28 -34.5t-37.5 -24t-46.5 -4.5q-29 4 -49.5 21.5t-30 44.5t-6.5 62t20 74
q15 31 34.5 52.5t40.5 31.5t41.5 8t36.5 -17q14 -14 14.5 -29t-6 -28t-16.5 -23.5t-16 -14.5zM131 404q-12 3 -23.5 -19.5t-20.5 -58.5q18 6 31 18.5t19.5 25t5 22.5t-11.5 12zM158 669l9.5 -9.5t17 -23.5t8.5 -29.5t-14 -26.5q-21 -17 -50.5 -30.5t-56.5 -24.5
q-32 -12 -64 -23q-7 6 -11 12q-4 5 -5 12t4 14q3 4 16.5 15.5t31.5 26t38 30t36.5 28t28 21z" />
    <glyph glyph-name="ecircumflex" unicode="&#xea;" horiz-adv-x="201" 
d="M144 326q-13 -12 -29.5 -19t-34.5 -12q-2 -19 -2 -36.5t4 -30.5t12.5 -20.5t23.5 -6.5q19 2 34.5 17t26.5 33q13 21 23 47q1 -1 4 -2q4 -1 14 -7q3 -3 1 -15.5t-9 -30t-19 -36.5t-28 -34.5t-37.5 -24t-46.5 -4.5q-29 4 -49.5 21.5t-30 44.5t-6.5 62t20 74
q15 31 34.5 52.5t40.5 31.5t41.5 8t36.5 -17q14 -14 14.5 -29t-6 -28t-16.5 -23.5t-16 -14.5zM131 404q-12 3 -23.5 -19.5t-20.5 -58.5q18 6 31 18.5t19.5 25t5 22.5t-11.5 12zM186 531l-2.5 -3.5t-7 -7.5t-11.5 -6t-17 0q-14 3 -23 12t-15 18.5t-8.5 17t-3.5 6.5
q-4 -15 -11 -27q-6 -11 -15 -20t-22 -12q-13 -2 -20 0t-10.5 5t-3.5 5.5v2.5q11 5 20.5 17t17.5 25.5t14 27t11 21.5t11 11t12 3q7 0 15 -2q1 -17 8.5 -32t18 -27.5t22 -21.5t20.5 -13z" />
    <glyph glyph-name="edieresis" unicode="&#xeb;" horiz-adv-x="201" 
d="M144 326q-13 -12 -29.5 -19t-34.5 -12q-2 -19 -2 -36.5t4 -30.5t12.5 -20.5t23.5 -6.5q19 2 34.5 17t26.5 33q13 21 23 47q1 -1 4 -2q4 -1 14 -7q3 -3 1 -15.5t-9 -30t-19 -36.5t-28 -34.5t-37.5 -24t-46.5 -4.5q-29 4 -49.5 21.5t-30 44.5t-6.5 62t20 74
q15 31 34.5 52.5t40.5 31.5t41.5 8t36.5 -17q14 -14 14.5 -29t-6 -28t-16.5 -23.5t-16 -14.5zM131 404q-12 3 -23.5 -19.5t-20.5 -58.5q18 6 31 18.5t19.5 25t5 22.5t-11.5 12zM83 559q9 -27 -2 -40t-38 -11q-21 2 -32.5 18t2.5 43q6 12 16 16t20.5 2.5t20 -9t13.5 -19.5z
M194 559q9 -27 -2 -40t-38 -11q-21 2 -32.5 18t2.5 43q6 12 16 16t20.5 2.5t20 -9t13.5 -19.5z" />
    <glyph glyph-name="igrave" unicode="&#xec;" horiz-adv-x="155" 
d="M4 358l10 2t23 3t25.5 -1.5t17.5 -11.5q4 -9 2.5 -33t-2 -49t2.5 -45t15 -22q11 -2 22 13t19 34q10 22 18 50q1 -1 4 -2q2 -1 4.5 -2.5t7.5 -3.5q0 -15 -6.5 -41.5t-20 -52t-35.5 -42.5t-53 -14q-22 2 -35 11.5t-20 22.5t-8.5 28.5t0.5 30.5q1 16 2.5 37.5t3.5 41.5
q2 23 3 46zM21 669l11.5 -8.5t28 -21t36.5 -28t38 -30t31.5 -26t16.5 -15.5q5 -7 4 -14t-5 -12q-4 -6 -11 -12q-33 11 -65 23q-27 11 -56 24.5t-50 30.5q-15 11 -14 26.5t8.5 29.5t17 23.5z" />
    <glyph glyph-name="iacute" unicode="&#xed;" horiz-adv-x="155" 
d="M4 358l10 2t23 3t25.5 -1.5t17.5 -11.5q4 -9 2.5 -33t-2 -49t2.5 -45t15 -22q11 -2 22 13t19 34q10 22 18 50q1 -1 4 -2q2 -1 4.5 -2.5t7.5 -3.5q0 -15 -6.5 -41.5t-20 -52t-35.5 -42.5t-53 -14q-22 2 -35 11.5t-20 22.5t-8.5 28.5t0.5 30.5q1 16 2.5 37.5t3.5 41.5
q2 23 3 46zM135 669l9.5 -9.5t17 -23.5t8.5 -29.5t-14 -26.5q-21 -17 -50.5 -30.5t-56.5 -24.5q-32 -12 -64 -23q-7 6 -11 12q-4 5 -5 12t4 14q3 4 16.5 15.5t31.5 26t38 30t36.5 28t28 21z" />
    <glyph glyph-name="icircumflex" unicode="&#xee;" horiz-adv-x="155" 
d="M4 358l10 2t23 3t25.5 -1.5t17.5 -11.5q4 -9 2.5 -33t-2 -49t2.5 -45t15 -22q11 -2 22 13t19 34q10 22 18 50q1 -1 4 -2q2 -1 4.5 -2.5t7.5 -3.5q0 -15 -6.5 -41.5t-20 -52t-35.5 -42.5t-53 -14q-22 2 -35 11.5t-20 22.5t-8.5 28.5t0.5 30.5q1 16 2.5 37.5t3.5 41.5
q2 23 3 46zM163 531l-2.5 -3.5t-7 -7.5t-11.5 -6t-17 0q-14 3 -23 12t-15 18.5t-8.5 17t-3.5 6.5q-4 -15 -11 -27q-6 -11 -15 -20t-22 -12q-13 -2 -20 0t-10.5 5t-3.5 5.5v2.5q11 5 20.5 17t17.5 25.5t14 27t11 21.5t11 11t12 3q7 0 15 -2q1 -17 8.5 -32t18 -27.5t22 -21.5
t20.5 -13z" />
    <glyph glyph-name="idieresis" unicode="&#xef;" horiz-adv-x="155" 
d="M4 358l10 2t23 3t25.5 -1.5t17.5 -11.5q4 -9 2.5 -33t-2 -49t2.5 -45t15 -22q11 -2 22 13t19 34q10 22 18 50q1 -1 4 -2q2 -1 4.5 -2.5t7.5 -3.5q0 -15 -6.5 -41.5t-20 -52t-35.5 -42.5t-53 -14q-22 2 -35 11.5t-20 22.5t-8.5 28.5t0.5 30.5q1 16 2.5 37.5t3.5 41.5
q2 23 3 46zM60 559q9 -27 -2 -40t-38 -11q-21 2 -32.5 18t2.5 43q6 12 16 16t20.5 2.5t20 -9t13.5 -19.5zM171 559q9 -27 -2 -40t-38 -11q-21 2 -32.5 18t2.5 43q6 12 16 16t20.5 2.5t20 -9t13.5 -19.5z" />
    <glyph glyph-name="ntilde" unicode="&#xf1;" horiz-adv-x="288" 
d="M7 375l8 2.5t19.5 2t22 -6t14.5 -20.5q3 -11 3 -30.5t-1 -41.5q7 27 18 57.5t27 54t37 36t47 3.5q18 -3 27.5 -20.5t13 -42t4 -52.5t0 -52t0.5 -41t6 -19q9 -3 18.5 11.5t17.5 33t13.5 34l5.5 15.5q1 -1 3 -1t3 -0.5t3 -0.5l8 -2q-9 -41 -21 -74q-11 -29 -27 -53t-39 -27
q-23 -4 -39 2.5t-26.5 21.5t-14 37.5t-0.5 50.5q2 25 5 46.5t5 38t2.5 26t-2.5 10.5q-10 3 -21.5 -18.5t-22.5 -52t-20 -63t-13 -50.5l-5 -14q-6 -17 -12.5 -24t-19.5 -9q-17 -5 -31.5 5t-22.5 30q-7 19 -6.5 52t3.5 65.5t6.5 56zM80 595q19 -2 38 -9.5t36 -15.5
q9 -4 20.5 -9t23 -8.5t21 -4.5t15.5 2t7.5 9t2.5 11.5t3.5 9t11.5 2.5q12 -2 13.5 -15t-7.5 -27.5t-28 -25.5t-48 -9q-27 2 -47 13t-35.5 22.5t-27.5 18.5t-22 1q-9 -5 -10.5 -10t0 -9.5t3.5 -9.5t0 -10t-9 -10.5t-19 -0.5q-9 3 -10 17t6 29.5t22.5 27.5t39.5 11z" />
    <glyph glyph-name="ograve" unicode="&#xf2;" horiz-adv-x="287" 
d="M220 387q17 -29 21.5 -68t-6.5 -76q3 0 5 1q14 3 22.5 12t14.5 18q6 11 11 24l19 -15q-4 -19 -13 -35q-8 -14 -20 -26.5t-32 -17.5q-11 -3 -23 -1q-19 -30 -49 -48.5t-73 -10.5q-46 8 -68 35t-28 60t0 65t17 50q7 20 28.5 44t50.5 36t61.5 4t61.5 -51zM87 294
q-1 -35 10.5 -60t34.5 -27q18 -2 28 4.5t18 18.5q-9 14 -12 31t3 34q4 13 13 22t15 11q3 28 -10.5 47.5t-33.5 24.5t-33 -6.5t-20 -30t-10 -38t-3 -31.5zM86 669l11.5 -8.5t28 -21t36.5 -28t38 -30t31.5 -26t16.5 -15.5q5 -7 4 -14t-5 -12q-4 -6 -11 -12q-33 11 -65 23
q-27 11 -56 24.5t-50 30.5q-15 11 -14 26.5t8.5 29.5t17 23.5z" />
    <glyph glyph-name="oacute" unicode="&#xf3;" horiz-adv-x="287" 
d="M220 387q17 -29 21.5 -68t-6.5 -76q3 0 5 1q14 3 22.5 12t14.5 18q6 11 11 24l19 -15q-4 -19 -13 -35q-8 -14 -20 -26.5t-32 -17.5q-11 -3 -23 -1q-19 -30 -49 -48.5t-73 -10.5q-46 8 -68 35t-28 60t0 65t17 50q7 20 28.5 44t50.5 36t61.5 4t61.5 -51zM87 294
q-1 -35 10.5 -60t34.5 -27q18 -2 28 4.5t18 18.5q-9 14 -12 31t3 34q4 13 13 22t15 11q3 28 -10.5 47.5t-33.5 24.5t-33 -6.5t-20 -30t-10 -38t-3 -31.5zM201 669l9.5 -9.5t17 -23.5t8.5 -29.5t-14 -26.5q-21 -17 -50.5 -30.5t-56.5 -24.5q-32 -12 -64 -23q-7 6 -11 12
q-4 5 -5 12t4 14q3 4 16.5 15.5t31.5 26t38 30t37 28t28 21z" />
    <glyph glyph-name="ocircumflex" unicode="&#xf4;" horiz-adv-x="287" 
d="M220 387q17 -29 21.5 -68t-6.5 -76q3 0 5 1q14 3 22.5 12t14.5 18q6 11 11 24l19 -15q-4 -19 -13 -35q-8 -14 -20 -26.5t-32 -17.5q-11 -3 -23 -1q-19 -30 -49 -48.5t-73 -10.5q-46 8 -68 35t-28 60t0 65t17 50q7 20 28.5 44t50.5 36t61.5 4t61.5 -51zM87 294
q-1 -35 10.5 -60t34.5 -27q18 -2 28 4.5t18 18.5q-9 14 -12 31t3 34q4 13 13 22t15 11q3 28 -10.5 47.5t-33.5 24.5t-33 -6.5t-20 -30t-10 -38t-3 -31.5zM229 531l-2.5 -3.5t-7 -7.5t-11.5 -6t-17 0q-14 3 -23 12t-15 18.5t-8.5 17t-3.5 6.5q-4 -15 -11 -27q-6 -11 -15 -20
t-22 -12q-13 -2 -20 0t-10.5 5t-3.5 5.5v2.5q11 5 20.5 17t17.5 25.5t14 27t11 21.5t11 11t12 3q7 0 15 -2q1 -17 8.5 -32t18 -27.5t22 -21.5t20.5 -13z" />
    <glyph glyph-name="otilde" unicode="&#xf5;" horiz-adv-x="287" 
d="M220 387q17 -29 21.5 -68t-6.5 -76q3 0 5 1q14 3 22.5 12t14.5 18q6 11 11 24l19 -15q-4 -19 -13 -35q-8 -14 -20 -26.5t-32 -17.5q-11 -3 -23 -1q-19 -30 -49 -48.5t-73 -10.5q-46 8 -68 35t-28 60t0 65t17 50q7 20 28.5 44t50.5 36t61.5 4t61.5 -51zM87 294
q-1 -35 10.5 -60t34.5 -27q18 -2 28 4.5t18 18.5q-9 14 -12 31t3 34q4 13 13 22t15 11q3 28 -10.5 47.5t-33.5 24.5t-33 -6.5t-20 -30t-10 -38t-3 -31.5zM79 595q19 -2 38 -9.5t36 -15.5q9 -4 20.5 -9t23 -8.5t21 -4.5t15.5 2t7.5 9t2.5 11.5t3.5 9t11.5 2.5q12 -2 13.5 -15
t-7.5 -27.5t-28 -25.5t-48 -9q-27 2 -47 13t-35.5 22.5t-27.5 18.5t-22 1q-9 -5 -10.5 -10t0 -9.5t3.5 -9.5t0 -10t-9 -10.5t-19 -0.5q-9 3 -10 17t6 29.5t22.5 27.5t39.5 11z" />
    <glyph glyph-name="odieresis" unicode="&#xf6;" horiz-adv-x="287" 
d="M220 387q17 -29 21.5 -68t-6.5 -76q3 0 5 1q14 3 22.5 12t14.5 18q6 11 11 24l19 -15q-4 -19 -13 -35q-8 -14 -20 -26.5t-32 -17.5q-11 -3 -23 -1q-19 -30 -49 -48.5t-73 -10.5q-46 8 -68 35t-28 60t0 65t17 50q7 20 28.5 44t50.5 36t61.5 4t61.5 -51zM87 294
q-1 -35 10.5 -60t34.5 -27q18 -2 28 4.5t18 18.5q-9 14 -12 31t3 34q4 13 13 22t15 11q3 28 -10.5 47.5t-33.5 24.5t-33 -6.5t-20 -30t-10 -38t-3 -31.5zM126 559q9 -27 -2 -40t-38 -11q-21 2 -32.5 18t2.5 43q6 12 16 16t20.5 2.5t20 -9t13.5 -19.5zM237 559q9 -27 -2 -40
t-38 -11q-21 2 -32.5 18t2.5 43q6 12 16 16t20.5 2.5t20 -9t13.5 -19.5z" />
    <glyph glyph-name="ugrave" unicode="&#xf9;" horiz-adv-x="294" 
d="M165 438l7.5 1.5t18 2t20.5 -2.5t15 -12q2 -6 1.5 -25t-2 -44t-3.5 -52.5t-2 -50.5t3.5 -39t11.5 -17q11 -2 22 14t20 36q10 23 19 53q1 -1 4 -2q2 -1 4.5 -2.5t7.5 -3.5q-2 -12 -8.5 -38.5t-19.5 -53.5t-33.5 -46t-50.5 -16q-20 2 -32.5 10t-19.5 19t-9.5 24.5
t-2.5 27.5q-14 -35 -33 -59.5t-45 -21.5q-22 2 -35 11.5t-20 22.5t-8.5 28.5t0.5 30.5q1 16 3 43.5t4 53.5q3 31 5 65l8.5 2t20 2.5t23 -2t16.5 -11.5q2 -6 2 -22t-1.5 -36t-3 -41.5t-1 -40t4 -31.5t11.5 -14q10 -2 20.5 20.5t20.5 52.5t17.5 60.5t10.5 44.5q2 12 3 23t3 19
q2 10 3 17zM90 669l11.5 -8.5t28 -21t36.5 -28t38 -30t31.5 -26t16.5 -15.5q5 -7 4 -14t-5 -12q-4 -6 -11 -12q-33 11 -65 23q-27 11 -56 24.5t-50 30.5q-15 11 -14 26.5t8.5 29.5t17 23.5z" />
    <glyph glyph-name="oslash" unicode="&#xf8;" horiz-adv-x="287" 
d="M220 387q17 -29 21.5 -68t-6.5 -76q3 0 5 1q14 3 22.5 12t14.5 18q6 11 11 24l19 -15q-4 -19 -13 -35q-8 -14 -20 -26.5t-32 -17.5q-11 -3 -23 -1q-19 -30 -49 -48.5t-73 -10.5q-1 0 -2 0.5t-2 0.5q-14 -38 -24 -78q-7 -1 -13 2q-5 2 -11 8t-10 20q-2 5 3 22t14 41
q-27 16 -39.5 42.5t-14 55t4.5 54.5t15 42q5 16 20.5 35t37 33t46.5 18.5t51 -8.5q8 17 14.5 31t11.5 25l11 22l4 -1.5t9 -4.5t10.5 -9t7.5 -15t-6.5 -29.5t-24.5 -50.5q2 -3 5 -6t5 -7zM87 294q-1 -11 0.5 -21t3.5 -19q16 36 33 73.5t33 71.5q-3 0 -4 1q-20 5 -33 -6.5
t-20 -30t-10 -38t-3 -31.5zM118 211q8 -4 14 -4q18 -2 28 4.5t18 18.5q-9 14 -12 31t3 34q4 13 13 22t15 11q1 19 -5 37q-17 -32 -36 -70.5t-38 -83.5z" />
    <glyph glyph-name="uacute" unicode="&#xfa;" horiz-adv-x="294" 
d="M165 438l7.5 1.5t18 2t20.5 -2.5t15 -12q2 -6 1.5 -25t-2 -44t-3.5 -52.5t-2 -50.5t3.5 -39t11.5 -17q11 -2 22 14t20 36q10 23 19 53q1 -1 4 -2q2 -1 4.5 -2.5t7.5 -3.5q-2 -12 -8.5 -38.5t-19.5 -53.5t-33.5 -46t-50.5 -16q-20 2 -32.5 10t-19.5 19t-9.5 24.5
t-2.5 27.5q-14 -35 -33 -59.5t-45 -21.5q-22 2 -35 11.5t-20 22.5t-8.5 28.5t0.5 30.5q1 16 3 43.5t4 53.5q3 31 5 65l8.5 2t20 2.5t23 -2t16.5 -11.5q2 -6 2 -22t-1.5 -36t-3 -41.5t-1 -40t4 -31.5t11.5 -14q10 -2 20.5 20.5t20.5 52.5t17.5 60.5t10.5 44.5q2 12 3 23t3 19
q2 10 3 17zM204 669l9.5 -9.5t17 -23.5t8.5 -29.5t-14 -26.5q-21 -17 -50.5 -30.5t-56.5 -24.5q-32 -12 -64 -23q-7 6 -11 12q-4 5 -5 12t4 14q3 4 16.5 15.5t31.5 26t38 30t37 28t28 21z" />
    <glyph glyph-name="ucircumflex" unicode="&#xfb;" horiz-adv-x="294" 
d="M165 438l7.5 1.5t18 2t20.5 -2.5t15 -12q2 -6 1.5 -25t-2 -44t-3.5 -52.5t-2 -50.5t3.5 -39t11.5 -17q11 -2 22 14t20 36q10 23 19 53q1 -1 4 -2q2 -1 4.5 -2.5t7.5 -3.5q-2 -12 -8.5 -38.5t-19.5 -53.5t-33.5 -46t-50.5 -16q-20 2 -32.5 10t-19.5 19t-9.5 24.5
t-2.5 27.5q-14 -35 -33 -59.5t-45 -21.5q-22 2 -35 11.5t-20 22.5t-8.5 28.5t0.5 30.5q1 16 3 43.5t4 53.5q3 31 5 65l8.5 2t20 2.5t23 -2t16.5 -11.5q2 -6 2 -22t-1.5 -36t-3 -41.5t-1 -40t4 -31.5t11.5 -14q10 -2 20.5 20.5t20.5 52.5t17.5 60.5t10.5 44.5q2 12 3 23t3 19
q2 10 3 17zM232 531l-2.5 -3.5t-7 -7.5t-11.5 -6t-17 0q-14 3 -23 12t-15 18.5t-8.5 17t-3.5 6.5q-4 -15 -11 -27q-6 -11 -15 -20t-22 -12q-13 -2 -20 0t-10.5 5t-3.5 5.5v2.5q11 5 20.5 17t17.5 25.5t14 27t11 21.5t11 11t12 3q7 0 15 -2q1 -17 8.5 -32t18 -27.5t22 -21.5
t20.5 -13z" />
    <glyph glyph-name="udieresis" unicode="&#xfc;" horiz-adv-x="294" 
d="M165 438l7.5 1.5t18 2t20.5 -2.5t15 -12q2 -6 1.5 -25t-2 -44t-3.5 -52.5t-2 -50.5t3.5 -39t11.5 -17q11 -2 22 14t20 36q10 23 19 53q1 -1 4 -2q2 -1 4.5 -2.5t7.5 -3.5q-2 -12 -8.5 -38.5t-19.5 -53.5t-33.5 -46t-50.5 -16q-20 2 -32.5 10t-19.5 19t-9.5 24.5
t-2.5 27.5q-14 -35 -33 -59.5t-45 -21.5q-22 2 -35 11.5t-20 22.5t-8.5 28.5t0.5 30.5q1 16 3 43.5t4 53.5q3 31 5 65l8.5 2t20 2.5t23 -2t16.5 -11.5q2 -6 2 -22t-1.5 -36t-3 -41.5t-1 -40t4 -31.5t11.5 -14q10 -2 20.5 20.5t20.5 52.5t17.5 60.5t10.5 44.5q2 12 3 23t3 19
q2 10 3 17zM129 559q9 -27 -2 -40t-38 -11q-21 2 -32.5 18t2.5 43q6 12 16 16t20.5 2.5t20 -9t13.5 -19.5zM240 559q9 -27 -2 -40t-38 -11q-21 2 -32.5 18t2.5 43q6 12 16 16t20.5 2.5t20 -9t13.5 -19.5z" />
    <glyph glyph-name="yacute" unicode="&#xfd;" horiz-adv-x="295" 
d="M10 359l6.5 2t15.5 2.5t18.5 -2t14.5 -11.5q4 -9 2.5 -33t-2 -49t2.5 -45t15 -22q12 -3 21.5 7.5t16.5 27.5t11.5 38.5t7.5 41t4.5 35t1.5 20.5q0 14 -1 23.5t0 14.5q-2 4 5 10t17.5 10.5t21.5 4.5t17 -9q5 -8 12.5 -34t14 -57.5t10.5 -62.5t4 -49q15 17 28.5 36.5
t19.5 41.5q8 1 13 -1t7.5 -7t-2.5 -17q-11 -32 -28.5 -56.5t-39.5 -41.5q-3 -50 -14 -99.5t-30 -85.5t-46.5 -53t-63.5 -3q-33 13 -44.5 33t-8 43.5t17.5 48t32 46t36.5 38t29.5 24.5q1 1 2.5 32t1.5 71q-3 -21 -10 -45.5t-19 -44.5t-30.5 -32.5t-44.5 -9.5q-22 2 -35 11.5
t-20 22.5t-8.5 28.5t0.5 30.5q1 16 4.5 37.5t6.5 41.5q4 23 8 47zM103 -24q15 1 26.5 38.5t18.5 99.5q-1 -1 -8.5 -9.5t-17.5 -21.5t-19.5 -29t-13.5 -32q-8 -30 -1.5 -38.5t15.5 -7.5zM205 669l9.5 -9.5t17 -23.5t8.5 -29.5t-14 -26.5q-21 -17 -50.5 -30.5t-56.5 -24.5
q-32 -12 -64 -23q-7 6 -11 12q-4 5 -5 12t4 14q3 4 16.5 15.5t31.5 26t38 30t37 28t28 21z" />
    <glyph glyph-name="ydieresis" unicode="&#xff;" horiz-adv-x="295" 
d="M10 359l6.5 2t15.5 2.5t18.5 -2t14.5 -11.5q4 -9 2.5 -33t-2 -49t2.5 -45t15 -22q12 -3 21.5 7.5t16.5 27.5t11.5 38.5t7.5 41t4.5 35t1.5 20.5q0 14 -1 23.5t0 14.5q-2 4 5 10t17.5 10.5t21.5 4.5t17 -9q5 -8 12.5 -34t14 -57.5t10.5 -62.5t4 -49q15 17 28.5 36.5
t19.5 41.5q8 1 13 -1t7.5 -7t-2.5 -17q-11 -32 -28.5 -56.5t-39.5 -41.5q-3 -50 -14 -99.5t-30 -85.5t-46.5 -53t-63.5 -3q-33 13 -44.5 33t-8 43.5t17.5 48t32 46t36.5 38t29.5 24.5q1 1 2.5 32t1.5 71q-3 -21 -10 -45.5t-19 -44.5t-30.5 -32.5t-44.5 -9.5q-22 2 -35 11.5
t-20 22.5t-8.5 28.5t0.5 30.5q1 16 4.5 37.5t6.5 41.5q4 23 8 47zM103 -24q15 1 26.5 38.5t18.5 99.5q-1 -1 -8.5 -9.5t-17.5 -21.5t-19.5 -29t-13.5 -32q-8 -30 -1.5 -38.5t15.5 -7.5zM78 559q9 -27 -2 -40t-38 -11q-21 2 -32.5 18t2.5 43q6 12 16 16t20.5 2.5t20 -9
t13.5 -19.5zM189 559q9 -27 -2 -40t-38 -11q-21 2 -32.5 18t2.5 43q6 12 16 16t20.5 2.5t20 -9t13.5 -19.5z" />
    <glyph glyph-name="Thorn" unicode="&#xde;" horiz-adv-x="266" 
d="M77 594q0 -4 -1 -28.5t-2 -61t-2 -80t-1 -86.5q8 23 19 47.5t24 45t28 33.5t32 13q28 0 42.5 -16.5t18.5 -41t-0.5 -55t-14.5 -58.5q-2 -6 -4 -11q18 3 37.5 4.5t22.5 -2.5q5 -6 4 -15.5t-1 -8.5t-9 -0.5t-22.5 -4.5t-29 -7t-27.5 -7q-29 -32 -60 -35q-25 -4 -34.5 4
t-7.5 20.5t13.5 25.5t28.5 19q6 1 14.5 15.5t17 34t14.5 40.5t6 35q0 20 -8.5 21.5t-21.5 -11t-28.5 -36t-28.5 -53.5l-24 -56q1 -24 1.5 -50t2.5 -55q2 -63 6.5 -102.5t8.5 -62.5q4 -26 10 -39q-21 -7 -39 -7q-16 0 -32 6.5t-24 28.5q-6 14 -8.5 60t-2.5 106.5t2.5 129
t6.5 128t9 102t10 52.5q8 15 17.5 20.5t17.5 5.5t13.5 -3t5.5 -4z" />
    <glyph glyph-name="germandbls" unicode="&#xdf;" horiz-adv-x="297" 
d="M-87 103q0 -4 5.5 -12.5t13.5 -16t18 -10.5t20 3.5t17.5 25.5t11.5 57q2 21 2.5 48.5t0 57.5t-1 62.5t0.5 64.5q1 42 9 79.5t22.5 65.5t35.5 44.5t48 16.5q14 0 32.5 -4t36 -15.5t30.5 -32t16 -53.5q3 -31 -3 -52.5t-15 -36t-18 -21.5t-12 -8q3 -2 17 -10.5t29 -23
t27 -35t11 -47.5q-1 -29 -15.5 -53t-37 -39t-51 -19t-56.5 7t-25.5 32t19 43t39.5 40.5t35 25.5l4 2q-2 4 -2.5 8t-2.5 9q-14 38 -26 46.5t-22 3.5q-11 -6 -21 -28q-5 2 -9 5q-4 2 -7 5t-4 7q-1 3 7.5 11t19 21t20.5 30t13 40q5 45 -5 73t-26 26q-8 -1 -13.5 -14.5t-9.5 -35
t-6 -50t-3 -59.5q-2 -48 -2 -94t-2 -78q-2 -38 -11 -72.5t-25.5 -60t-41 -40t-57.5 -11.5q-28 2 -40.5 10t-16 18t0.5 20.5t9.5 17.5t11 9.5t5.5 -3.5zM116 175q0 -13 10.5 -12.5t23 12.5t22.5 33.5t10 49.5q-9 -6 -20.5 -15.5t-22 -20.5t-17.5 -23t-6 -24z" />
    <glyph glyph-name="eth" unicode="&#xf0;" horiz-adv-x="342" 
d="M106 591q6 4 12 9q5 4 12.5 9.5t16.5 11.5q-12 12 -22 19t-17.5 10t-10.5 3t0 -1q-2 1 -8 -1t-13 -3t-13 1.5t-9 12.5q-5 17 7.5 22.5t33.5 3.5q53 -4 97 -36q21 13 39 21t26 4q18 -11 24 -21q4 -6 6 -12q-7 -5 -14 -11q-7 -5 -15 -12t-18 -14q44 -55 64 -129
q13 -48 13 -98t-14 -93.5t-43 -75t-74 -41.5q-35 -8 -63 2.5t-48 32t-33 51.5t-18.5 61t-4.5 60t10 49q14 34 33 52.5t39.5 25t40.5 2t36.5 -16t28.5 -28.5t15 -36q-2 13 -3.5 25t-3.5 23q-12 58 -32 97q-11 -5 -20 -8.5t-16 -3.5q-15 0 -23.5 5t-12.5 11.5t-5 11.5t0 5z
M218 380q-2 13 -14 30t-28 25.5t-33.5 1.5t-32.5 -41q-8 -18 -9 -50t4.5 -63t18.5 -55t34 -25q14 -1 23.5 10.5t16.5 30t11 40.5t6 42t2.5 35t0.5 19z" />
    <glyph glyph-name="divide" unicode="&#xf7;" horiz-adv-x="273" 
d="M171 300q9 -27 -2 -40t-38 -11q-21 2 -32.5 18t2.5 43q6 12 16 16t20.5 2.5t20 -9t13.5 -19.5zM171 506q9 -27 -2 -40t-38 -11q-21 2 -32.5 18t2.5 43q6 12 16 16t20.5 2.5t20 -9t13.5 -19.5zM23 356l-1.5 8.5t-1.5 19.5t3 20.5t14 11.5t44.5 2.5t71.5 0.5h96
q4 -16 5 -29q1 -11 -2 -21t-11 -12q-6 -2 -24.5 -2.5t-42.5 -0.5t-51 0.5t-49 1t-36.5 0.5h-14.5z" />
    <glyph glyph-name="thorn" unicode="&#xfe;" horiz-adv-x="266" 
d="M77 594q0 -4 -1 -28.5t-2 -61t-2 -80t-1 -86.5q8 23 19 47.5t24 45t28 33.5t32 13q28 0 42.5 -16.5t18.5 -41t-0.5 -55t-14.5 -58.5q-2 -6 -4 -11q18 3 37.5 4.5t22.5 -2.5q5 -6 4 -15.5t-1 -8.5t-9 -0.5t-22.5 -4.5t-29 -7t-27.5 -7q-29 -32 -60 -35q-25 -4 -34.5 4
t-7.5 20.5t13.5 25.5t28.5 19q6 1 14.5 15.5t17 34t14.5 40.5t6 35q0 20 -8.5 21.5t-21.5 -11t-28.5 -36t-28.5 -53.5l-24 -56q1 -24 1.5 -50t2.5 -55q2 -63 6.5 -102.5t8.5 -62.5q4 -26 10 -39q-21 -7 -39 -7q-16 0 -32 6.5t-24 28.5q-6 14 -8.5 60t-2.5 106.5t2.5 129
t6.5 128t9 102t10 52.5q8 15 17.5 20.5t17.5 5.5t13.5 -3t5.5 -4z" />
    <glyph glyph-name="a" unicode="a" horiz-adv-x="333" 
d="M196 418l8 2t19.5 2.5t22.5 -2t16 -11.5q2 -6 2 -23.5t-1.5 -40t-2.5 -47.5t-0.5 -46t4 -35.5t11.5 -15.5q11 -2 22 13t19 34q10 22 18 50q1 -1 4 -2q2 -1 4.5 -2.5t7.5 -3.5q0 -15 -6 -41t-18.5 -50.5t-34 -43t-52.5 -18.5q-15 0 -28 8t-22 21t-14 27.5t-4 28.5
q-17 -35 -42 -59t-59 -24q-30 0 -50.5 20.5t-27 52.5t2 72t36.5 79q15 21 33.5 32.5t36.5 15.5t34 0.5t25 -13.5t14.5 -19.5t7.5 -16.5t3 -10t1 0q2 15 3.5 27.5t3.5 20.5q2 10 3 18zM135 374q-10 1 -20.5 -11t-19 -31t-14 -41.5t-6 -42t5.5 -32.5t21 -13q17 -1 32 19.5
t27 49.5q3 10 3.5 26.5t-2 33t-9 28.5t-18.5 14z" />
    <glyph glyph-name="b" unicode="b" horiz-adv-x="254" 
d="M116 201q14 0 23 14t15 32q-17 17 -26 39.5t-14 43.5q-2 11 4.5 21t17 15t23.5 3.5t24 -13.5q5 -5 8 -21t7 -33t10.5 -29.5t20.5 -9.5q7 1 11 6.5t7 11.5t4.5 11.5t3.5 5.5q3 1 7 0q8 -2 9 -9t-3.5 -19.5t-14 -24t-24.5 -18t-34 -2.5q-8 1 -15 5q-15 -51 -43.5 -74
t-65.5 -15q-46 10 -64 81q-5 24 -7 65.5t1 89.5q2 44 7.5 89.5t14.5 84t21.5 65.5t27.5 35q14 8 29.5 6.5t29 -9t23.5 -18t12 -20.5q6 -27 -2 -57.5t-22.5 -60.5t-31 -57.5t-26.5 -48.5q-2 -26 -1.5 -53t3.5 -53q2 -34 10 -56.5t20 -22.5zM82 448q6 16 14 41t14 49.5
t8.5 43.5t-1.5 24q-3 4 -7.5 -5.5t-9.5 -26.5q-9 -35 -12.5 -64t-5.5 -62z" />
    <glyph glyph-name="c" unicode="c" horiz-adv-x="215" 
d="M141 414q-13 -7 -23.5 -25.5t-18 -42t-11 -49t-1.5 -47t10 -35.5t23 -14q19 0 36 15t31 33q16 21 30 49q2 1 5 1q2 -1 5 -3t6 -7q1 -3 -2.5 -16t-11.5 -30.5t-20.5 -37t-29 -34.5t-37.5 -23t-45 -4q-30 4 -51.5 20.5t-32 42.5t-8.5 59.5t19 72.5q22 50 55.5 75t59.5 28
q14 2 25 -2.5t13 -18.5q1 -8 -2 -10.5t-8 -2.5t-9.5 2t-6.5 4z" />
    <glyph glyph-name="d" unicode="d" horiz-adv-x="306" 
d="M243 448q7 16 15 41t14 49.5t8.5 43.5t-1.5 24q-4 4 -8 -5.5t-7 -26.5q-9 -35 -14 -64t-7 -62zM279 160q6 -7 3.5 -14.5t-10.5 -12.5t-20 -7.5t-24 0.5q-11 3 -22.5 9.5t-21.5 19.5t-17.5 33.5t-10.5 51.5q-16 -53 -45 -78t-67 -17q-24 5 -39 23.5t-18.5 44.5t4 57.5
t28.5 63.5q16 25 36 38t39 15t36 -4.5t29 -18.5q3 44 9 91.5t15.5 88.5t22 70t27.5 37q14 8 29.5 6t28 -9.5t21.5 -18.5t11 -21q6 -27 -1.5 -57t-21 -59.5t-29.5 -57t-26 -48.5q-2 -29 -1 -66.5t4.5 -72t10.5 -59t16 -28.5h4zM93 322q-9 -18 -15.5 -39.5t-8.5 -39.5t2 -30
t16 -13q8 -1 17.5 10t18 27.5t15.5 37t11 38.5q-2 6 -6 17t-11 17.5t-17 2.5t-22 -28z" />
    <glyph glyph-name="e" unicode="e" horiz-adv-x="201" 
d="M144 326q-13 -12 -29.5 -19t-34.5 -12q-2 -19 -2 -36.5t4 -30.5t12.5 -20.5t23.5 -6.5q19 2 34.5 17t26.5 33q13 21 23 47q1 -1 4 -2q4 -1 14 -7q3 -3 1 -15.5t-9 -30t-19 -36.5t-28 -34.5t-37.5 -24t-46.5 -4.5q-29 4 -49.5 21.5t-30 44.5t-6.5 62t20 74
q15 31 34.5 52.5t40.5 31.5t41.5 8t36.5 -17q14 -14 14.5 -29t-6 -28t-16.5 -23.5t-16 -14.5zM131 404q-12 3 -23.5 -19.5t-20.5 -58.5q18 6 31 18.5t19.5 25t5 22.5t-11.5 12z" />
    <glyph glyph-name="f" unicode="f" horiz-adv-x="192" 
d="M93 487q0 -5 -2 -13.5t-5.5 -29t-7.5 -57.5t-7 -98q18 -2 37 -1.5t36.5 3t31 5t20.5 3.5q4 -7 6 -12q4 -13 -6 -18q-6 -3 -19.5 -6.5t-27.5 -6t-25 -4t-14 -1.5q4 -2 22 -23.5t36 -63.5q6 -14 10 -33t5 -40t-2.5 -42t-13.5 -39t-26 -30.5t-34.5 -17.5t-38 -1t-36.5 20
q-21 20 -30 55.5t-11.5 75t0 77t4.5 62.5q5 54 11 92t12 63t11.5 39.5t9.5 22.5q8 15 17.5 20.5t17.5 5.5t13.5 -3t5.5 -4zM75 173q1 -19 1.5 -44t3 -47.5t8.5 -38.5t17 -17q9 -1 15.5 11.5t9.5 33t2 45t-7.5 47.5t-19 41.5t-32.5 26.5q0 -16 0.5 -27t1.5 -31z" />
    <glyph glyph-name="g" unicode="g" horiz-adv-x="296" 
d="M172 377q-9 19 -21 18t-24.5 -15t-24 -37t-19.5 -48q-12 -37 -13 -66t17 -30q10 -1 19.5 9t18 26t16 35.5t13.5 39.5q8 26 12 44.5t6 23.5zM103 -24q16 1 27.5 38.5t17.5 99.5q0 -1 -8 -9.5t-17.5 -21.5t-19 -29t-13.5 -32q-8 -30 -1.5 -38.5t14.5 -7.5zM248 222
q14 17 27.5 35.5t21.5 40.5q7 1 12 -1q4 -2 6.5 -7t-2.5 -17q-11 -32 -28.5 -55.5t-38.5 -40.5q-3 -50 -14 -99.5t-30 -85.5t-46.5 -53t-63.5 -3q-33 13 -44.5 33t-8.5 43.5t17 48t32 46t36.5 38t29.5 24.5q1 1 2 8.5t2 17.5t1 20.5t-1 17.5q-1 -2 -7.5 -18t-19 -33
t-32 -30.5t-46.5 -11.5t-41.5 18t-20 40t-2 52.5t12.5 55.5q13 35 34 66t46 48.5t51.5 17.5t49.5 -27q0 -1 6.5 0t15 0.5t16.5 -4.5t13 -15q4 -8 7 -29t4.5 -46t2 -51t0.5 -44z" />
    <glyph glyph-name="h" unicode="h" horiz-adv-x="316" 
d="M192 441q33 0 48.5 -18t20.5 -45.5t2.5 -59.5t-5 -59t-1 -45t13.5 -16q11 1 19.5 16.5t14.5 34.5q7 22 12 49q8 0 14 -1q12 -3 11 -12q-1 -3 -3.5 -15.5t-7 -29.5t-12.5 -35.5t-19.5 -33t-27 -23.5t-36.5 -7q-30 3 -45 19t-19.5 39.5t-1.5 52.5t8 60q6 33 2 51t-12.5 18
t-20 -18t-21.5 -57q-10 -38 -12.5 -65t-1.5 -44q1 -20 5 -34v-2h1q-5 -10 -16.5 -15.5t-24.5 -7t-26 1.5t-21 9q-12 9 -18.5 22.5t-9.5 28.5t-3.5 30t-0.5 26q1 36 3.5 77.5t8 85t13.5 86.5t20 82q8 25 16.5 41.5t19.5 22.5q15 8 31 6.5t29.5 -9t23 -18t11.5 -20.5
q7 -27 -1.5 -57.5t-23 -60.5t-31.5 -57.5t-27 -48.5q-2 -23 -4 -51t0 -57q1 7 2 13.5t3 14.5q5 25 14 49.5t21.5 43.5t28.5 30.5t36 11.5zM89 448q7 16 15 41t14.5 49.5t9 43.5t-1.5 24q-4 4 -7.5 -5.5t-8.5 -26.5q-9 -35 -14 -64t-7 -62z" />
    <glyph glyph-name="i" unicode="i" horiz-adv-x="157" 
d="M5 359l10 2t23 2.5t25.5 -2t17.5 -11.5q4 -9 2.5 -33t-2 -49t2.5 -45t15 -22q11 -2 22 13t19 34q10 22 18 50q1 -1 4 -2q2 -1 4.5 -2.5t7.5 -3.5q0 -15 -6.5 -41.5t-20 -52t-35.5 -42.5t-53 -14q-22 2 -34.5 11.5t-18.5 22.5t-8 28.5t-2 30.5q0 17 1 39t3 42q2 23 5 45z
M27 433q-1 16 3.5 31.5t13.5 25t21.5 10t27.5 -14.5q6 -5 7 -16.5t-1 -24t-7 -24t-12 -16.5q-6 -6 -14 -8t-16.5 1.5t-15 12.5t-7.5 23z" />
    <glyph glyph-name="j" unicode="j" horiz-adv-x="156" 
d="M-36 -24q15 1 26.5 38.5t18.5 99.5q-1 -1 -8.5 -9.5t-17.5 -21.5t-19.5 -29t-13.5 -32q-8 -30 -1.5 -38.5t15.5 -7.5zM7 371q0 14 -1 23.5t0 14.5q-2 4 5 10t17.5 10.5t21.5 4.5t17 -9q5 -8 12.5 -34t14 -57.5t10.5 -62.5t4 -49q15 17 28.5 35.5t19.5 40.5q8 1 13 -1
t7.5 -7t-2.5 -17q-11 -32 -28.5 -55.5t-39.5 -40.5q-3 -50 -14 -99.5t-30 -85.5t-46.5 -53t-63.5 -3q-33 13 -44.5 33t-8 43.5t17.5 48t32 46t36.5 38t29.5 24.5q1 1 2.5 32t1.5 71q-2 -4 -6.5 -10t-7.5 -6q-7 -1 -9 1t-3 4q-1 3 0 6q4 19 6.5 32t4 24t2.5 22t1 26zM13 497
q-2 16 3 32.5t14.5 27t23 11t29.5 -14.5q6 -7 7 -19t-1.5 -25.5t-8 -25t-12.5 -17.5q-16 -12 -35 -4.5t-20 35.5z" />
    <glyph glyph-name="k" unicode="k" horiz-adv-x="265" 
d="M90 448q6 16 14 41t14 49.5t9 43.5t-1 24q-4 4 -8.5 -5.5t-9.5 -26.5q-7 -35 -11.5 -64t-6.5 -62zM106 158q-2 -6 -11.5 -10.5t-21 -6t-23.5 0t-20 7.5q-12 9 -19 22.5t-10 28.5t-3.5 30t-0.5 26q1 36 3.5 77.5t8 85t13.5 86.5t20 82q16 52 38 64q14 8 29.5 6.5t29 -9
t23.5 -18t12 -20.5q7 -27 -1.5 -57.5t-23 -60.5t-31 -57.5t-26.5 -48.5l-3 -47q12 23 28 41.5t35 19.5q20 1 34 -12t19 -29.5t0.5 -33t-21.5 -22.5q-9 -3 -19.5 -7.5t-19.5 -8.5q-11 -4 -21 -9q20 -32 42 -47.5t40 -21t29.5 -4.5t10.5 2q3 -3 2.5 -15t-7.5 -24.5t-21 -21
t-36 -3.5q-17 3 -32.5 15.5t-27.5 31t-19.5 42.5t-7.5 51q3 9 16 19.5t26 20t21 17t0 10.5q-11 4 -25.5 -6.5t-33.5 -39.5q-4 -5 -7 -13t-6 -17v-1q2 -43 6 -73.5t12 -41.5z" />
    <glyph glyph-name="l" unicode="l" horiz-adv-x="186" 
d="M115 201q13 -1 25.5 10t22 27t16 32.5t8.5 27.5q6 1 10 0t7.5 -2.5t3.5 -5.5q-22 -93 -59 -127.5t-80 -21.5q-22 7 -38 26t-25 55q-6 24 -7.5 65.5t0.5 89.5q3 44 8.5 89.5t14.5 84t21 65.5t27 35t30.5 6.5t29 -9t23 -18t12.5 -20.5q6 -27 -2 -57.5t-22.5 -60.5
t-31.5 -57.5t-27 -48.5q-2 -12 -2 -42t3 -61.5t10.5 -56t21.5 -25.5zM79 448q7 16 15 41t14.5 49.5t9 43.5t-1.5 24q-3 4 -7.5 -5.5t-9.5 -26.5q-9 -35 -13.5 -64t-6.5 -62z" />
    <glyph glyph-name="m" unicode="m" horiz-adv-x="407" 
d="M11 438l8 2t19.5 2t22 -5.5t14.5 -20.5q2 -9 3.5 -26.5t2 -39t1.5 -45.5t3 -46q2 16 6 35t10.5 36t17.5 28.5t26 11.5q18 0 29 -10t16.5 -22t7.5 -22.5t2 -12.5q1 5 7.5 28.5t19.5 49t31.5 44.5t44.5 15q19 -6 28 -23t12.5 -39.5t2.5 -48.5t-2 -50q-2 -29 0.5 -51.5
t11.5 -25.5t18.5 12.5t17 35t13 36l5.5 16.5q1 -1 3 -1t3 -0.5t3 -0.5l8 -2q-1 -46 -15 -79t-34 -52.5t-42 -24.5t-40.5 5.5t-30 37.5t-8.5 71q2 25 6 46t7 37t4.5 25t-1.5 10q-6 2 -17 -21t-20 -62q-6 -26 -8 -42.5t-3 -26.5q-1 -11 1 -17q-6 -5 -14 -9q-7 -3 -16.5 -5
t-21.5 1q-25 5 -29 27.5t-5 63.5q-1 22 -4.5 26.5t-8 -1t-8.5 -18.5t-5 -25q-2 -13 -2.5 -24t-1.5 -20q-1 -11 -1 -20q-1 -12 -5 -19q-8 -20 -21.5 -28.5t-27.5 -10.5q-17 -5 -31.5 5t-22.5 30q-5 13 -5.5 37t0.5 53t3.5 59t5 55t4.5 40.5z" />
    <glyph glyph-name="n" unicode="n" horiz-adv-x="306" 
d="M7 375l8 2.5t19.5 2t22 -6t14.5 -20.5q3 -11 3 -30.5t-1 -41.5q7 27 18 57.5t27 54t37 36t47 3.5q18 -3 27.5 -20.5t13 -42t4 -52.5t0 -52t0.5 -41t6 -19q9 -3 18.5 11.5t17.5 33t13.5 34l5.5 15.5q1 -1 3 -1t3 -0.5t3 -0.5l8 -2q-9 -41 -21 -74q-11 -29 -27 -53t-39 -27
q-23 -4 -39 2.5t-26.5 21.5t-14 37.5t-0.5 50.5q2 25 5 46.5t5 38t2.5 26t-2.5 10.5q-10 3 -21.5 -18.5t-22.5 -52t-20 -63t-13 -50.5l-5 -14q-6 -17 -12.5 -24t-19.5 -9q-17 -5 -31.5 5t-22.5 30q-7 19 -6.5 52t3.5 65.5t6.5 56z" />
    <glyph glyph-name="o" unicode="o" horiz-adv-x="287" 
d="M220 387q17 -29 21.5 -68t-6.5 -76q3 0 5 1q14 3 22.5 12t14.5 18q6 11 11 24l19 -15q-4 -19 -13 -35q-8 -14 -20 -26.5t-32 -17.5q-11 -3 -23 -1q-19 -30 -49 -48.5t-73 -10.5q-46 8 -68 35t-28 60t0 65t17 50q7 20 28.5 44t50.5 36t61.5 4t61.5 -51zM87 294
q-1 -35 10.5 -60t34.5 -27q18 -2 28 4.5t18 18.5q-9 14 -12 31t3 34q4 13 13 22t15 11q3 28 -10.5 47.5t-33.5 24.5t-33 -6.5t-20 -30t-10 -38t-3 -31.5z" />
    <glyph glyph-name="p" unicode="p" horiz-adv-x="266" 
d="M75 522q1 -8 -2 -53t-2 -131q8 23 19 47.5t24 45t28 33.5t32 13q28 0 42.5 -16.5t18.5 -41t-0.5 -55t-14.5 -58.5q-2 -6 -4 -11q18 3 37.5 4.5t22.5 -2.5q5 -6 4 -15.5t-1 -8.5t-9 -0.5t-22.5 -4.5t-29 -7t-27.5 -7q-29 -32 -60 -35q-25 -4 -34.5 4t-7.5 20.5t13.5 25.5
t28.5 19q6 1 14.5 15.5t17 34t14.5 40.5t6 35q0 20 -8.5 21.5t-21.5 -11t-28.5 -36t-28.5 -53.5l-24 -56q1 -24 1.5 -50t2.5 -55q2 -63 6.5 -102.5t8.5 -62.5q4 -26 10 -39q-21 -7 -39 -7q-16 0 -32 6.5t-24 28.5q-6 14 -8.5 54.5t-2.5 93.5t2 112t5.5 110.5t8.5 88.5t10 47
q8 15 17.5 20.5t17.5 5.5t13.5 -3t5.5 -4z" />
    <glyph glyph-name="q" unicode="q" horiz-adv-x="298" 
d="M221 44q13 3 20.5 23t6.5 48.5t-11 59.5t-32 56q-1 -12 -1.5 -30.5t-0.5 -39.5t1 -42.5t3.5 -38.5t5.5 -27t8 -9zM225 392q4 -5 5.5 -11t0 -17t-5.5 -29t-10 -46q36 -5 58.5 2.5t31.5 9.5q4 -7 5 -12t-0.5 -10t-8.5 -7q-11 -8 -24 -13t-24.5 -8t-20 -4.5t-11.5 -1.5
q15 -6 31 -32t24.5 -61.5t5 -76t-28.5 -76.5q-9 -12 -23.5 -19t-31.5 -8.5t-34.5 3.5t-30.5 16q-16 13 -21 40t-3.5 59.5t7.5 66t12 59.5q-15 -48 -34.5 -63t-40.5 -13q-27 2 -41.5 18t-20 40t-2 52.5t12.5 55.5q8 23 21.5 45.5t30 41t35.5 31t38.5 15.5t38 -5t34.5 -31
q4 -2 13.5 -5.5t11.5 -5.5zM165 395q-9 15 -20 10t-22 -21.5t-21.5 -40.5t-18.5 -48q-12 -37 -13 -66t16 -30q11 -1 22.5 24t22 58.5t19.5 66t15 47.5z" />
    <glyph glyph-name="r" unicode="r" horiz-adv-x="237" 
d="M-1 407q1 10 3.5 20t8 18t15 12.5t23.5 4.5q21 0 27 -14t5.5 -30.5t-5 -30.5t-5.5 -14t9.5 -3t25 -9t29 -16t21.5 -25q6 -13 5 -33t-2.5 -39t1.5 -32.5t18 -13.5q13 0 24 13.5t19 31t12.5 33.5t4.5 19q0 1 3.5 1.5t8 -0.5t7.5 -4.5t2 -10.5q-2 -10 -8.5 -35t-21 -50
t-37 -43.5t-55.5 -15.5q-37 3 -53 27.5t-11 53.5q3 18 10.5 37.5t10.5 36.5t-2.5 31t-28.5 22q-2 0 -3.5 0.5t-3.5 0.5q-3 -5 -7 -13.5t-8 -16.5q-4 -10 -10 -19q-7 0 -11 2t-7 6t-1 12q2 9 6 19.5t9 18.5q-14 5 -22 15.5t-6 32.5z" />
    <glyph glyph-name="s" unicode="s" horiz-adv-x="194" 
d="M150 428q4 -2 6.5 -7.5t2.5 -11t-2.5 -9t-7.5 -1.5q-22 10 -43 12.5t-38 -17.5q-14 -17 1.5 -45t58.5 -75l7 -7q28 9 44 21t17 11l10 -19q-8 -8 -20.5 -18t-33.5 -21q21 -32 24 -62t-7.5 -53t-31 -36t-45.5 -11q-21 0 -39.5 8t-32 21t-20 28.5t-3.5 31.5q1 5 6 14
t13 18.5t19.5 18t25.5 14.5q-12 8 -22 19.5t-25 25.5q-12 10 -18.5 24.5t-8.5 29.5t0.5 29.5t8.5 25.5q25 43 66.5 52.5t87.5 -11.5zM84 126q18 11 20.5 33t-22.5 51q-10 -6 -27 -20t-24 -27q-5 -9 -0.5 -17.5t13.5 -14.5t20 -8t20 3z" />
    <glyph glyph-name="t" unicode="t" horiz-adv-x="170" 
d="M200 505q11 -10 13 -20.5t0 -19.5q-3 -11 -10 -21q-5 -2 -9.5 2t-2.5 7q4 8 -26 9.5t-77 -2.5q-3 -38 -4 -83t1 -84t9.5 -65.5t22.5 -26.5q14 0 24.5 15.5t17 33.5t9.5 33l3 15q4 0 8 -1q10 -2 15 -4q1 -1 -1 -19t-9 -41t-19 -46t-30 -33q-21 -12 -42 -13t-39 8t-31.5 28
t-20.5 46q-4 15 -4 40.5t2 57t6 65.5t9 66q-31 -4 -59.5 -4.5t-38.5 12.5q-6 8 -5.5 14t4 9.5t7.5 4.5t5 -1q2 -10 28.5 -8.5t63.5 8.5q6 38 10.5 63t5.5 25l11 3t23 1.5t20.5 -12t4.5 -38.5l-3 -29q38 7 69 10t39 -5z" />
    <glyph glyph-name="u" unicode="u" horiz-adv-x="294" 
d="M165 438l7.5 1.5t18 2t20.5 -2.5t15 -12q2 -6 1.5 -25t-2 -44t-3.5 -52.5t-2 -50.5t3.5 -39t11.5 -17q11 -2 22 14t20 36q10 23 19 53q1 -1 4 -2q2 -1 4.5 -2.5t7.5 -3.5q-2 -12 -8.5 -38.5t-19.5 -53.5t-33.5 -46t-50.5 -16q-20 2 -32.5 10t-19.5 19t-9.5 24.5
t-2.5 27.5q-14 -35 -33 -59.5t-45 -21.5q-22 2 -35 11.5t-20 22.5t-8.5 28.5t0.5 30.5q1 16 3 43.5t4 53.5q3 31 5 65l8.5 2t20 2.5t23 -2t16.5 -11.5q2 -6 2 -22t-1.5 -36t-3 -41.5t-1 -40t4 -31.5t11.5 -14q10 -2 20.5 20.5t20.5 52.5t17.5 60.5t10.5 44.5q2 12 3 23t3 19
q2 10 3 17z" />
    <glyph glyph-name="v" unicode="v" horiz-adv-x="338" 
d="M-2 291q0 2 4 22t12 56q7 36 10 46q2 7 2 11q16 9 31 13q13 4 26 5t21 -6t14 -28.5t12 -50t12.5 -59.5t14.5 -56q6 -18 14 -30t17 -16.5t16.5 -1t12.5 15.5q3 9 6 22t5 33q5 46 12.5 87t18.5 71t28 45t41 10q18 -4 22.5 -16t-0.5 -12q-12 0 -23 -17t-22 -48t-21.5 -74
t-21.5 -95q-8 -36 -30.5 -56.5t-51 -25.5t-56.5 7t-46 41q-15 24 -20.5 54t-6.5 57t1 46t2 21q-1 -3 -6 -16.5t-11.5 -28.5t-12.5 -26.5t-10 -11.5q-8 0 -12 5t-4 7z" />
    <glyph glyph-name="w" unicode="w" horiz-adv-x="452" 
d="M106 435q-3 -11 -6 -31t-5 -45t-3 -51.5t1 -48.5t7 -37t14 -17q14 -4 27.5 22t22.5 79q4 26 8.5 42t10 25t11 12.5t13.5 5.5q15 3 27.5 -3.5t13.5 -8.5q0 -1 -3 -25t-4 -54.5t4 -58t21 -36.5q13 -7 24.5 -0.5t20 20t14 32t8.5 34.5t3.5 28t-2.5 12q-2 -1 -6 3
q-3 3 -8 9.5t-13 19.5q-15 26 -13 48t34 30q16 4 30 -3.5t24 -24t16.5 -40.5t7.5 -52v-1q12 -11 21 -15.5t16 -5.5q8 -2 14 1q3 -7 2 -13q-1 -5 -5.5 -9.5t-17.5 -6.5q-16 -1 -31 5q-8 -72 -45.5 -109t-89.5 -28q-26 4 -41 21t-22.5 35.5t-9.5 33l-2 14.5q-21 -48 -55 -77.5
t-70 -24.5q-27 4 -42.5 23t-23 47t-7.5 61t5 64.5t14 58t19 41.5q6 9 18 9.5t24 -1.5t20.5 -5.5z" />
    <glyph glyph-name="x" unicode="x" horiz-adv-x="295" 
d="M239 435q3 6 9.5 4t10 -10t1 -20.5t-17.5 -28.5q-14 -14 -37.5 -35.5t-47.5 -47.5q8 -20 18.5 -37t21.5 -30t22 -20.5t20 -7.5q19 0 30 15.5t17 33.5q7 21 10 49l12 -2q5 -2 8.5 -3.5t2.5 -5.5q-2 -9 -5.5 -33.5t-15.5 -50.5t-34.5 -45t-61.5 -17q-38 2 -63 25t-42 56
q-15 -21 -25 -45q-11 -28 -13 -44.5t0.5 -25.5t6.5 -12t6 -4q3 -2 6.5 -9t-6.5 -8q-5 0 -19 1t-27 9.5t-19 27t6 52.5q7 21 25 46.5t42 52.5q-8 23 -13 46.5t-7 43.5q-8 -14 -16 -26.5t-14.5 -22t-11.5 -15t-8 -5.5q-10 0 -13 3q-2 1 -1 3q3 6 12 32t20 55.5t22 53.5t17 27
q8 4 17 3t15 -5t8 -11.5t-4 -16.5q5 -22 15 -49.5t24 -55.5q45 42 71.5 72.5t25.5 37.5z" />
    <glyph glyph-name="y" unicode="y" horiz-adv-x="295" 
d="M10 359l6.5 2t15.5 2.5t18.5 -2t14.5 -11.5q4 -9 2.5 -33t-2 -49t2.5 -45t15 -22q12 -3 21.5 7.5t16.5 27.5t11.5 38.5t7.5 41t4.5 35t1.5 20.5q0 14 -1 23.5t0 14.5q-2 4 5 10t17.5 10.5t21.5 4.5t17 -9q5 -8 12.5 -34t14 -57.5t10.5 -62.5t4 -49q15 17 28.5 36.5
t19.5 41.5q8 1 13 -1t7.5 -7t-2.5 -17q-11 -32 -28.5 -56.5t-39.5 -41.5q-3 -50 -14 -99.5t-30 -85.5t-46.5 -53t-63.5 -3q-33 13 -44.5 33t-8 43.5t17.5 48t32 46t36.5 38t29.5 24.5q1 1 2.5 32t1.5 71q-3 -21 -10 -45.5t-19 -44.5t-30.5 -32.5t-44.5 -9.5q-22 2 -35 11.5
t-20 22.5t-8.5 28.5t0.5 30.5q1 16 4.5 37.5t6.5 41.5q4 23 8 47zM103 -24q15 1 26.5 38.5t18.5 99.5q-1 -1 -8.5 -9.5t-17.5 -21.5t-19.5 -29t-13.5 -32q-8 -30 -1.5 -38.5t15.5 -7.5z" />
    <glyph glyph-name="z" unicode="z" horiz-adv-x="213" 
d="M114 441q46 -9 62 -35t12.5 -56t-21 -57t-37.5 -37l6 -6q2 -3 5.5 -7t7.5 -9q14 13 25.5 25.5t20.5 21.5q11 11 19 20q6 -2 10 -6q4 -3 6 -7.5t0 -10.5q-2 -7 -21 -27.5t-43 -44.5q9 -20 14 -44t-3 -53q-8 -32 -28.5 -49t-43.5 -21.5t-43.5 2t-28.5 21.5q-17 31 -2 60
t61 64l11 9q-5 24 -11 42q-4 10 -7 17q-6 7 -10 13q-3 5 -5 10.5t3 8.5q4 3 9 2.5t10 -2.5q5 -3 11 -6q8 20 11 40q2 17 0 36t-13 34q-12 15 -24 14.5t-22.5 -10t-18 -24.5t-10.5 -28q-5 -27 0 -38.5t7 -12.5t-0.5 -8t-11.5 -7q-22 0 -27 15.5t1 50.5q3 18 11 38t22 36
t35 24t51 2zM95 112q7 16 9 34l-11 -9q-14 -11 -19.5 -25.5t-4.5 -23t8 -5t18 28.5z" />
    <glyph glyph-name="D" unicode="D" horiz-adv-x="767" 
d="M300 433q-18 -40 -41.5 -72.5t-49.5 -50.5q-31 -22 -64.5 -29.5t-62.5 -1t-50 27.5t-26 55q-8 50 5 97t40 89t65.5 77t82.5 61q57 35 120 52t121 11q43 -4 83 -18.5t74.5 -40t61.5 -62t44 -83.5q38 -105 -2 -239q36 -3 59 -6t28 -5q6 -3 6 -6.5t-2 -5.5q-3 -4 -8 -6h-26
h-67q-34 -89 -88.5 -149t-115.5 -91.5t-120 -34.5t-102 23q-23 14 -39 34t-25 42q-3 6 -5.5 14t-4.5 18q-9 40 13 72.5t85 58.5q1 38 3.5 82.5t7.5 86.5zM391 581q1 -3 1.5 -30t1 -68.5t1 -91t2.5 -95.5q48 9 102.5 12t106.5 2q1 3 5 9q36 71 45.5 123t-0.5 88
q-8 34 -29.5 59.5t-52.5 43t-70 26t-82 8.5q-101 -2 -195 -51q-69 -36 -120 -94t-66 -130q-6 -30 4.5 -47t32 -21t49.5 4t57 28q22 16 43 39t38.5 49t30.5 52t20 49q6 24 13 31q8 6 18.5 7.5t20.5 0.5t16.5 -2.5t6.5 -0.5zM410 149q0 -1 -1 -3t-3.5 -4.5t-8.5 -6.5
q-12 -7 -35 -11t-42 9q-12 8 -20.5 25.5t-9.5 46.5q-21 -11 -33 -22.5t-17.5 -22t-6 -20t2.5 -16.5q17 -24 56 -33t88.5 5.5t103.5 56t101 119.5q-45 -3 -93 -10t-93 -18q2 -34 4.5 -59t6.5 -36z" />
    </font>
</defs>
</svg>
